<svg width="320" height="288" viewBox="0 0 320 288" fill="none" xmlns="http://www.w3.org/2000/svg">
<path d="M320 244.736H0V244.896H320V244.736Z" fill="#EBEBEB"/>
<path d="M287.936 255.034H266.739V255.194H287.936V255.034Z" fill="#EBEBEB"/>
<path d="M211.981 256.774H206.419V256.934H211.981V256.774Z" fill="#EBEBEB"/>
<path d="M266.099 249.095H253.817V249.255H266.099V249.095Z" fill="#EBEBEB"/>
<path d="M61.2158 250.17H33.5742V250.33H61.2158V250.17Z" fill="#EBEBEB"/>
<path d="M70.9692 250.17H66.918V250.33H70.9692V250.17Z" fill="#EBEBEB"/>
<path d="M144.096 252.87H84.1406V253.03H144.096V252.87Z" fill="#EBEBEB"/>
<path d="M151.68 216.192H28.1021C27.134 216.19 26.2061 215.805 25.5222 215.12C24.8382 214.434 24.4541 213.506 24.4541 212.538V38.8226C24.4625 37.8601 24.8504 36.9397 25.5334 36.2615C26.2165 35.5832 27.1395 35.2018 28.1021 35.2002H151.68C152.649 35.2002 153.578 35.5852 154.264 36.2705C154.949 36.9559 155.334 37.8854 155.334 38.8546V212.538C155.334 213.507 154.949 214.437 154.264 215.122C153.578 215.807 152.649 216.192 151.68 216.192ZM28.1021 35.3282C27.1764 35.3299 26.2893 35.6988 25.6353 36.3539C24.9814 37.0091 24.6141 37.8969 24.6141 38.8226V212.538C24.6141 213.463 24.9814 214.351 25.6353 215.006C26.2893 215.662 27.1764 216.03 28.1021 216.032H151.68C152.606 216.03 153.494 215.662 154.149 215.007C154.804 214.352 155.172 213.464 155.174 212.538V38.8226C155.172 37.8963 154.804 37.0085 154.149 36.3535C153.494 35.6986 152.606 35.3299 151.68 35.3282H28.1021Z" fill="#EBEBEB"/>
<path d="M290.118 216.192H166.534C165.566 216.19 164.637 215.805 163.952 215.12C163.267 214.435 162.882 213.506 162.88 212.538V38.8226C162.89 37.8595 163.279 36.9391 163.963 36.2611C164.647 35.583 165.571 35.2018 166.534 35.2002H290.118C291.08 35.2035 292.001 35.5856 292.683 36.2637C293.365 36.9418 293.751 37.8612 293.76 38.8226V212.538C293.76 213.505 293.377 214.432 292.694 215.117C292.012 215.802 291.085 216.189 290.118 216.192ZM166.534 35.3282C165.608 35.3299 164.72 35.6986 164.065 36.3535C163.41 37.0085 163.042 37.8963 163.04 38.8226V212.538C163.042 213.464 163.41 214.352 164.065 215.007C164.72 215.662 165.608 216.03 166.534 216.032H290.118C291.045 216.03 291.932 215.662 292.587 215.007C293.242 214.352 293.611 213.464 293.613 212.538V38.8226C293.611 37.8963 293.242 37.0085 292.587 36.3535C291.932 35.6986 291.045 35.3299 290.118 35.3282H166.534Z" fill="#EBEBEB"/>
<path d="M191.36 154.976C190.782 154.586 190.099 154.378 189.402 154.381C188.999 153.837 189.402 153.101 189.818 152.563C190.234 152.026 190.797 151.475 190.669 150.816C190.483 149.818 189.107 149.715 188.109 149.856C187.864 149.2 187.715 148.513 187.667 147.814C187.527 147.13 187.027 146.387 186.323 146.438C185.619 146.49 185.223 147.206 184.576 147.328C183.821 147.469 183.207 146.778 182.656 146.253C182.588 146.188 182.515 146.128 182.439 146.074C182.656 144.038 184.595 144.454 186.279 144.256C187.559 144.102 184.314 140.659 186.983 139.731C187.489 139.608 187.939 139.32 188.263 138.912C188.411 138.597 188.443 138.239 188.354 137.902C188.265 137.565 188.061 137.27 187.776 137.069C187.198 136.679 186.515 136.471 185.818 136.474C185.415 135.936 185.818 135.194 186.24 134.662C186.663 134.131 187.213 133.568 187.085 132.909C186.899 131.91 185.523 131.808 184.525 131.955C184.276 131.298 184.128 130.608 184.083 129.907C183.936 129.222 183.443 128.486 182.733 128.538C182.023 128.589 181.639 129.306 180.986 129.421C180.231 129.562 179.616 128.87 179.066 128.346C178.515 127.821 177.498 127.469 177.063 128.096C176.807 128.48 176.922 129.03 176.653 129.376C176.186 130.016 175.175 129.555 174.56 129.056C173.946 128.557 172.941 128.07 172.461 128.704C172.338 128.915 172.244 129.141 172.179 129.376C172.109 129.543 172.014 129.698 171.898 129.837C171.795 129.376 171.783 128.883 171.68 128.416C171.533 127.725 171.04 126.989 170.33 127.04C169.619 127.091 169.235 127.808 168.583 127.93C167.93 128.051 167.219 127.379 166.663 126.854C166.106 126.33 165.095 125.971 164.659 126.605C164.397 126.982 164.512 127.533 164.243 127.885C164.186 127.967 164.112 128.037 164.026 128.09C163.808 128.051 163.584 128.032 163.386 128.013C162.983 127.475 163.386 126.733 163.808 126.202C164.231 125.67 164.781 125.114 164.659 124.454C164.467 123.456 163.091 123.354 162.099 123.494C161.853 122.837 161.704 122.147 161.658 121.446C161.511 120.762 161.018 120.026 160.307 120.077C159.597 120.128 159.213 120.845 158.56 120.966C157.805 121.107 157.191 120.416 156.64 119.891C156.09 119.366 155.066 119.008 154.631 119.642C154.375 120.019 154.49 120.57 154.221 120.922C153.754 121.562 152.743 121.107 152.128 120.602C151.514 120.096 150.4 119.68 149.939 120.32C149.818 120.52 149.724 120.735 149.658 120.96C149.312 121.818 148.346 122.24 147.584 122.733C146.823 123.226 146.183 124.346 146.771 125.056C147.066 125.408 147.597 125.574 147.731 126.01C147.891 126.554 147.322 127.014 146.867 127.36C146.573 127.659 146.366 128.033 146.27 128.442C146.174 128.851 146.192 129.278 146.323 129.677C146.1 129.869 145.835 130.007 145.549 130.08C144.794 130.221 144.179 129.53 143.629 129.005C143.079 128.48 142.061 128.122 141.626 128.755C141.363 129.133 141.485 129.69 141.216 130.035C140.749 130.675 139.738 130.214 139.117 129.709C138.496 129.203 137.504 128.73 137.018 129.363C136.9 129.565 136.806 129.78 136.736 130.003C136.391 130.861 135.456 131.283 134.663 131.776C133.869 132.269 133.267 133.389 133.856 134.106C134.131 134.438 134.631 134.605 134.791 135.008C134.285 134.778 133.722 134.746 133.427 135.174C133.133 135.603 133.287 136.109 133.011 136.454C132.544 137.094 131.533 136.634 130.919 136.128C130.304 135.622 129.306 135.149 128.819 135.782C128.699 135.983 128.605 136.198 128.538 136.422C128.192 137.286 127.258 137.702 126.464 138.195C125.671 138.688 125.069 139.808 125.658 140.525C125.946 140.877 126.477 141.037 126.611 141.472C126.778 142.022 126.202 142.477 125.754 142.822C124.999 143.405 124.775 145.242 125.709 145.786C126.099 146.022 126.688 146.112 126.765 146.56C126.842 147.008 126.413 147.251 126.125 147.539C125.948 147.749 125.819 147.995 125.745 148.259C125.672 148.523 125.655 148.8 125.698 149.072C125.74 149.343 125.84 149.601 125.991 149.831C126.142 150.06 126.341 150.254 126.573 150.4C126.797 150.522 127.072 150.624 127.149 150.867C127.175 151.049 127.146 151.234 127.066 151.398C126.955 151.726 126.908 152.071 126.925 152.416C126.917 152.537 126.956 152.656 127.034 152.749C127.12 152.814 127.226 152.848 127.335 152.845C128.711 152.973 129.402 152.518 130.183 153.76C130.249 153.886 130.343 153.995 130.458 154.08C130.574 154.145 130.703 154.184 130.835 154.195C131.776 154.317 132.429 153.754 133.299 153.69C134.509 153.594 134.733 154.227 135.77 154.778C137.402 155.642 138.234 155.194 138.599 154.074C138.7 153.755 138.767 153.427 138.797 153.094C138.805 152.847 138.866 152.605 138.976 152.384C139.087 152.163 139.244 151.969 139.437 151.814C140.32 151.93 140.941 151.456 141.728 151.334H142.221C143.162 151.334 143.443 151.923 144.378 152.422C144.806 152.674 145.285 152.827 145.779 152.87C145.895 153.395 145.351 153.83 144.915 154.15C144.16 154.733 143.943 156.563 144.871 157.114C145.261 157.344 145.85 157.44 145.927 157.888C146.003 158.336 145.581 158.573 145.287 158.867C145.111 159.077 144.982 159.321 144.908 159.585C144.835 159.848 144.818 160.124 144.86 160.394C144.902 160.665 145.001 160.923 145.151 161.152C145.3 161.381 145.497 161.575 145.728 161.722C145.952 161.843 146.227 161.946 146.304 162.195C146.33 162.377 146.301 162.562 146.221 162.726C146.113 163.054 146.066 163.399 146.08 163.744C146.071 163.801 146.075 163.859 146.092 163.914C146.109 163.969 146.138 164.019 146.178 164.061C146.218 164.102 146.267 164.134 146.321 164.153C146.375 164.173 146.433 164.179 146.49 164.173C147.866 164.301 148.557 163.846 149.338 165.088C149.408 165.211 149.502 165.32 149.613 165.408C149.728 165.474 149.858 165.511 149.991 165.517C150.938 165.645 151.584 165.082 152.455 165.011C153.671 164.915 153.895 165.549 154.931 166.099C156.557 166.963 157.389 166.522 157.76 165.402C157.856 165.082 157.92 164.754 157.952 164.422C158.176 162.381 160.115 162.803 161.792 162.605C161.85 162.604 161.907 162.587 161.956 162.557C162.006 162.526 162.046 162.483 162.074 162.432H162.183C163.123 162.554 163.776 161.99 164.647 161.926C165.856 161.83 166.08 162.464 167.117 163.008C168.749 163.878 169.581 163.43 169.946 162.31C170.047 161.992 170.114 161.664 170.144 161.331C170.317 159.744 171.527 159.648 172.845 159.59C172.851 159.901 172.936 160.204 173.092 160.473C173.247 160.742 173.469 160.966 173.735 161.126C173.959 161.248 174.234 161.35 174.311 161.594C174.337 161.775 174.308 161.96 174.227 162.125C174.12 162.453 174.072 162.797 174.087 163.142C174.081 163.263 174.12 163.381 174.195 163.475C174.282 163.54 174.388 163.574 174.496 163.571C175.872 163.699 176.563 163.245 177.344 164.486C177.413 164.611 177.506 164.72 177.619 164.806C177.735 164.871 177.864 164.911 177.997 164.922C178.944 165.043 179.591 164.48 180.461 164.416C181.677 164.32 181.901 164.954 182.931 165.504C184.563 166.368 185.395 165.92 185.767 164.8C185.863 164.481 185.927 164.153 185.959 163.821C186.183 161.786 188.122 162.202 189.799 162.003C191.079 161.85 187.834 158.406 190.503 157.472C191.01 157.352 191.461 157.063 191.783 156.653C191.897 156.364 191.918 156.047 191.842 155.746C191.766 155.445 191.598 155.176 191.36 154.976Z" fill="#EBEBEB"/>
<path d="M141.587 173.056C141.133 172.747 140.595 172.585 140.045 172.589C139.725 172.16 140.045 171.559 140.378 171.162C140.711 170.765 141.139 170.304 141.018 169.779C140.871 168.992 139.783 168.915 138.995 169.031C138.8 168.513 138.681 167.97 138.643 167.418C138.528 166.874 138.131 166.298 137.581 166.336C137.031 166.375 136.717 166.976 136.211 167.034C135.706 167.091 135.13 166.605 134.688 166.189C134.247 165.773 133.453 165.498 133.107 165.991C132.903 166.291 132.999 166.727 132.787 167.021C132.416 167.527 131.623 167.162 131.136 166.765C130.65 166.368 129.856 165.991 129.485 166.49C129.387 166.656 129.312 166.835 129.261 167.021C128.992 167.699 128.231 168.007 127.629 168.416C127.027 168.826 126.528 169.696 126.989 170.247C127.219 170.528 127.629 170.656 127.744 170.995C127.859 171.335 127.424 171.789 127.066 172.058C126.477 172.519 126.298 173.978 127.034 174.394C127.341 174.573 127.802 174.65 127.866 175.002C127.93 175.354 127.591 175.546 127.367 175.776C127.226 175.94 127.123 176.133 127.064 176.341C127.006 176.549 126.993 176.767 127.026 176.98C127.059 177.194 127.139 177.397 127.258 177.577C127.378 177.757 127.535 177.909 127.719 178.023C127.891 178.119 128.115 178.202 128.173 178.394C128.193 178.536 128.17 178.68 128.109 178.81C128.02 179.069 127.981 179.342 127.994 179.616C127.99 179.71 128.022 179.801 128.083 179.872C128.149 179.924 128.23 179.951 128.314 179.949C129.402 180.051 129.946 179.693 130.56 180.672C130.613 180.771 130.687 180.856 130.778 180.922C130.867 180.975 130.968 181.006 131.072 181.011C131.815 181.107 132.352 180.666 132.992 180.615C133.946 180.538 134.119 181.037 134.912 181.472C136.192 182.151 136.832 181.805 137.139 180.922C137.214 180.669 137.266 180.41 137.293 180.147C137.466 178.541 138.995 178.867 140.314 178.72C141.344 178.599 138.759 175.885 140.864 175.149C141.27 175.063 141.633 174.836 141.888 174.509C142.015 174.27 142.054 173.994 141.999 173.728C141.944 173.463 141.799 173.226 141.587 173.056Z" fill="#EBEBEB"/>
<path d="M154.822 244.557H162.976C163.443 236.365 165.075 199.917 163.424 183.757C163.533 183.251 163.648 182.669 163.763 181.991C164.883 175.648 171.309 166.291 172.576 164.8C173.843 163.309 177.536 158.592 177.536 158.592L176.896 157.485L170.995 163.411L173.44 156.717L177.869 151.559L177.184 150.919L173.043 155.021L172.672 148.192L171.11 148.115C171.11 148.115 172.8 155.981 171.302 158.874C171.302 158.874 165.088 171.322 161.978 173.869C161.803 174.021 161.646 174.193 161.51 174.381C160.733 172.046 159.68 169.811 158.374 167.725C159.693 164.775 162.534 158.272 163.565 154.797C164.374 152.085 165.015 149.326 165.485 146.535L164.346 145.837C164.346 145.837 161.114 159.309 156.256 165.037C154.961 163.729 153.474 162.626 151.846 161.767C151.565 159.911 151.565 156.711 153.024 151.783L152.16 150.906C150.837 154.008 150.081 157.322 149.926 160.691C149.258 160.309 148.616 159.882 148.006 159.411C143.75 156.103 140.928 150.355 140.928 150.355L139.258 150.272C139.258 150.272 143.341 159.623 148.448 162.637C153.555 165.651 156.614 172.544 156.8 174.317C156.851 174.823 156.71 180.141 156.48 187.488C150.925 183.731 137.28 174.496 136.557 173.856L136.474 175.559L156.314 191.783C155.821 208.083 155.014 238.541 154.822 244.557Z" fill="#F5F5F5"/>
<path d="M83.0146 62.6561C83.0146 62.0128 82.759 61.3959 82.3041 60.941C81.8492 60.4861 81.2323 60.2305 80.589 60.2305C80.3525 60.2282 80.1172 60.2627 79.8914 60.3329C79.9247 60.0847 79.9418 59.8346 79.9426 59.5841C79.9469 58.8269 79.7832 58.078 79.4632 57.3917C79.1433 56.7053 78.675 56.0984 78.0923 55.6148C77.5095 55.1312 76.8267 54.7829 76.0931 54.595C75.3594 54.4071 74.5933 54.3842 73.8498 54.5281C73.3469 53.6911 72.5842 53.0413 71.678 52.6777C70.7717 52.3141 69.7715 52.2565 68.8295 52.5137C67.8875 52.771 67.0553 53.3289 66.4596 54.1027C65.864 54.8765 65.5375 55.8237 65.5298 56.8001H65.453C64.3497 56.8001 63.2916 57.2384 62.5114 58.0186C61.7313 58.7987 61.293 59.8568 61.293 60.9601C61.293 62.0634 61.7313 63.1216 62.5114 63.9017C63.2916 64.6819 64.3497 65.1201 65.453 65.1201H80.6402C81.2813 65.1067 81.891 64.8399 82.3359 64.3782C82.7809 63.9164 83.0249 63.2973 83.0146 62.6561Z" fill="#FAFAFA"/>
<path d="M220.045 73.8051H232.32C232.287 73.5098 232.27 73.2128 232.269 72.9155C232.268 71.8543 232.476 70.8034 232.882 69.8227C233.287 68.8421 233.882 67.9509 234.632 67.2002C235.382 66.4496 236.273 65.8541 237.253 65.4478C238.234 65.0415 239.284 64.8323 240.346 64.8323C240.448 64.8323 240.544 64.8323 240.64 64.8323C241.224 63.2625 242.341 61.9478 243.796 61.118C245.25 60.2881 246.951 59.996 248.599 60.2926C250.248 60.5892 251.739 61.4556 252.814 62.7405C253.888 64.0254 254.477 65.6471 254.477 67.3219C256.165 67.399 257.765 68.1015 258.965 69.2927C260.164 70.4839 260.878 72.0786 260.966 73.7667H261.286C262.213 73.8059 263.089 74.2016 263.731 74.8712C264.373 75.5409 264.731 76.4327 264.731 77.3603C264.731 78.288 264.373 79.1798 263.731 79.8495C263.089 80.5191 262.213 80.9148 261.286 80.9539H220.045C219.118 80.9148 218.242 80.5191 217.6 79.8495C216.958 79.1798 216.6 78.288 216.6 77.3603C216.6 76.4327 216.958 75.5409 217.6 74.8712C218.242 74.2016 219.118 73.8059 220.045 73.7667V73.8051Z" fill="#FAFAFA"/>
<path d="M150.189 79.9488C151.541 77.7794 153.428 75.9937 155.668 74.7627C157.908 73.5317 160.427 72.8967 162.983 72.9185C165.539 72.9404 168.047 73.6183 170.266 74.8874C172.484 76.1565 174.34 77.9743 175.655 80.1664C176.358 79.9633 177.086 79.8599 177.818 79.8592C179.943 79.8609 181.98 80.7056 183.482 82.2079C184.984 83.7103 185.829 85.7474 185.831 87.872H190.08C191.141 87.872 192.159 88.2934 192.909 89.0436C193.659 89.7937 194.08 90.8111 194.08 91.872C194.08 92.9328 193.659 93.9503 192.909 94.7004C192.159 95.4506 191.141 95.872 190.08 95.872H175.476C174.269 97.7754 172.648 99.3813 170.733 100.569C168.817 101.758 166.659 102.497 164.417 102.733C162.176 102.969 159.91 102.695 157.79 101.931C155.67 101.167 153.749 99.9339 152.173 98.3232C151.924 98.3232 151.668 98.3616 151.412 98.3616C149.066 98.3576 146.809 97.4631 145.098 95.8588C143.387 94.2546 142.348 92.0603 142.193 89.7198C142.038 87.3793 142.777 85.0671 144.262 83.2509C145.746 81.4346 147.865 80.2498 150.189 79.936V79.9488Z" fill="#FAFAFA"/>
<path d="M61.9771 138.637L64.3835 145.575L75.8331 149.069L68.7931 244.557H94.0795C93.4395 237.677 90.6043 179.559 90.0283 170.035L101.651 147.949H99.334L98.8475 148.717C97.0539 151.571 94.8647 154.157 92.3451 156.397C91.4167 157.249 90.3922 157.99 89.2924 158.605C88.2044 155.527 86.2716 114.778 86.2716 114.778C86.2716 114.778 83.8395 120.615 76.3835 117.12L75.6987 143.143L68.262 141.619L61.0108 127.309H58.1052L60.7164 133.485L54.6235 132.167L49.4012 125.44L47.5771 125.882L52.3068 133.139L61.9771 138.637Z" fill="#F5F5F5"/>
<path d="M118.726 101.069C120.575 101.789 122.159 103.06 123.262 104.71C124.365 106.359 124.936 108.307 124.896 110.291C124.789 112.272 124.128 114.183 122.989 115.806C121.849 117.43 120.277 118.701 118.451 119.475C116.605 120.201 114.605 120.447 112.638 120.188C110.671 119.929 108.802 119.175 107.206 117.997C107.046 121.792 104.448 125.92 100.806 127.072C98.9749 127.619 97.0219 127.606 95.1976 127.036C93.3733 126.466 91.7607 125.364 90.5664 123.872C80.8128 129.997 46.6432 132.275 40.6464 106.163C39.4048 100.775 42.4064 95.0593 46.8096 91.7121C51.2128 88.3649 56.8064 86.9889 62.304 86.3169C67.5136 77.9969 79.0656 73.4849 88.7744 74.7969C93.6415 75.5147 98.2101 77.5819 101.962 80.7639C105.714 83.9459 108.5 88.1156 110.003 92.8001C119.904 92.8385 118.874 101.76 118.726 101.069Z" fill="#EBEBEB"/>
<path d="M106.675 152.429C106.119 153.251 105.34 153.898 104.429 154.294C103.519 154.69 102.515 154.819 101.534 154.665C100.554 154.511 99.6369 154.081 98.8914 153.426C98.1459 152.771 97.6024 151.916 97.3244 150.963C95.014 152.589 91.4428 152.186 89.1004 150.605C87.9215 149.804 87.0135 148.664 86.4967 147.335C85.9798 146.007 85.8784 144.553 86.2058 143.166C86.5332 141.778 87.274 140.523 88.3303 139.566C89.3865 138.609 90.7084 137.995 92.1212 137.805C92.2347 136.506 92.6495 135.251 93.3328 134.14C94.016 133.029 94.9488 132.093 96.0572 131.405C97.2139 130.695 98.5147 130.252 99.8645 130.109C101.214 129.966 102.579 130.127 103.859 130.579C105.357 130.33 106.894 130.442 108.341 130.905C109.787 131.368 111.103 132.169 112.179 133.242C112.985 133.983 113.62 134.89 114.04 135.902C114.46 136.913 114.655 138.004 114.611 139.098C114.425 141.274 112.838 143.36 110.694 143.776C111.078 144.564 111.295 145.422 111.334 146.297C111.372 147.172 111.231 148.046 110.918 148.864C110.208 150.535 108.339 151.815 106.675 152.429Z" fill="#EBEBEB"/>
<path d="M57.4851 112.96C58.4232 112.636 59.4344 112.585 60.4002 112.815C61.366 113.044 62.2464 113.544 62.9382 114.256C63.6301 114.968 64.1046 115.862 64.3063 116.834C64.508 117.806 64.4285 118.816 64.0771 119.744C66.8995 119.834 69.5171 122.304 70.4387 124.973C70.8911 126.319 70.926 127.77 70.5386 129.137C70.1512 130.503 69.3598 131.72 68.2681 132.628C67.1765 133.536 65.8357 134.093 64.4218 134.226C63.008 134.358 61.5871 134.06 60.3459 133.37C59.4765 134.338 58.3933 135.091 57.1824 135.567C55.9714 136.044 54.666 136.232 53.3699 136.115C52.0189 135.987 50.7136 135.559 49.5489 134.863C48.3842 134.167 47.3894 133.219 46.6371 132.09C45.2935 131.388 44.136 130.376 43.2603 129.139C42.3845 127.902 41.8155 126.474 41.6003 124.973C41.4003 123.897 41.4375 122.79 41.7095 121.73C41.9814 120.67 42.4814 119.682 43.1747 118.835C44.6275 117.203 47.1491 116.487 49.1139 117.447C49.2796 116.586 49.6201 115.769 50.1144 115.046C50.6087 114.323 51.2462 113.709 51.9875 113.242C53.5171 112.352 55.7827 112.455 57.4851 112.96Z" fill="#EBEBEB"/>
<path d="M45.453 203.604L274.842 203.604V195.828L45.453 195.828V203.604Z" fill="#E0E0E0"/>
<path d="M269.44 244.557H280.244V176.359L274.842 172.519L269.44 176.359V244.557Z" fill="#E6E6E6"/>
<path d="M250.323 244.557H261.126V176.359L255.725 172.519L250.323 176.359V244.557Z" fill="#E6E6E6"/>
<path d="M231.206 244.557H242.009V176.359L236.608 172.519L231.206 176.359V244.557Z" fill="#E6E6E6"/>
<path d="M212.096 244.557H222.892V176.359L217.497 172.519L212.096 176.359V244.557Z" fill="#E6E6E6"/>
<path d="M192.979 244.557H203.783V176.359L198.381 172.519L192.979 176.359V244.557Z" fill="#E6E6E6"/>
<path d="M173.862 244.557H184.666V176.359L179.264 172.519L173.862 176.359V244.557Z" fill="#E6E6E6"/>
<path d="M154.745 244.557H165.548V176.359L160.147 172.519L154.745 176.359V244.557Z" fill="#E6E6E6"/>
<path d="M135.629 244.557H146.432V176.359L141.031 172.519L135.629 176.359V244.557Z" fill="#E6E6E6"/>
<path d="M116.519 244.557H127.322V176.359L121.92 172.519L116.519 176.359V244.557Z" fill="#E6E6E6"/>
<path d="M97.4014 244.557H108.205V176.359L102.803 172.519L97.4014 176.359V244.557Z" fill="#E6E6E6"/>
<path d="M78.2852 244.557H89.0884V176.359L83.6868 172.519L78.2852 176.359V244.557Z" fill="#E6E6E6"/>
<path d="M59.168 244.557H69.9712V176.359L64.5696 172.519L59.168 176.359V244.557Z" fill="#E6E6E6"/>
<path d="M40.0508 244.557H50.854V176.359L45.4524 172.519L40.0508 176.359V244.557Z" fill="#E6E6E6"/>
<path d="M160 273.638C228.533 273.638 284.089 270.394 284.089 266.393C284.089 262.392 228.533 259.148 160 259.148C91.467 259.148 35.9102 262.392 35.9102 266.393C35.9102 270.394 91.467 273.638 160 273.638Z" fill="#F5F5F5"/>
<path d="M230.636 134.131H242.61L250.431 136.422C250.431 136.422 250.598 170.444 256.799 194.777H216.447C222.649 170.457 222.815 136.422 222.815 136.422L230.636 134.131Z" fill="#689F3A"/>
<path opacity="0.7" d="M216.447 194.784H256.799C256.466 193.504 256.155 192.181 255.865 190.816C255.865 190.726 255.82 190.63 255.801 190.534C255.519 189.254 255.257 187.974 255.007 186.694C255.007 186.598 254.969 186.502 254.956 186.413C254.713 185.133 254.482 183.853 254.265 182.573C254.265 182.477 254.233 182.387 254.214 182.297C254.002 181.017 253.804 179.737 253.612 178.457C253.612 178.368 253.612 178.272 253.567 178.176C253.384 176.896 253.209 175.616 253.042 174.336C253.042 174.24 253.01 174.144 253.004 174.054C252.838 172.774 252.678 171.494 252.537 170.214C252.537 170.125 252.537 170.029 252.537 169.939C252.396 168.659 252.255 167.379 252.134 166.099C252.134 166.003 252.134 165.913 252.102 165.824C251.974 164.518 251.856 163.238 251.75 161.984L251.718 161.702C251.611 160.388 251.509 159.108 251.41 157.862C251.41 157.773 251.41 157.677 251.41 157.587C251.314 156.256 251.225 154.976 251.148 153.747C251.148 153.657 251.148 153.561 251.148 153.472C251.071 152.128 250.994 150.841 250.93 149.632V149.35C250.858 147.976 250.798 146.696 250.751 145.51C250.751 145.414 250.751 145.325 250.751 145.229C250.713 144.324 250.681 143.486 250.655 142.713C250.655 142.24 250.655 141.798 250.61 141.376C250.61 141.28 250.61 141.184 250.61 141.094C250.559 139.289 250.54 137.958 250.534 137.254C250.534 137.145 250.534 137.056 250.534 136.973V136.633L242.713 134.342H230.636L222.815 136.633C222.815 136.633 222.815 136.749 222.815 136.973V137.254C222.815 137.632 222.815 138.169 222.815 138.854C222.815 139.539 222.783 140.243 222.764 141.113C222.764 141.203 222.764 141.299 222.764 141.395C222.764 142.515 222.694 143.808 222.636 145.235C222.636 145.325 222.636 145.421 222.636 145.517C222.585 146.707 222.534 147.993 222.457 149.357V149.638C222.399 150.861 222.322 152.153 222.239 153.478V153.753C222.162 154.995 222.075 156.275 221.977 157.593V157.869C221.881 159.149 221.778 160.429 221.67 161.709C221.67 161.805 221.67 161.894 221.67 161.99C221.563 163.27 221.446 164.55 221.318 165.83C221.318 165.92 221.318 166.009 221.286 166.105C221.158 167.385 221.021 168.665 220.876 169.945C220.876 170.035 220.876 170.131 220.844 170.221C220.703 171.501 220.543 172.781 220.377 174.061C220.377 174.15 220.377 174.246 220.345 174.342C220.172 175.622 219.999 176.902 219.807 178.182C219.807 178.278 219.807 178.374 219.762 178.464C219.583 179.744 219.378 181.024 219.161 182.304C219.161 182.393 219.161 182.483 219.116 182.579C218.898 183.859 218.674 185.139 218.425 186.419C218.425 186.509 218.393 186.605 218.374 186.701C218.126 187.981 217.864 189.261 217.586 190.541C217.586 190.63 217.542 190.726 217.522 190.822C217.087 192.16 216.78 193.485 216.447 194.784Z" fill="white"/>
<path opacity="0.1" d="M232.96 133.888H237.35L240.16 136.185C240.16 136.185 239.309 170.348 240.928 194.777H226.118C229.049 170.348 230.022 136.185 230.022 136.185L232.96 133.888Z" fill="white"/>
<path opacity="0.2" d="M222.784 138.643C227.904 139.334 242.624 141.401 250.567 142.521C250.439 138.681 250.426 136.422 250.426 136.422L242.611 134.131H230.637L222.816 136.422C222.816 136.422 222.81 137.216 222.784 138.643Z" fill="black"/>
<path opacity="0.1" d="M217.389 190.816H255.865C255.865 190.726 255.821 190.63 255.801 190.534H217.453C217.433 190.624 217.408 190.72 217.389 190.816Z" fill="black"/>
<path opacity="0.1" d="M218.239 186.681H255.007C255.007 186.585 254.969 186.489 254.956 186.399H218.29C218.278 186.489 218.239 186.585 218.239 186.681Z" fill="black"/>
<path opacity="0.1" d="M218.982 182.541H254.266C254.266 182.445 254.234 182.355 254.214 182.266H219.014C219.014 182.355 219.002 182.445 218.982 182.541Z" fill="black"/>
<path opacity="0.1" d="M219.629 178.407H253.613C253.613 178.317 253.613 178.221 253.568 178.125H219.648C219.661 178.221 219.648 178.317 219.629 178.407Z" fill="black"/>
<path opacity="0.1" d="M220.211 174.272H253.043C253.043 174.176 253.011 174.08 253.005 173.99H220.243C220.23 174.08 220.224 174.176 220.211 174.272Z" fill="black"/>
<path opacity="0.1" d="M220.71 170.131H252.537C252.537 170.042 252.537 169.946 252.537 169.856H220.742C220.736 169.946 220.723 170.042 220.71 170.131Z" fill="black"/>
<path opacity="0.1" d="M221.151 165.997H252.102C252.102 165.901 252.102 165.811 252.07 165.722H221.183C221.171 165.811 221.164 165.901 221.151 165.997Z" fill="black"/>
<path opacity="0.1" d="M221.536 161.862H251.719L251.687 161.581H221.562C221.549 161.677 221.543 161.766 221.536 161.862Z" fill="black"/>
<path opacity="0.1" d="M221.868 157.721H251.379C251.379 157.632 251.379 157.536 251.379 157.446H221.887L221.868 157.721Z" fill="black"/>
<path opacity="0.1" d="M222.15 153.6H251.098C251.098 153.51 251.098 153.414 251.098 153.325H222.17L222.15 153.6Z" fill="black"/>
<path opacity="0.1" d="M222.387 149.452H250.86L250.848 149.171H222.4L222.387 149.452Z" fill="black"/>
<path opacity="0.1" d="M222.579 145.318H250.669C250.669 145.222 250.669 145.133 250.669 145.037H222.592C222.585 145.126 222.586 145.222 222.579 145.318Z" fill="black"/>
<path opacity="0.1" d="M222.72 141.184H250.521C250.521 141.088 250.521 140.992 250.521 140.902H222.72C222.72 140.992 222.72 141.088 222.72 141.184Z" fill="black"/>
<path opacity="0.1" d="M222.81 136.761V137.043H250.438C250.438 136.934 250.438 136.844 250.438 136.761H222.81Z" fill="black"/>
<path d="M219.655 138.419H253.594V136.422H219.655V138.419Z" fill="#689F3A"/>
<path d="M236.621 119.456L253.593 136.422H219.654L236.621 119.456Z" fill="#263238"/>
<path opacity="0.5" d="M236.621 119.456L253.593 136.422H219.654L236.621 119.456Z" fill="white"/>
<path opacity="0.1" d="M236.62 119.456L239.974 136.422H228.019L236.62 119.456Z" fill="white"/>
<path opacity="0.5" d="M219.655 138.419H253.594V136.422H219.655V138.419Z" fill="white"/>
<path opacity="0.2" d="M227.123 138.419H239.91V136.422H227.123V138.419Z" fill="white"/>
<path opacity="0.3" d="M231.737 133.261H237.152L236.672 129.03H231.737V133.261Z" fill="black"/>
<path d="M217.042 130.911L224.419 123.535L193.741 92.8564L186.364 100.233L217.042 130.911Z" fill="#689F3A"/>
<path opacity="0.7" d="M217.042 130.911L224.419 123.535L193.741 92.8564L186.364 100.233L217.042 130.911Z" fill="white"/>
<path d="M217.331 132.038L224.243 125.126L228.953 129.837L230.368 128.416L193.888 91.936L192.467 93.3568L189.907 95.9168L189.203 96.6272L186.24 99.5392L185.529 100.25L217.331 132.038ZM189.881 97.3248L195.392 102.829L192.467 105.754L186.956 100.25L189.881 97.3248ZM211.116 124.403L205.606 118.899L208.531 115.974L214.041 121.478L211.116 124.403ZM214.745 122.189L220.256 127.699L217.331 130.624L211.84 125.114L214.745 122.189ZM205.593 106.477L211.104 111.987L208.544 114.547L203.04 109.043L205.593 106.477ZM202.316 108.339L196.806 102.829L199.366 100.269L204.876 105.773L202.316 108.339ZM211.814 112.691L217.318 118.202L214.758 120.762L209.254 115.251L211.814 112.691ZM204.896 118.189L199.392 112.685L202.316 109.76L207.82 115.264L204.896 118.189ZM198.681 112L193.177 106.49L196.102 103.565L201.606 109.075L198.681 112ZM193.164 94.08L198.668 99.584L196.108 102.144L190.592 96.64L193.164 94.08ZM223.532 124.448L220.972 127.008L215.462 121.498L218.022 118.938L223.532 124.448Z" fill="#689F3A"/>
<path opacity="0.4" d="M217.331 132.038L224.243 125.126L228.953 129.837L230.368 128.416L193.888 91.936L192.467 93.3568L189.907 95.9168L189.203 96.6272L186.24 99.5392L185.529 100.25L217.331 132.038ZM189.881 97.3248L195.392 102.829L192.467 105.754L186.956 100.25L189.881 97.3248ZM211.116 124.403L205.606 118.899L208.531 115.974L214.041 121.478L211.116 124.403ZM214.745 122.189L220.256 127.699L217.331 130.624L211.84 125.114L214.745 122.189ZM205.593 106.477L211.104 111.987L208.544 114.547L203.04 109.043L205.593 106.477ZM202.316 108.339L196.806 102.829L199.366 100.269L204.876 105.773L202.316 108.339ZM211.814 112.691L217.318 118.202L214.758 120.762L209.254 115.251L211.814 112.691ZM204.896 118.189L199.392 112.685L202.316 109.76L207.82 115.264L204.896 118.189ZM198.681 112L193.177 106.49L196.102 103.565L201.606 109.075L198.681 112ZM193.164 94.08L198.668 99.584L196.108 102.144L190.592 96.64L193.164 94.08ZM223.532 124.448L220.972 127.008L215.462 121.498L218.022 118.938L223.532 124.448Z" fill="white"/>
<path d="M245.945 131.384L238.568 138.76L269.247 169.439L276.623 162.062L245.945 131.384Z" fill="#689F3A"/>
<path opacity="0.7" d="M245.945 131.384L238.568 138.76L269.247 169.439L276.623 162.062L245.945 131.384Z" fill="white"/>
<path d="M245.657 130.252L238.719 137.164L234.035 132.48L232.62 133.894L269.1 170.374L270.515 168.953L273.075 166.393L273.779 165.683L276.703 162.758L277.414 162.048L245.657 130.252ZM273.107 164.966L267.596 159.462L270.521 156.537L276.031 162.041L273.107 164.966ZM251.871 137.888L257.382 143.392L254.457 146.316L248.959 140.8L251.871 137.888ZM248.243 140.102L242.732 134.598L245.657 131.673L251.167 137.177L248.243 140.102ZM257.395 155.814L251.884 150.31L254.444 147.75L259.948 153.254L257.395 155.814ZM260.671 153.952L266.182 159.462L263.622 162.022L258.111 156.518L260.671 153.952ZM251.174 149.6L245.67 144.089L248.23 141.529L253.734 147.033L251.174 149.6ZM258.092 144.102L263.596 149.612L260.671 152.537L255.167 147.027L258.092 144.102ZM264.307 150.316L269.811 155.827L266.879 158.752L261.375 153.241L264.307 150.316ZM269.823 168.236L264.319 162.726L266.879 160.166L272.39 165.676L269.823 168.236ZM239.455 137.862L242.015 135.302L247.526 140.812L244.966 143.372L239.455 137.862Z" fill="#689F3A"/>
<path opacity="0.4" d="M245.657 130.252L238.719 137.164L234.035 132.48L232.62 133.894L269.1 170.374L270.515 168.953L273.075 166.393L273.779 165.683L276.703 162.758L277.414 162.048L245.657 130.252ZM273.107 164.966L267.596 159.462L270.521 156.537L276.031 162.041L273.107 164.966ZM251.871 137.888L257.382 143.392L254.457 146.316L248.959 140.8L251.871 137.888ZM248.243 140.102L242.732 134.598L245.657 131.673L251.167 137.177L248.243 140.102ZM257.395 155.814L251.884 150.31L254.444 147.75L259.948 153.254L257.395 155.814ZM260.671 153.952L266.182 159.462L263.622 162.022L258.111 156.518L260.671 153.952ZM251.174 149.6L245.67 144.089L248.23 141.529L253.734 147.033L251.174 149.6ZM258.092 144.102L263.596 149.612L260.671 152.537L255.167 147.027L258.092 144.102ZM264.307 150.316L269.811 155.827L266.879 158.752L261.375 153.241L264.307 150.316ZM269.823 168.236L264.319 162.726L266.879 160.166L272.39 165.676L269.823 168.236ZM239.455 137.862L242.015 135.302L247.526 140.812L244.966 143.372L239.455 137.862Z" fill="white"/>
<path d="M231.258 145.595L223.882 138.218L193.204 168.897L200.58 176.273L231.258 145.595Z" fill="#689F3A"/>
<path opacity="0.7" d="M231.258 145.595L223.882 138.218L193.204 168.897L200.58 176.273L231.258 145.595Z" fill="white"/>
<path d="M232.39 145.312L225.472 138.393L230.182 133.689L228.761 132.269L192.281 168.749L193.696 170.169L196.256 172.729L196.966 173.44L199.891 176.365L200.595 177.075L232.39 145.312ZM197.67 172.755L203.18 167.251L206.08 170.176L200.569 175.68L197.67 172.755ZM224.755 151.526L219.244 157.03L216.32 154.105L221.83 148.601L224.755 151.526ZM222.54 147.891L228.044 142.387L230.969 145.312L225.465 150.816L222.54 147.891ZM206.828 157.043L212.332 151.539L214.892 154.099L209.382 159.609L206.828 157.043ZM208.684 160.326L203.18 165.83L200.62 163.27L206.131 157.76L208.684 160.326ZM213.043 150.829L218.547 145.318L221.107 147.878L215.596 153.389L213.043 150.829ZM218.534 157.741L213.03 163.251L210.105 160.326L215.609 154.816L218.534 157.741ZM212.32 163.955L206.816 169.465L203.891 166.541L209.395 161.03L212.32 163.955ZM194.4 169.478L199.904 163.968L202.464 166.528L196.96 172.032L194.4 169.478ZM224.774 139.104L227.334 141.664L221.83 147.168L219.27 144.608L224.774 139.104Z" fill="#689F3A"/>
<path opacity="0.4" d="M232.39 145.312L225.472 138.393L230.182 133.689L228.761 132.269L192.281 168.749L193.696 170.169L196.256 172.729L196.966 173.44L199.891 176.365L200.595 177.075L232.39 145.312ZM197.67 172.755L203.18 167.251L206.08 170.176L200.569 175.68L197.67 172.755ZM224.755 151.526L219.244 157.03L216.32 154.105L221.83 148.601L224.755 151.526ZM222.54 147.891L228.044 142.387L230.969 145.312L225.465 150.816L222.54 147.891ZM206.828 157.043L212.332 151.539L214.892 154.099L209.382 159.609L206.828 157.043ZM208.684 160.326L203.18 165.83L200.62 163.27L206.131 157.76L208.684 160.326ZM213.043 150.829L218.547 145.318L221.107 147.878L215.596 153.389L213.043 150.829ZM218.534 157.741L213.03 163.251L210.105 160.326L215.609 154.816L218.534 157.741ZM212.32 163.955L206.816 169.465L203.891 166.541L209.395 161.03L212.32 163.955ZM194.4 169.478L199.904 163.968L202.464 166.528L196.96 172.032L194.4 169.478ZM224.774 139.104L227.334 141.664L221.83 147.168L219.27 144.608L224.774 139.104Z" fill="white"/>
<path d="M231.73 116.699L239.106 124.075L269.785 93.3969L262.408 86.0204L231.73 116.699Z" fill="#689F3A"/>
<path opacity="0.7" d="M231.73 116.699L239.106 124.075L269.785 93.3969L262.408 86.0204L231.73 116.699Z" fill="white"/>
<path d="M230.598 116.979L237.516 123.891L232.806 128.595L234.226 130.016L270.706 93.5359L269.292 92.1151L266.732 89.5551L266.022 88.8447L263.097 85.9199L262.393 85.2095L230.598 116.979ZM265.318 89.5359L259.839 95.0399L256.914 92.1151L262.425 86.6111L265.318 89.5359ZM238.233 110.765L243.743 105.261L246.668 108.185L241.158 113.689L238.233 110.765ZM240.447 114.4L234.943 119.91L232.018 116.985L237.522 111.475L240.447 114.4ZM256.159 105.248L250.655 110.752L248.095 108.192L253.606 102.681L256.159 105.248ZM254.303 101.965L259.807 96.4607L262.367 99.0207L256.857 104.525L254.303 101.965ZM249.945 111.462L244.441 116.973L241.881 114.413L247.391 108.909L249.945 111.462ZM244.479 104.55L249.983 99.0399L252.908 101.965L247.404 107.475L244.479 104.55ZM250.694 98.3359L256.198 92.8255L259.122 95.7503L253.618 101.261L250.694 98.3359ZM268.614 92.8127L263.11 98.3231L260.55 95.7631L266.054 90.2591L268.614 92.8127ZM238.239 123.187L235.679 120.627L241.183 115.123L243.743 117.683L238.239 123.187Z" fill="#689F3A"/>
<path opacity="0.4" d="M230.598 116.979L237.516 123.891L232.806 128.595L234.226 130.016L270.706 93.5359L269.292 92.1151L266.732 89.5551L266.022 88.8447L263.097 85.9199L262.393 85.2095L230.598 116.979ZM265.318 89.5359L259.839 95.0399L256.914 92.1151L262.425 86.6111L265.318 89.5359ZM238.233 110.765L243.743 105.261L246.668 108.185L241.158 113.689L238.233 110.765ZM240.447 114.4L234.943 119.91L232.018 116.985L237.522 111.475L240.447 114.4ZM256.159 105.248L250.655 110.752L248.095 108.192L253.606 102.681L256.159 105.248ZM254.303 101.965L259.807 96.4607L262.367 99.0207L256.857 104.525L254.303 101.965ZM249.945 111.462L244.441 116.973L241.881 114.413L247.391 108.909L249.945 111.462ZM244.479 104.55L249.983 99.0399L252.908 101.965L247.404 107.475L244.479 104.55ZM250.694 98.3359L256.198 92.8255L259.122 95.7503L253.618 101.261L250.694 98.3359ZM268.614 92.8127L263.11 98.3231L260.55 95.7631L266.054 90.2591L268.614 92.8127ZM238.239 123.187L235.679 120.627L241.183 115.123L243.743 117.683L238.239 123.187Z" fill="white"/>
<path d="M230.874 135.296C233.164 135.296 235.021 133.439 235.021 131.149C235.021 128.858 233.164 127.001 230.874 127.001C228.583 127.001 226.727 128.858 226.727 131.149C226.727 133.439 228.583 135.296 230.874 135.296Z" fill="#689F3A"/>
<path opacity="0.7" d="M230.874 135.296C233.164 135.296 235.021 133.439 235.021 131.149C235.021 128.858 233.164 127.001 230.874 127.001C228.583 127.001 226.727 128.858 226.727 131.149C226.727 133.439 228.583 135.296 230.874 135.296Z" fill="white"/>
<path opacity="0.2" d="M226.727 131.149C226.728 131.968 226.972 132.769 227.428 133.45C227.884 134.131 228.532 134.662 229.29 134.975C230.047 135.288 230.881 135.37 231.684 135.21C232.488 135.049 233.227 134.654 233.806 134.075C234.386 133.495 234.781 132.757 234.941 131.953C235.101 131.149 235.02 130.316 234.706 129.558C234.393 128.801 233.863 128.153 233.182 127.697C232.501 127.241 231.7 126.996 230.88 126.995C230.334 126.994 229.794 127.101 229.29 127.31C228.785 127.518 228.327 127.824 227.941 128.21C227.555 128.596 227.249 129.054 227.041 129.558C226.833 130.063 226.726 130.603 226.727 131.149ZM226.842 131.149C226.842 130.516 227.029 129.897 227.381 129.371C227.733 128.845 228.232 128.435 228.817 128.192C229.402 127.95 230.045 127.887 230.666 128.01C231.287 128.134 231.857 128.438 232.304 128.886C232.752 129.334 233.057 129.904 233.18 130.524C233.304 131.145 233.24 131.789 232.998 132.373C232.756 132.958 232.346 133.458 231.82 133.809C231.293 134.161 230.675 134.349 230.042 134.349C229.193 134.349 228.379 134.012 227.779 133.411C227.179 132.811 226.842 131.997 226.842 131.149Z" fill="black"/>
<path d="M237.625 158.592V150.477H231.257V158.592H237.625Z" fill="white"/>
<path opacity="0.3" d="M232.205 157.638H236.672V151.424H232.205V157.638Z" fill="black"/>
<path d="M216.441 248.768H256.8V194.784H216.441V248.768Z" fill="#689F3A"/>
<path opacity="0.7" d="M256.8 194.784H216.441V248.768H256.8V194.784Z" fill="white"/>
<path opacity="0.2" d="M225.369 248.768H241.772V194.784H225.369V248.768Z" fill="white"/>
<g opacity="0.05">
<path d="M221.011 202.894H216.441V205.076H221.011V202.894Z" fill="black"/>
<path d="M217.907 205.933H216.441V208.115H217.907V205.933Z" fill="black"/>
<path d="M224.109 205.933H218.982V208.115H224.109V205.933Z" fill="black"/>
<path d="M221.011 208.967H216.441V211.143H221.011V208.967Z" fill="black"/>
<path d="M227.212 208.967H222.086V211.149H227.212V208.967Z" fill="black"/>
<path d="M217.907 212H216.441V214.182H217.907V212Z" fill="black"/>
<path d="M224.109 212H218.982V214.182H224.109V212Z" fill="black"/>
<path d="M256.807 202.074H253.235V204.25H256.807V202.074Z" fill="black"/>
<path d="M240.844 204.41H235.718V206.593H240.844V204.41Z" fill="black"/>
<path d="M255.257 205.107H250.131V207.29H255.257V205.107Z" fill="black"/>
<path d="M237.747 207.45H232.621V209.633H237.747V207.45Z" fill="black"/>
<path d="M243.949 207.45H238.822V209.633H243.949V207.45Z" fill="black"/>
<path d="M230.035 197.318H224.908V199.501H230.035V197.318Z" fill="black"/>
<path d="M233.139 194.784H228.013V196.467H233.139V194.784Z" fill="black"/>
<path d="M226.937 194.784H221.811V196.467H226.937V194.784Z" fill="black"/>
<path d="M250.195 197.747H245.068V199.929H250.195V197.747Z" fill="black"/>
<path d="M253.299 194.714H248.173V196.896H253.299V194.714Z" fill="black"/>
<path d="M247.097 194.714H241.971V196.896H247.097V194.714Z" fill="black"/>
<path d="M256.807 208.141H253.235V210.323H256.807V208.141Z" fill="black"/>
<path d="M255.257 211.175H250.131V213.357H255.257V211.175Z" fill="black"/>
<path d="M250.924 219.578H245.798V221.761H250.924V219.578Z" fill="black"/>
<path d="M257.132 219.578H252.006V221.761H257.132V219.578Z" fill="black"/>
<path d="M247.827 222.611H242.7V224.794H247.827V222.611Z" fill="black"/>
<path d="M254.029 222.611H248.902V224.794H254.029V222.611Z" fill="black"/>
<path d="M244.723 225.646H239.597V227.828H244.723V225.646Z" fill="black"/>
<path d="M250.924 225.646H245.798V227.828H250.924V225.646Z" fill="black"/>
<path d="M257.132 225.646H252.006V227.828H257.132V225.646Z" fill="black"/>
<path d="M247.827 228.686H242.7V230.868H247.827V228.686Z" fill="black"/>
<path d="M254.029 228.686H248.902V230.868H254.029V228.686Z" fill="black"/>
<path d="M256.8 228.679H255.104V230.861H256.8V228.679Z" fill="black"/>
<path d="M222.067 219.438H216.94V221.62H222.067V219.438Z" fill="black"/>
<path d="M228.269 219.438H223.143V221.62H228.269V219.438Z" fill="black"/>
<path d="M218.963 222.471H216.441V224.653H218.963V222.471Z" fill="black"/>
<path d="M225.164 222.471H220.038V224.653H225.164V222.471Z" fill="black"/>
<path d="M231.367 222.471H226.24V224.653H231.367V222.471Z" fill="black"/>
<path d="M222.067 225.504H216.94V227.686H222.067V225.504Z" fill="black"/>
<path d="M228.269 225.504H223.143V227.686H228.269V225.504Z" fill="black"/>
<path d="M218.963 228.544H216.441V230.726H218.963V228.544Z" fill="black"/>
<path d="M225.164 228.544H220.038V230.726H225.164V228.544Z" fill="black"/>
<path d="M231.367 228.544H226.24V230.726H231.367V228.544Z" fill="black"/>
</g>
<path d="M252.474 211.226V203.11H246.944V211.226H252.474Z" fill="white"/>
<path opacity="0.3" d="M247.769 210.278H251.647V204.064H247.769V210.278Z" fill="black"/>
<path d="M212.134 187.34V193.74H211.404V195.43H260.742V193.74H260.012V187.34H260.742V186.399H211.404V187.34H212.134ZM243.494 193.74H236.454V187.34H243.494V193.74ZM244.313 187.34H251.353V193.74H244.313V187.34ZM235.654 193.74H228.614V187.34H235.654V193.74ZM227.807 193.74H220.799V187.34H227.839L227.807 193.74ZM259.167 193.74H252.159V187.34H259.199L259.167 193.74ZM212.915 187.34H219.955V193.74H212.915V187.34Z" fill="#263238"/>
<path opacity="0.6" d="M212.134 187.34V193.74H211.404V195.43H260.742V193.74H260.012V187.34H260.742V186.399H211.404V187.34H212.134ZM243.494 193.74H236.454V187.34H243.494V193.74ZM244.313 187.34H251.353V193.74H244.313V187.34ZM235.654 193.74H228.614V187.34H235.654V193.74ZM227.807 193.74H220.799V187.34H227.839L227.807 193.74ZM259.167 193.74H252.159V187.34H259.199L259.167 193.74ZM212.915 187.34H219.955V193.74H212.915V187.34Z" fill="white"/>
<path opacity="0.2" d="M211.404 187.34V186.399H219.967V187.34H212.947V193.727H219.967V195.423H211.404V193.727H212.134V187.34H211.404Z" fill="black"/>
<path opacity="0.2" d="M244.409 195.424H260.742V193.734H260.012V187.334H260.742V186.394H244.409V187.334H251.353V193.734H244.409V195.424ZM252.16 187.341H259.2V193.741H252.16V187.341Z" fill="black"/>
<path d="M222.54 211.226V203.11H218.38V211.226H222.54Z" fill="white"/>
<path opacity="0.3" d="M219.002 210.278H221.92V204.064H219.002V210.278Z" fill="black"/>
<path d="M228.294 248.762H238.822V226.611H228.294V248.762Z" fill="white"/>
<path opacity="0.3" d="M229.414 248.762H237.702V227.744H229.414V248.762Z" fill="black"/>
<path d="M283.104 248.819C283.104 248.819 288.864 243.699 287.162 242.867C285.46 242.035 283.322 246.707 283.104 246.003C282.887 245.299 284.237 238.828 281.024 239.276C277.812 239.724 281.024 246.003 281.024 246.003C281.024 246.003 278.644 243.443 277.824 243.833C277.005 244.223 280.384 248.819 280.384 248.819H283.104Z" fill="#689F3A"/>
<path opacity="0.5" d="M283.104 248.819C283.104 248.819 288.864 243.699 287.162 242.867C285.46 242.035 283.322 246.707 283.104 246.003C282.887 245.299 284.237 238.828 281.024 239.276C277.812 239.724 281.024 246.003 281.024 246.003C281.024 246.003 278.644 243.443 277.824 243.833C277.005 244.223 280.384 248.819 280.384 248.819H283.104Z" fill="white"/>
<path d="M123.239 248.819C123.239 248.819 117.479 243.699 119.188 242.867C120.897 242.035 123.028 246.707 123.239 246.003C123.45 245.299 122.113 238.828 125.319 239.276C128.526 239.724 125.319 246.003 125.319 246.003C125.319 246.003 127.7 243.443 128.519 243.833C129.338 244.223 125.959 248.819 125.959 248.819H123.239Z" fill="#689F3A"/>
<path d="M196.308 249.6C196.308 249.6 197.869 244.365 194.708 243.321C191.546 242.278 189.677 239.833 189.786 237.069C189.895 234.304 186.586 231.609 184.071 234.201C181.556 236.793 181.908 232.211 178.586 231.091C175.264 229.971 172.442 232.685 173.351 235.155C174.26 237.625 170.983 239.168 167.053 237.075C163.124 234.982 158.797 238.797 159.629 241.792C160.461 244.787 159.783 245.113 157.293 244.115C154.804 243.117 150.362 245.945 151.924 249.606C153.485 253.267 196.308 249.6 196.308 249.6Z" fill="#689F3A"/>
<path d="M98.1635 250.163C100.973 248.243 98.445 245.043 95.6418 244.646C92.8386 244.249 90.0162 240.921 89.8818 238.79C89.7474 236.659 84.7042 230.105 76.8514 234.15C68.9986 238.195 71.3859 234.745 65.7027 233.613C60.0195 232.48 56.4355 235.744 58.9315 238.201C58.9315 238.201 53.2226 237.229 50.8738 240.845C48.525 244.461 50.8738 246.701 50.8738 246.701C50.8738 246.701 40.1411 246.483 41.1075 250.989C42.0739 255.494 98.1635 250.163 98.1635 250.163Z" fill="#689F3A"/>
<path d="M263.68 247.93C263.68 247.93 258.56 237.997 259.84 237.05C261.12 236.103 263.642 245.37 263.68 244.627C263.719 243.885 263.539 231.277 265.888 231.776C268.237 232.275 265.888 243.904 265.888 243.904C265.888 243.904 269.05 237.965 270.291 238.413C271.533 238.861 266.637 245.927 266.637 245.927C266.637 245.927 269.555 244.16 270.291 244.295C271.027 244.429 266.637 247.955 266.637 247.955L263.68 247.93Z" fill="#689F3A"/>
<path d="M43.3536 249.139C43.3536 249.139 48.4736 239.206 47.1936 238.259C45.9136 237.312 43.3536 246.579 43.3536 245.837C43.3536 245.094 43.52 232.461 41.1456 232.96C38.7712 233.459 41.1456 245.088 41.1456 245.088C41.1456 245.088 37.9456 239.149 36.7424 239.597C35.5392 240.045 40.3968 247.11 40.3968 247.11C40.3968 247.11 37.472 245.344 36.7424 245.478C36.0128 245.613 40.3968 249.139 40.3968 249.139H43.3536Z" fill="#689F3A"/>
<path opacity="0.5" d="M123.239 248.819C123.239 248.819 117.479 243.699 119.188 242.867C120.897 242.035 123.028 246.707 123.239 246.003C123.45 245.299 122.113 238.828 125.319 239.276C128.526 239.724 125.319 246.003 125.319 246.003C125.319 246.003 127.7 243.443 128.519 243.833C129.338 244.223 125.959 248.819 125.959 248.819H123.239Z" fill="white"/>
<path opacity="0.5" d="M196.308 249.6C196.308 249.6 197.869 244.365 194.708 243.321C191.546 242.278 189.677 239.833 189.786 237.069C189.895 234.304 186.586 231.609 184.071 234.201C181.556 236.793 181.908 232.211 178.586 231.091C175.264 229.971 172.442 232.685 173.351 235.155C174.26 237.625 170.983 239.168 167.053 237.075C163.124 234.982 158.797 238.797 159.629 241.792C160.461 244.787 159.783 245.113 157.293 244.115C154.804 243.117 150.362 245.945 151.924 249.606C153.485 253.267 196.308 249.6 196.308 249.6Z" fill="white"/>
<path opacity="0.5" d="M98.1635 250.163C100.973 248.243 98.445 245.043 95.6418 244.646C92.8386 244.249 90.0162 240.921 89.8818 238.79C89.7474 236.659 84.7042 230.105 76.8514 234.15C68.9986 238.195 71.3859 234.745 65.7027 233.613C60.0195 232.48 56.4355 235.744 58.9315 238.201C58.9315 238.201 53.2226 237.229 50.8738 240.845C48.525 244.461 50.8738 246.701 50.8738 246.701C50.8738 246.701 40.1411 246.483 41.1075 250.989C42.0739 255.494 98.1635 250.163 98.1635 250.163Z" fill="white"/>
<path opacity="0.5" d="M263.68 247.93C263.68 247.93 258.56 237.997 259.84 237.05C261.12 236.103 263.642 245.37 263.68 244.627C263.719 243.885 263.539 231.277 265.888 231.776C268.237 232.275 265.888 243.904 265.888 243.904C265.888 243.904 269.05 237.965 270.291 238.413C271.533 238.861 266.637 245.927 266.637 245.927C266.637 245.927 269.555 244.16 270.291 244.295C271.027 244.429 266.637 247.955 266.637 247.955L263.68 247.93Z" fill="white"/>
<path opacity="0.5" d="M43.3536 249.139C43.3536 249.139 48.4736 239.206 47.1936 238.259C45.9136 237.312 43.3536 246.579 43.3536 245.837C43.3536 245.094 43.52 232.461 41.1456 232.96C38.7712 233.459 41.1456 245.088 41.1456 245.088C41.1456 245.088 37.9456 239.149 36.7424 239.597C35.5392 240.045 40.3968 247.11 40.3968 247.11C40.3968 247.11 37.472 245.344 36.7424 245.478C36.0128 245.613 40.3968 249.139 40.3968 249.139H43.3536Z" fill="white"/>
<path d="M30.6051 247.136H289.396C289.716 247.136 290.024 247.263 290.251 247.49C290.478 247.717 290.605 248.025 290.605 248.345V259.302H29.3955V248.32C29.4022 248.003 29.5326 247.702 29.7587 247.481C29.9848 247.26 30.2887 247.136 30.6051 247.136Z" fill="#263238"/>
<path opacity="0.8" d="M30.6051 247.136H289.396C289.716 247.136 290.024 247.263 290.251 247.49C290.478 247.717 290.605 248.025 290.605 248.345V259.302H29.3955V248.32C29.4022 248.003 29.5326 247.702 29.7587 247.481C29.9848 247.26 30.2887 247.136 30.6051 247.136Z" fill="white"/>
<path opacity="0.2" d="M289.319 249.567H272.212V257.811H289.319V249.567Z" fill="white"/>
<path opacity="0.2" d="M271.303 248.787H254.195V257.03H271.303V248.787Z" fill="white"/>
<path opacity="0.2" d="M253.466 251.788H242.33V257.03H253.466V251.788Z" fill="white"/>
<path opacity="0.2" d="M44.7366 252.461H33.6006V257.703H44.7366V252.461Z" fill="white"/>
<path opacity="0.2" d="M241.434 249.164H229.729V256.338H241.434V249.164Z" fill="white"/>
<path opacity="0.2" d="M228.87 248.198H220.902V255.373H228.87V248.198Z" fill="white"/>
<path opacity="0.2" d="M53.9973 249.567H46.0293V256.742H53.9973V249.567Z" fill="white"/>
<path opacity="0.2" d="M195.309 249.567H187.341V256.742H195.309V249.567Z" fill="white"/>
<path opacity="0.2" d="M203.674 248.198H195.706V253.158H203.674V248.198Z" fill="white"/>
<path opacity="0.2" d="M220.083 250.099H206.97V257.273H220.083V250.099Z" fill="white"/>
<path opacity="0.2" d="M186.432 249.164H173.318V256.338H186.432V249.164Z" fill="white"/>
<path opacity="0.2" d="M252.685 248.787H244.243V251.098H252.685V248.787Z" fill="white"/>
<path opacity="0.2" d="M42.0422 248.947H33.6006V251.258H42.0422V248.947Z" fill="white"/>
<path opacity="0.2" d="M205.428 254.221H196.986V256.531H205.428V254.221Z" fill="white"/>
<path opacity="0.2" d="M172.167 249.567H155.06V257.811H172.167V249.567Z" fill="white"/>
<path opacity="0.2" d="M154.144 248.787H137.037V257.03H154.144V248.787Z" fill="white"/>
<path opacity="0.2" d="M136.308 251.788H125.172V257.03H136.308V251.788Z" fill="white"/>
<path opacity="0.2" d="M124.276 249.164H112.57V256.338H124.276V249.164Z" fill="white"/>
<path opacity="0.2" d="M111.712 248.198H103.744V255.373H111.712V248.198Z" fill="white"/>
<path opacity="0.2" d="M78.1506 249.567H70.1826V256.742H78.1506V249.567Z" fill="white"/>
<path opacity="0.2" d="M86.5158 248.198H78.5479V253.158H86.5158V248.198Z" fill="white"/>
<path opacity="0.2" d="M102.925 250.099H89.8115V257.273H102.925V250.099Z" fill="white"/>
<path opacity="0.2" d="M69.2738 249.164H56.1602V256.338H69.2738V249.164Z" fill="white"/>
<path opacity="0.2" d="M135.527 248.787H127.085V251.098H135.527V248.787Z" fill="white"/>
<path opacity="0.2" d="M88.2687 254.221H79.8271V256.531H88.2687V254.221Z" fill="white"/>
<path d="M91.6479 205.51C91.6205 205.709 91.6545 205.912 91.7455 206.091C91.8364 206.27 91.9798 206.417 92.1566 206.512C92.3334 206.608 92.5351 206.647 92.7347 206.624C92.9342 206.602 93.1222 206.519 93.2733 206.387C93.4244 206.254 93.5316 206.079 93.5804 205.884C93.6291 205.689 93.6172 205.484 93.5463 205.296C93.4753 205.109 93.3486 204.947 93.1832 204.833C93.0178 204.719 92.8215 204.658 92.6207 204.659C92.3789 204.643 92.1407 204.724 91.9583 204.884C91.7759 205.043 91.6643 205.269 91.6479 205.51Z" fill="#263238"/>
<path opacity="0.2" d="M91.6479 205.51C91.6205 205.709 91.6545 205.912 91.7455 206.091C91.8364 206.27 91.9798 206.417 92.1566 206.512C92.3334 206.608 92.5351 206.647 92.7347 206.624C92.9342 206.602 93.1222 206.519 93.2733 206.387C93.4244 206.254 93.5316 206.079 93.5804 205.884C93.6291 205.689 93.6172 205.484 93.5463 205.296C93.4753 205.109 93.3486 204.947 93.1832 204.833C93.0178 204.719 92.8215 204.658 92.6207 204.659C92.3789 204.643 92.1407 204.724 91.9583 204.884C91.7759 205.043 91.6643 205.269 91.6479 205.51Z" fill="white"/>
<path d="M88.1214 198.713C88.1214 200.672 86.8734 202.265 85.331 202.265C83.7886 202.265 82.5342 200.672 82.5342 198.713C82.5342 196.755 83.8142 195.161 85.331 195.161C86.8478 195.161 88.1214 196.748 88.1214 198.713Z" fill="#263238"/>
<path opacity="0.5" d="M88.1214 198.714C88.1214 200.672 86.8734 202.266 85.3246 202.266C85.2266 202.272 85.1282 202.272 85.0302 202.266C83.635 202.074 82.5342 200.57 82.5342 198.733C82.5342 196.896 83.635 195.392 85.0302 195.2C85.1282 195.194 85.2266 195.194 85.3246 195.2C86.8734 195.162 88.1214 196.755 88.1214 198.714Z" fill="white"/>
<path opacity="0.5" d="M87.5262 198.713C87.5262 200.55 86.4254 202.054 85.0302 202.246C83.635 202.054 82.5342 200.55 82.5342 198.713C82.5342 196.877 83.635 195.373 85.0302 195.181C86.3998 195.373 87.5262 196.877 87.5262 198.713Z" fill="white"/>
<path d="M91.5196 205.696H92.518C92.5978 205.696 92.6743 205.664 92.7307 205.608C92.7871 205.551 92.8188 205.475 92.8188 205.395C92.8188 205.315 92.7871 205.239 92.7307 205.182C92.6743 205.126 92.5978 205.094 92.518 205.094H91.5196C91.2772 205.097 91.037 205.047 90.8159 204.948C90.5948 204.848 90.3981 204.702 90.2396 204.518L86.3996 200.07C86.3744 200.04 86.3433 200.015 86.3082 199.997C86.2731 199.979 86.2347 199.968 86.1952 199.965C86.1558 199.962 86.1162 199.967 86.0787 199.979C86.0413 199.992 86.0068 200.012 85.9772 200.038C85.9217 200.095 85.8906 200.171 85.8906 200.25C85.8906 200.329 85.9217 200.404 85.9772 200.461L89.8172 204.909C90.0283 205.154 90.2895 205.351 90.5832 205.487C90.8768 205.623 91.1961 205.694 91.5196 205.696Z" fill="#263238"/>
<g opacity="0.5">
<path d="M91.5196 205.696H92.518C92.5978 205.696 92.6743 205.664 92.7307 205.608C92.7871 205.551 92.8188 205.475 92.8188 205.395C92.8188 205.315 92.7871 205.239 92.7307 205.182C92.6743 205.126 92.5978 205.094 92.518 205.094H91.5196C91.2772 205.097 91.037 205.047 90.8159 204.948C90.5948 204.848 90.3981 204.702 90.2396 204.518L86.3996 200.07C86.3744 200.04 86.3433 200.015 86.3082 199.997C86.2731 199.979 86.2347 199.968 86.1952 199.965C86.1558 199.962 86.1162 199.967 86.0787 199.979C86.0413 199.992 86.0068 200.012 85.9772 200.038C85.9217 200.095 85.8906 200.171 85.8906 200.25C85.8906 200.329 85.9217 200.404 85.9772 200.461L89.8172 204.909C90.0283 205.154 90.2895 205.351 90.5832 205.487C90.8768 205.623 91.1961 205.694 91.5196 205.696Z" fill="white"/>
</g>
<path d="M174.406 231.309H167.84C160.537 231.309 154.617 239.488 154.617 249.574C154.617 259.661 160.537 267.84 167.84 267.84H174.406C181.708 267.84 187.628 259.661 187.628 249.574C187.628 239.488 181.708 231.309 174.406 231.309Z" fill="black"/>
<path opacity="0.1" d="M176.48 232.602C170.381 232.602 165.434 240.198 165.434 249.574C165.434 258.95 170.381 266.547 176.48 266.547C182.579 266.547 187.52 258.944 187.52 249.6C187.52 240.256 182.579 232.602 176.48 232.602Z" fill="white"/>
<path opacity="0.6" d="M177.433 240.403C174.137 240.403 171.462 244.506 171.462 249.575C171.462 254.643 174.137 258.746 177.433 258.746C180.729 258.746 183.398 254.637 183.398 249.575C183.398 244.512 180.729 240.403 177.433 240.403Z" fill="#263238"/>
<path d="M68.8508 231.309H62.2844C54.982 231.309 49.0684 239.488 49.0684 249.574C49.0684 259.661 54.982 267.84 62.2844 267.84H68.8508C76.1532 267.84 82.0732 259.661 82.0732 249.574C82.0732 239.488 76.1596 231.309 68.8508 231.309Z" fill="black"/>
<path opacity="0.1" d="M70.9243 232.602C64.8251 232.602 59.8779 240.198 59.8779 249.574C59.8779 258.95 64.8251 266.547 70.9243 266.547C77.0235 266.547 81.9643 258.944 81.9643 249.6C81.9643 240.256 77.0235 232.602 70.9243 232.602Z" fill="white"/>
<path opacity="0.6" d="M71.8779 240.403C68.5819 240.403 65.9131 244.506 65.9131 249.575C65.9131 254.643 68.5819 258.746 71.8779 258.746C75.1739 258.746 77.8491 254.637 77.8491 249.575C77.8491 244.512 75.1739 240.403 71.8779 240.403Z" fill="#263238"/>
<path d="M68.5312 255.04C68.9552 256.512 69.777 257.838 70.9063 258.872C72.0355 259.907 73.4283 260.609 74.9312 260.903C80.1152 261.895 84.8833 258.746 84.8833 258.746H92.9345C92.9345 258.746 94.2145 260.903 99.4816 260.903C104.749 260.903 110.458 258.836 110.458 258.836H138.688L142.022 260.903H171.149L175.795 258.746H189.107C189.107 258.746 192.87 263.226 198.554 258.836H232.416L236.602 257.063H240.32C240.32 257.063 244.493 247.277 241.178 237.14C237.862 227.002 212.051 222.343 212.051 222.343L75.3088 224.57L68.5312 255.04Z" fill="black"/>
<path d="M248.32 211.053V255.731H241.555C242.076 253.542 242.338 251.3 242.336 249.05C242.336 236.461 234.278 226.259 224.339 226.259C214.4 226.259 206.336 236.461 206.336 249.05C206.332 251.3 206.596 253.543 207.123 255.731H185.184V211.053H248.32Z" fill="#689F3A"/>
<path opacity="0.4" d="M248.32 211.053V255.731H241.555C242.076 253.542 242.338 251.3 242.336 249.05C242.336 236.461 234.278 226.259 224.339 226.259C214.4 226.259 206.336 236.461 206.336 249.05C206.332 251.3 206.596 253.543 207.123 255.731H185.184V211.053H248.32Z" fill="#263238"/>
<path d="M247.968 207.942H180.794C179.557 207.942 178.554 208.945 178.554 210.182V210.221C178.554 211.458 179.557 212.461 180.794 212.461H247.968C249.205 212.461 250.208 211.458 250.208 210.221V210.182C250.208 208.945 249.205 207.942 247.968 207.942Z" fill="#689F3A"/>
<path opacity="0.2" d="M247.968 207.942H180.794C179.557 207.942 178.554 208.945 178.554 210.182V210.221C178.554 211.458 179.557 212.461 180.794 212.461H247.968C249.205 212.461 250.208 211.458 250.208 210.221V210.182C250.208 208.945 249.205 207.942 247.968 207.942Z" fill="#263238"/>
<path d="M188.659 250.682L156.16 251.629C156.16 251.629 143.846 226.995 127.424 220.998C111.001 215.002 88.2686 201.741 88.2686 201.741C88.2686 201.741 98.0542 177.517 103.744 172.781C104.184 172.422 104.653 172.099 105.145 171.814C112.384 167.546 132.525 164.384 158.675 166.15C167.283 166.726 173.248 168.998 175.097 171.27C175.355 171.6 175.584 171.951 175.782 172.32C179.513 179.027 182.669 201.12 182.669 201.12C182.669 201.12 186.15 203.648 188.038 210.598C189.926 217.549 188.659 250.682 188.659 250.682Z" fill="#689F3A"/>
<path d="M91.0146 200.006C91.0146 200.006 100.026 177.683 103.328 176.013C110.368 172.461 144.89 172.813 149.664 175.373L144.544 201.901C144.544 201.901 116.826 197.165 91.0146 200.006Z" fill="#263238"/>
<path d="M146.662 202.375C146.662 202.375 151.718 175.936 152.505 174.989C153.293 174.042 173.03 174.675 173.977 175.303C174.925 175.93 179.341 200.794 179.341 200.794C179.341 200.794 161.817 200.634 146.662 202.375Z" fill="#263238"/>
<path d="M133.005 231.309H126.432C119.129 231.309 113.216 239.488 113.216 249.574C113.216 259.661 119.129 267.84 126.432 267.84H133.005C140.301 267.84 146.221 259.661 146.221 249.574C146.221 239.488 140.301 231.309 133.005 231.309Z" fill="black"/>
<path opacity="0.2" d="M135.072 232.602C128.973 232.602 124.025 240.198 124.025 249.574C124.025 258.95 128.973 266.547 135.072 266.547C141.171 266.547 146.112 258.944 146.112 249.6C146.112 240.256 141.171 232.602 135.072 232.602Z" fill="white"/>
<path opacity="0.2" d="M136.025 240.403C132.729 240.403 130.061 244.506 130.061 249.575C130.061 254.643 132.729 258.746 136.025 258.746C139.321 258.746 141.997 254.637 141.997 249.575C141.997 244.512 139.321 240.403 136.025 240.403Z" fill="white"/>
<path opacity="0.7" d="M133.76 244.985C132.109 244.985 130.777 247.04 130.777 249.574C130.777 252.109 132.109 254.157 133.76 254.157C135.411 254.157 136.742 252.109 136.742 249.574C136.742 247.04 135.424 244.985 133.76 244.985Z" fill="white"/>
<path d="M224.595 231.309H218.029C210.726 231.309 204.8 239.488 204.8 249.6C204.8 259.712 210.713 267.865 218.016 267.865H224.582C231.885 267.865 237.805 259.686 237.805 249.6C237.805 239.513 231.897 231.309 224.595 231.309Z" fill="black"/>
<path opacity="0.2" d="M226.668 232.602C220.569 232.602 215.622 240.198 215.622 249.574C215.622 258.95 220.569 266.547 226.668 266.547C232.768 266.547 237.708 258.944 237.708 249.6C237.708 240.256 232.768 232.602 226.668 232.602Z" fill="white"/>
<path opacity="0.2" d="M227.622 240.403C224.326 240.403 221.657 244.506 221.657 249.575C221.657 254.643 224.326 258.746 227.622 258.746C230.918 258.746 233.6 254.637 233.6 249.6C233.6 244.563 230.918 240.403 227.622 240.403Z" fill="white"/>
<path opacity="0.7" d="M225.344 244.985C223.776 244.985 222.496 246.944 222.496 249.363C222.496 251.782 223.776 253.734 225.344 253.734C226.912 253.734 228.192 251.776 228.192 249.363C228.192 246.95 226.919 244.985 225.344 244.985Z" fill="white"/>
<path d="M44.9915 252.122C44.9915 252.122 42.4891 225.978 53.5291 219.226C64.5691 212.474 79.7243 213.082 79.7243 213.082L82.0731 253.734L44.9915 252.122Z" fill="#689F3A"/>
<path opacity="0.2" d="M44.9915 252.122C44.9915 252.122 42.4891 225.978 53.5291 219.226C64.5691 212.474 79.7243 213.082 79.7243 213.082L82.0731 253.734L44.9915 252.122Z" fill="#263238"/>
<path opacity="0.2" d="M59.6738 216.672C58.5082 218.618 57.6673 220.74 57.1842 222.957C56.1858 227.059 57.1842 247.277 57.1842 247.277C57.1842 247.277 48.3458 249.369 46.6306 245.049C44.9154 240.729 44.5122 221.504 59.6738 216.672Z" fill="white"/>
<path d="M58.2126 229.652C58.6622 225.374 56.2938 221.619 52.9227 221.265C49.5516 220.91 46.4542 224.091 46.0046 228.369C45.5549 232.647 47.9233 236.402 51.2944 236.757C54.6655 237.111 57.7629 233.93 58.2126 229.652Z" fill="#263238"/>
<path opacity="0.7" d="M58.2126 229.652C58.6622 225.374 56.2938 221.619 52.9227 221.265C49.5516 220.91 46.4542 224.091 46.0046 228.369C45.5549 232.647 47.9233 236.402 51.2944 236.757C54.6655 237.111 57.7629 233.93 58.2126 229.652Z" fill="white"/>
<path d="M56.3198 229.011C56.179 232.634 53.7598 235.571 50.8734 235.571C47.987 235.571 45.7982 232.634 45.939 229.011C46.0798 225.389 48.499 222.451 51.3918 222.451C54.2846 222.451 56.4862 225.389 56.3198 229.011Z" fill="#689F3A"/>
<path opacity="0.8" d="M56.3198 229.011C56.179 232.634 53.7598 235.571 50.8734 235.571C47.987 235.571 45.7982 232.634 45.939 229.011C46.0798 225.389 48.499 222.451 51.3918 222.451C54.2846 222.451 56.4862 225.389 56.3198 229.011Z" fill="white"/>
<path d="M52.0576 231.29C53.6729 231.29 54.9824 229.82 54.9824 228.007C54.9824 226.194 53.6729 224.724 52.0576 224.724C50.4423 224.724 49.1328 226.194 49.1328 228.007C49.1328 229.82 50.4423 231.29 52.0576 231.29Z" fill="white"/>
<path d="M50.5979 232.32C50.5646 232.602 50.4504 232.868 50.2692 233.086C50.0881 233.305 49.8476 233.466 49.5767 233.551C49.3058 233.636 49.0162 233.641 48.7426 233.565C48.4691 233.489 48.2233 233.336 48.0349 233.124C47.8465 232.911 47.7236 232.649 47.6808 232.368C47.6381 232.088 47.6774 231.801 47.7941 231.542C47.9107 231.283 48.0997 231.064 48.3383 230.91C48.5768 230.756 48.8548 230.674 49.1387 230.675C49.5503 230.7 49.9352 230.887 50.2088 231.195C50.4824 231.504 50.6224 231.908 50.5979 232.32Z" fill="white"/>
<path d="M136.762 217.824L107.194 252.16L59.7119 251.193C59.7119 251.193 57.3055 216.793 61.4399 209.741C64.7743 203.981 80.5887 201.6 94.7199 200.781C97.9775 200.589 101.152 200.48 104.058 200.435C119.546 200.185 131.642 203.296 133.818 205.689C135.994 208.083 136.762 217.824 136.762 217.824Z" fill="#689F3A"/>
<path d="M60.9337 249.6C60.9337 249.6 59.3977 213.882 62.5913 210.803C65.7849 207.725 85.5673 208.243 87.6985 210.803C90.5401 214.202 86.8729 250.234 86.8729 250.234L60.9337 249.6Z" fill="#263238"/>
<path opacity="0.6" d="M60.9337 249.6C60.9337 249.6 59.3977 213.882 62.5913 210.803C65.7849 207.725 85.5673 208.243 87.6985 210.803C90.5401 214.202 86.8729 250.234 86.8729 250.234L60.9337 249.6Z" fill="white"/>
<path d="M62.7198 251.443C62.7198 251.443 61.4398 215.731 64.0766 212.653C66.7134 209.575 82.8926 210.093 84.6334 212.653C86.963 216.051 83.9614 252.083 83.9614 252.083L62.7198 251.443Z" fill="#263238"/>
<path d="M73.1713 213.223C73.1265 213.581 73.0881 213.991 73.0305 214.452H64.5057C64.4103 214.479 64.3098 214.485 64.212 214.467C64.1143 214.449 64.022 214.409 63.9425 214.349C63.863 214.29 63.7985 214.212 63.7541 214.123C63.7097 214.035 63.6865 213.937 63.6865 213.837C63.6865 213.738 63.7097 213.64 63.7541 213.551C63.7985 213.462 63.863 213.385 63.9425 213.325C64.022 213.266 64.1143 213.225 64.212 213.208C64.3098 213.19 64.4103 213.195 64.5057 213.223H73.1713Z" fill="#263238"/>
<path d="M72.8697 216.064C72.8697 216.442 72.7993 216.858 72.7545 217.287H63.9033C63.7729 217.246 63.6588 217.165 63.5778 217.055C63.4968 216.945 63.4531 216.812 63.4531 216.676C63.4531 216.539 63.4968 216.406 63.5778 216.296C63.6588 216.186 63.7729 216.105 63.9033 216.064H72.8697Z" fill="#263238"/>
<path d="M72.6266 218.88C72.6266 219.277 72.5626 219.68 72.537 220.109H63.577C63.4441 220.07 63.3273 219.989 63.2442 219.878C63.1611 219.767 63.1162 219.633 63.1162 219.494C63.1162 219.356 63.1611 219.221 63.2442 219.11C63.3273 218.999 63.4441 218.919 63.577 218.88H72.6266Z" fill="#263238"/>
<path d="M72.4225 221.728C72.4225 222.131 72.3713 222.541 72.3393 222.957H63.4881C63.3928 222.984 63.2922 222.99 63.1945 222.972C63.0967 222.954 63.0044 222.914 62.9249 222.854C62.8455 222.795 62.7809 222.717 62.7365 222.628C62.6921 222.539 62.6689 222.442 62.6689 222.342C62.6689 222.243 62.6921 222.145 62.7365 222.056C62.7809 221.967 62.8455 221.89 62.9249 221.83C63.0044 221.771 63.0967 221.73 63.1945 221.712C63.2922 221.695 63.3928 221.7 63.4881 221.728H72.4225Z" fill="#263238"/>
<path d="M72.2489 224.569C72.2489 224.966 72.2041 225.376 72.1913 225.792H63.3017C63.1713 225.751 63.0573 225.67 62.9763 225.56C62.8953 225.45 62.8516 225.317 62.8516 225.181C62.8516 225.044 62.8953 224.911 62.9763 224.801C63.0573 224.691 63.1713 224.61 63.3017 224.569H72.2489Z" fill="#263238"/>
<path d="M72.1085 227.405C72.1085 227.808 72.1085 228.211 72.0637 228.634H63.3021C63.1324 228.634 62.9696 228.566 62.8496 228.446C62.7295 228.326 62.6621 228.163 62.6621 227.994C62.6703 227.83 62.7414 227.675 62.8605 227.562C62.9797 227.449 63.1378 227.386 63.3021 227.386L72.1085 227.405Z" fill="#263238"/>
<path d="M72.0066 230.233C72.0066 230.637 72.0066 231.046 71.9746 231.462H63.3026C63.1697 231.423 63.0529 231.343 62.9698 231.232C62.8867 231.121 62.8418 230.986 62.8418 230.848C62.8418 230.709 62.8867 230.575 62.9698 230.464C63.0529 230.353 63.1697 230.272 63.3026 230.233H72.0066Z" fill="#263238"/>
<path d="M71.9353 233.075C71.9353 233.472 71.9353 233.888 71.9353 234.298H63.3017C63.1713 234.257 63.0573 234.176 62.9763 234.066C62.8953 233.956 62.8516 233.823 62.8516 233.686C62.8516 233.55 62.8953 233.417 62.9763 233.307C63.0573 233.197 63.1713 233.116 63.3017 233.075H71.9353Z" fill="#263238"/>
<path d="M71.8978 235.91C71.8978 236.32 71.8978 236.723 71.8978 237.139H63.3026C63.1697 237.1 63.0529 237.019 62.9698 236.909C62.8867 236.798 62.8418 236.663 62.8418 236.525C62.8418 236.386 62.8867 236.251 62.9698 236.141C63.0529 236.03 63.1697 235.949 63.3026 235.91H71.8978Z" fill="#263238"/>
<path d="M71.8914 240H63.3026C63.1697 239.962 63.0529 239.881 62.9698 239.77C62.8867 239.659 62.8418 239.524 62.8418 239.386C62.8418 239.247 62.8867 239.113 62.9698 239.002C63.0529 238.891 63.1697 238.81 63.3026 238.771H71.885C71.885 239.155 71.885 239.565 71.8914 240Z" fill="#263238"/>
<path d="M71.9234 242.81H63.3026C63.1697 242.771 63.0529 242.69 62.9698 242.579C62.8867 242.469 62.8418 242.334 62.8418 242.195C62.8418 242.057 62.8867 241.922 62.9698 241.811C63.0529 241.701 63.1697 241.62 63.3026 241.581H71.9106C71.9106 241.984 71.9106 242.394 71.9234 242.81Z" fill="#263238"/>
<path d="M71.9874 245.645H63.3026C63.1697 245.606 63.0529 245.525 62.9698 245.414C62.8867 245.304 62.8418 245.169 62.8418 245.03C62.8418 244.892 62.8867 244.757 62.9698 244.646C63.0529 244.536 63.1697 244.455 63.3026 244.416H71.949L71.9874 245.645Z" fill="#263238"/>
<path d="M72.0769 248.48H63.5456C63.4499 248.509 63.3484 248.516 63.2495 248.5C63.1506 248.483 63.057 248.443 62.9763 248.384C62.8955 248.324 62.8299 248.247 62.7846 248.157C62.7394 248.068 62.7158 247.969 62.7158 247.869C62.7158 247.768 62.7394 247.669 62.7846 247.58C62.8299 247.49 62.8955 247.413 62.9763 247.353C63.057 247.294 63.1506 247.254 63.2495 247.237C63.3484 247.221 63.4499 247.228 63.5456 247.257H72.0321C72.0449 247.68 72.0641 248.07 72.0769 248.48Z" fill="#263238"/>
<g opacity="0.5">
<path d="M73.1713 213.223C73.1265 213.581 73.0881 213.991 73.0305 214.452H64.5057C64.4103 214.479 64.3098 214.485 64.212 214.467C64.1143 214.449 64.022 214.409 63.9425 214.349C63.863 214.29 63.7985 214.212 63.7541 214.123C63.7097 214.035 63.6865 213.937 63.6865 213.837C63.6865 213.738 63.7097 213.64 63.7541 213.551C63.7985 213.462 63.863 213.385 63.9425 213.325C64.022 213.266 64.1143 213.225 64.212 213.208C64.3098 213.19 64.4103 213.195 64.5057 213.223H73.1713Z" fill="white"/>
<path d="M72.8697 216.064C72.8697 216.442 72.7993 216.858 72.7545 217.287H63.9033C63.7729 217.246 63.6588 217.165 63.5778 217.055C63.4968 216.945 63.4531 216.812 63.4531 216.676C63.4531 216.539 63.4968 216.406 63.5778 216.296C63.6588 216.186 63.7729 216.105 63.9033 216.064H72.8697Z" fill="white"/>
<path d="M72.6266 218.881C72.6266 219.278 72.5626 219.681 72.537 220.11H63.577C63.4441 220.071 63.3273 219.99 63.2442 219.879C63.1611 219.768 63.1162 219.634 63.1162 219.495C63.1162 219.357 63.1611 219.222 63.2442 219.111C63.3273 219 63.4441 218.92 63.577 218.881H72.6266Z" fill="white"/>
<path d="M72.4225 221.729C72.4225 222.132 72.3713 222.542 72.3393 222.958H63.4881C63.3928 222.985 63.2922 222.991 63.1945 222.973C63.0967 222.955 63.0044 222.915 62.9249 222.855C62.8455 222.796 62.7809 222.718 62.7365 222.629C62.6921 222.54 62.6689 222.442 62.6689 222.343C62.6689 222.244 62.6921 222.146 62.7365 222.057C62.7809 221.968 62.8455 221.891 62.9249 221.831C63.0044 221.772 63.0967 221.731 63.1945 221.713C63.2922 221.696 63.3928 221.701 63.4881 221.729H72.4225Z" fill="white"/>
<path d="M72.2489 224.57C72.2489 224.967 72.2041 225.377 72.1913 225.793H63.3017C63.1713 225.752 63.0573 225.671 62.9763 225.561C62.8953 225.451 62.8516 225.318 62.8516 225.182C62.8516 225.045 62.8953 224.912 62.9763 224.802C63.0573 224.692 63.1713 224.611 63.3017 224.57H72.2489Z" fill="white"/>
<path d="M72.1085 227.405C72.1085 227.808 72.1085 228.211 72.0637 228.634H63.3021C63.1324 228.634 62.9696 228.566 62.8496 228.446C62.7295 228.326 62.6621 228.163 62.6621 227.994C62.6703 227.83 62.7414 227.675 62.8605 227.562C62.9797 227.449 63.1378 227.386 63.3021 227.386L72.1085 227.405Z" fill="white"/>
<path d="M72.0056 230.234C72.0056 230.638 72.0056 231.047 71.9736 231.463H63.3016C63.1687 231.424 63.0519 231.344 62.9688 231.233C62.8857 231.122 62.8408 230.987 62.8408 230.849C62.8408 230.71 62.8857 230.576 62.9688 230.465C63.0519 230.354 63.1687 230.273 63.3016 230.234H72.0056Z" fill="white"/>
<path d="M71.9353 233.075C71.9353 233.472 71.9353 233.888 71.9353 234.298H63.3017C63.1713 234.257 63.0573 234.176 62.9763 234.066C62.8953 233.956 62.8516 233.823 62.8516 233.686C62.8516 233.55 62.8953 233.417 62.9763 233.307C63.0573 233.197 63.1713 233.116 63.3017 233.075H71.9353Z" fill="white"/>
<path d="M71.8968 235.911C71.8968 236.321 71.8968 236.724 71.8968 237.14H63.3016C63.1687 237.101 63.0519 237.02 62.9688 236.91C62.8857 236.799 62.8408 236.664 62.8408 236.526C62.8408 236.387 62.8857 236.252 62.9688 236.142C63.0519 236.031 63.1687 235.95 63.3016 235.911H71.8968Z" fill="white"/>
<path d="M71.8904 240H63.3016C63.1687 239.962 63.0519 239.881 62.9688 239.77C62.8857 239.659 62.8408 239.524 62.8408 239.386C62.8408 239.247 62.8857 239.113 62.9688 239.002C63.0519 238.891 63.1687 238.81 63.3016 238.771H71.884C71.884 239.155 71.884 239.565 71.8904 240Z" fill="white"/>
<path d="M71.9224 242.81H63.3016C63.1687 242.771 63.0519 242.69 62.9688 242.579C62.8857 242.469 62.8408 242.334 62.8408 242.195C62.8408 242.057 62.8857 241.922 62.9688 241.811C63.0519 241.701 63.1687 241.62 63.3016 241.581H71.9096C71.9096 241.984 71.9096 242.394 71.9224 242.81Z" fill="white"/>
<path d="M71.9864 245.645H63.3016C63.1687 245.606 63.0519 245.525 62.9688 245.414C62.8857 245.304 62.8408 245.169 62.8408 245.03C62.8408 244.892 62.8857 244.757 62.9688 244.646C63.0519 244.536 63.1687 244.455 63.3016 244.416H71.948L71.9864 245.645Z" fill="white"/>
<path d="M72.0769 248.481H63.5456C63.4499 248.51 63.3484 248.517 63.2495 248.501C63.1506 248.484 63.057 248.444 62.9763 248.385C62.8955 248.325 62.8299 248.248 62.7846 248.158C62.7394 248.069 62.7158 247.97 62.7158 247.869C62.7158 247.769 62.7394 247.67 62.7846 247.581C62.8299 247.491 62.8955 247.414 62.9763 247.354C63.057 247.295 63.1506 247.255 63.2495 247.238C63.3484 247.222 63.4499 247.229 63.5456 247.258H72.0321C72.0449 247.681 72.0641 248.071 72.0769 248.481Z" fill="white"/>
</g>
<path d="M84.5306 214.451H76.4794C76.3464 214.413 76.2296 214.332 76.1466 214.221C76.0635 214.11 76.0186 213.976 76.0186 213.837C76.0186 213.699 76.0635 213.564 76.1466 213.453C76.2296 213.342 76.3464 213.261 76.4794 213.223H84.2618C84.3811 213.625 84.4709 214.036 84.5306 214.451Z" fill="#263238"/>
<path d="M84.7869 217.286H75.8845C75.7887 217.316 75.6873 217.323 75.5884 217.306C75.4895 217.29 75.3959 217.25 75.3151 217.19C75.2344 217.131 75.1687 217.053 75.1235 216.964C75.0783 216.874 75.0547 216.775 75.0547 216.675C75.0547 216.575 75.0783 216.476 75.1235 216.386C75.1687 216.297 75.2344 216.219 75.3151 216.16C75.3959 216.1 75.4895 216.061 75.5884 216.044C75.6873 216.027 75.7887 216.034 75.8845 216.064H84.7101C84.7421 216.442 84.7677 216.858 84.7869 217.286Z" fill="#263238"/>
<path d="M84.8702 220.121H75.5838C75.4509 220.083 75.3341 220.002 75.251 219.891C75.168 219.78 75.123 219.645 75.123 219.507C75.123 219.369 75.168 219.234 75.251 219.123C75.3341 219.012 75.4509 218.931 75.5838 218.893H84.851C84.8638 219.311 84.8702 219.72 84.8702 220.121Z" fill="#263238"/>
<path d="M84.8826 221.728C84.8826 222.131 84.8826 222.54 84.8826 222.956H75.4618C75.3288 222.918 75.2121 222.837 75.129 222.726C75.0459 222.615 75.001 222.48 75.001 222.342C75.001 222.203 75.0459 222.069 75.129 221.958C75.2121 221.847 75.3288 221.766 75.4618 221.728H84.8826Z" fill="#263238"/>
<path d="M84.8576 224.569C84.8576 224.973 84.8576 225.382 84.8576 225.792H75.2832C75.1527 225.751 75.0387 225.67 74.9577 225.56C74.8767 225.45 74.833 225.317 74.833 225.181C74.833 225.044 74.8767 224.911 74.9577 224.801C75.0387 224.691 75.1527 224.61 75.2832 224.569H84.8576Z" fill="#263238"/>
<path d="M84.7868 227.405C84.7868 227.815 84.7868 228.218 84.7484 228.634H75.2828C75.1187 228.626 74.964 228.554 74.8508 228.435C74.7376 228.316 74.6746 228.158 74.6748 227.994C74.6826 227.835 74.7491 227.685 74.8615 227.572C74.9739 227.46 75.1241 227.393 75.2828 227.386L84.7868 227.405Z" fill="#263238"/>
<path d="M84.6847 230.233C84.6847 230.643 84.6847 231.059 84.6335 231.462H75.2831C75.1501 231.423 75.0333 231.343 74.9503 231.232C74.8672 231.121 74.8223 230.986 74.8223 230.848C74.8223 230.709 74.8672 230.575 74.9503 230.464C75.0333 230.353 75.1501 230.272 75.2831 230.233H84.6847Z" fill="#263238"/>
<path d="M84.5632 233.075C84.5632 233.485 84.5248 233.894 84.4992 234.298H75.2832C75.1527 234.257 75.0387 234.176 74.9577 234.066C74.8767 233.956 74.833 233.823 74.833 233.686C74.833 233.55 74.8767 233.417 74.9577 233.307C75.0387 233.197 75.1527 233.116 75.2832 233.075H84.5632Z" fill="#263238"/>
<path d="M84.4159 235.91C84.4159 236.326 84.3775 236.729 84.3519 237.139H75.2831C75.1501 237.1 75.0333 237.019 74.9503 236.909C74.8672 236.798 74.8223 236.663 74.8223 236.525C74.8223 236.386 74.8672 236.251 74.9503 236.141C75.0333 236.03 75.1501 235.949 75.2831 235.91H84.4159Z" fill="#263238"/>
<path d="M84.2559 238.72C84.2559 239.136 84.2111 239.545 84.1855 239.949H75.2831C75.1501 239.91 75.0333 239.829 74.9503 239.718C74.8672 239.607 74.8223 239.473 74.8223 239.334C74.8223 239.196 74.8672 239.061 74.9503 238.95C75.0333 238.839 75.1501 238.759 75.2831 238.72H84.2559Z" fill="#263238"/>
<path d="M84.0895 241.581C84.0895 241.997 84.0383 242.407 84.0063 242.81H75.2831C75.1501 242.771 75.0333 242.69 74.9503 242.579C74.8672 242.469 74.8223 242.334 74.8223 242.195C74.8223 242.057 74.8672 241.922 74.9503 241.811C75.0333 241.701 75.1501 241.62 75.2831 241.581H84.0895Z" fill="#263238"/>
<path d="M83.8975 244.416C83.8655 244.845 83.8463 245.248 83.8143 245.645H75.2831C75.1501 245.606 75.0333 245.525 74.9503 245.414C74.8672 245.304 74.8223 245.169 74.8223 245.03C74.8223 244.892 74.8672 244.757 74.9503 244.646C75.0333 244.536 75.1501 244.455 75.2831 244.416H83.8975Z" fill="#263238"/>
<path d="M83.6985 247.257C83.6665 247.686 83.6409 248.096 83.6025 248.48H75.5193C75.4235 248.509 75.3221 248.516 75.2232 248.5C75.1243 248.483 75.0307 248.443 74.9499 248.384C74.8692 248.324 74.8035 248.247 74.7583 248.157C74.713 248.068 74.6895 247.969 74.6895 247.869C74.6895 247.768 74.713 247.669 74.7583 247.58C74.8035 247.49 74.8692 247.413 74.9499 247.353C75.0307 247.294 75.1243 247.254 75.2232 247.237C75.3221 247.221 75.4235 247.228 75.5193 247.257H83.6985Z" fill="#263238"/>
<g opacity="0.5">
<path d="M84.5306 214.451H76.4794C76.3464 214.413 76.2296 214.332 76.1466 214.221C76.0635 214.11 76.0186 213.976 76.0186 213.837C76.0186 213.699 76.0635 213.564 76.1466 213.453C76.2296 213.342 76.3464 213.261 76.4794 213.223H84.2618C84.3811 213.625 84.4709 214.036 84.5306 214.451Z" fill="white"/>
<path d="M84.7869 217.286H75.8845C75.7887 217.316 75.6873 217.323 75.5884 217.306C75.4895 217.29 75.3959 217.25 75.3151 217.19C75.2344 217.131 75.1687 217.053 75.1235 216.964C75.0783 216.874 75.0547 216.775 75.0547 216.675C75.0547 216.575 75.0783 216.476 75.1235 216.386C75.1687 216.297 75.2344 216.219 75.3151 216.16C75.3959 216.1 75.4895 216.061 75.5884 216.044C75.6873 216.027 75.7887 216.034 75.8845 216.064H84.7101C84.7421 216.442 84.7677 216.858 84.7869 217.286Z" fill="white"/>
<path d="M84.8702 220.121H75.5838C75.4509 220.083 75.3341 220.002 75.251 219.891C75.168 219.78 75.123 219.645 75.123 219.507C75.123 219.369 75.168 219.234 75.251 219.123C75.3341 219.012 75.4509 218.931 75.5838 218.893H84.851C84.8638 219.311 84.8702 219.72 84.8702 220.121Z" fill="white"/>
<path d="M84.8826 221.729C84.8826 222.132 84.8826 222.541 84.8826 222.957H75.4618C75.3288 222.919 75.2121 222.838 75.129 222.727C75.0459 222.616 75.001 222.481 75.001 222.343C75.001 222.204 75.0459 222.07 75.129 221.959C75.2121 221.848 75.3288 221.767 75.4618 221.729H84.8826Z" fill="white"/>
<path d="M84.8576 224.57C84.8576 224.974 84.8576 225.383 84.8576 225.793H75.2832C75.1527 225.752 75.0387 225.671 74.9577 225.561C74.8767 225.451 74.833 225.318 74.833 225.182C74.833 225.045 74.8767 224.912 74.9577 224.802C75.0387 224.692 75.1527 224.611 75.2832 224.57H84.8576Z" fill="white"/>
<path d="M84.7868 227.405C84.7868 227.815 84.7868 228.218 84.7484 228.634H75.2828C75.1187 228.626 74.964 228.554 74.8508 228.435C74.7376 228.316 74.6746 228.158 74.6748 227.994C74.6826 227.835 74.7491 227.685 74.8615 227.572C74.9739 227.46 75.1241 227.393 75.2828 227.386L84.7868 227.405Z" fill="white"/>
<path d="M84.6847 230.233C84.6847 230.643 84.6847 231.059 84.6335 231.462H75.2831C75.1501 231.423 75.0333 231.343 74.9503 231.232C74.8672 231.121 74.8223 230.986 74.8223 230.848C74.8223 230.709 74.8672 230.575 74.9503 230.464C75.0333 230.353 75.1501 230.272 75.2831 230.233H84.6847Z" fill="white"/>
<path d="M84.5632 233.075C84.5632 233.485 84.5248 233.894 84.4992 234.298H75.2832C75.1527 234.257 75.0387 234.176 74.9577 234.066C74.8767 233.956 74.833 233.823 74.833 233.686C74.833 233.55 74.8767 233.417 74.9577 233.307C75.0387 233.197 75.1527 233.116 75.2832 233.075H84.5632Z" fill="white"/>
<path d="M84.4159 235.911C84.4159 236.327 84.3775 236.73 84.3519 237.14H75.2831C75.1501 237.101 75.0333 237.02 74.9503 236.91C74.8672 236.799 74.8223 236.664 74.8223 236.526C74.8223 236.387 74.8672 236.252 74.9503 236.142C75.0333 236.031 75.1501 235.95 75.2831 235.911H84.4159Z" fill="white"/>
<path d="M84.2559 238.721C84.2559 239.137 84.2111 239.546 84.1855 239.95H75.2831C75.1501 239.911 75.0333 239.83 74.9503 239.719C74.8672 239.608 74.8223 239.474 74.8223 239.335C74.8223 239.197 74.8672 239.062 74.9503 238.951C75.0333 238.84 75.1501 238.759 75.2831 238.721H84.2559Z" fill="white"/>
<path d="M84.0895 241.581C84.0895 241.997 84.0383 242.407 84.0063 242.81H75.2831C75.1501 242.771 75.0333 242.69 74.9503 242.579C74.8672 242.469 74.8223 242.334 74.8223 242.195C74.8223 242.057 74.8672 241.922 74.9503 241.811C75.0333 241.701 75.1501 241.62 75.2831 241.581H84.0895Z" fill="white"/>
<path d="M83.8975 244.416C83.8655 244.845 83.8463 245.248 83.8143 245.645H75.2831C75.1501 245.606 75.0333 245.525 74.9503 245.414C74.8672 245.304 74.8223 245.169 74.8223 245.03C74.8223 244.892 74.8672 244.757 74.9503 244.646C75.0333 244.536 75.1501 244.455 75.2831 244.416H83.8975Z" fill="white"/>
<path d="M83.6985 247.258C83.6665 247.687 83.6409 248.097 83.6025 248.481H75.5193C75.4235 248.51 75.3221 248.517 75.2232 248.501C75.1243 248.484 75.0307 248.444 74.9499 248.385C74.8692 248.325 74.8035 248.248 74.7583 248.158C74.713 248.069 74.6895 247.97 74.6895 247.869C74.6895 247.769 74.713 247.67 74.7583 247.581C74.8035 247.491 74.8692 247.414 74.9499 247.354C75.0307 247.295 75.1243 247.255 75.2232 247.238C75.3221 247.222 75.4235 247.229 75.5193 247.258H83.6985Z" fill="white"/>
</g>
<path d="M73.6445 251.187C73.4139 251.186 73.1925 251.096 73.0258 250.937C72.8592 250.777 72.76 250.56 72.7485 250.33C71.7309 227.379 73.9581 211.687 73.9837 211.533C73.9973 211.414 74.0346 211.299 74.0935 211.194C74.1525 211.09 74.2318 210.998 74.3267 210.925C74.4217 210.852 74.5304 210.798 74.6464 210.768C74.7624 210.737 74.8833 210.73 75.002 210.747C75.1207 210.765 75.2348 210.805 75.3374 210.867C75.4401 210.929 75.5292 211.012 75.5996 211.109C75.6699 211.206 75.7201 211.316 75.747 211.433C75.774 211.55 75.7772 211.671 75.7565 211.789C75.7565 211.943 73.5357 227.482 74.5405 250.247C74.5465 250.364 74.529 250.482 74.489 250.593C74.449 250.704 74.3873 250.806 74.3075 250.893C74.2277 250.98 74.1313 251.051 74.0241 251.1C73.9169 251.149 73.8009 251.177 73.6829 251.181L73.6445 251.187Z" fill="#263238"/>
<g opacity="0.6">
<path d="M73.6445 251.187C73.4139 251.186 73.1925 251.096 73.0258 250.937C72.8592 250.777 72.76 250.56 72.7485 250.33C71.7309 227.379 73.9581 211.687 73.9837 211.533C73.9973 211.414 74.0346 211.299 74.0935 211.194C74.1525 211.09 74.2318 210.998 74.3267 210.925C74.4217 210.852 74.5304 210.798 74.6464 210.768C74.7624 210.737 74.8833 210.73 75.002 210.747C75.1207 210.765 75.2348 210.805 75.3374 210.867C75.4401 210.929 75.5292 211.012 75.5996 211.109C75.6699 211.206 75.7201 211.316 75.747 211.433C75.774 211.55 75.7772 211.671 75.7565 211.789C75.7565 211.943 73.5357 227.482 74.5405 250.247C74.5465 250.364 74.529 250.482 74.489 250.593C74.449 250.704 74.3873 250.806 74.3075 250.893C74.2277 250.98 74.1313 251.051 74.0241 251.1C73.9169 251.149 73.8009 251.177 73.6829 251.181L73.6445 251.187Z" fill="white"/>
</g>
<path opacity="0.2" d="M80.1982 204.947C80.1982 204.947 92.3582 205.331 96.4606 208.666C100.563 212 140.461 203.795 140.461 203.795C140.461 203.795 119.981 200.243 108.614 200.435C97.2478 200.627 83.3918 203.366 80.1982 204.947Z" fill="white"/>
<path opacity="0.2" d="M94.7199 200.762C94.7199 200.762 83.6991 202.074 76.5951 204.947C76.5951 204.947 65.1135 204.679 61.4463 209.741C64.7807 203.981 80.5951 201.6 94.7263 200.781L94.7199 200.762Z" fill="white"/>
<path opacity="0.2" d="M175.77 172.326C165.133 170.669 151.398 171.814 151.398 171.814C129.037 168.352 105.581 171.744 105.133 171.814C112.371 167.546 132.512 164.384 158.662 166.15C167.27 166.726 173.235 168.998 175.085 171.27C175.343 171.602 175.572 171.955 175.77 172.326Z" fill="white"/>
<g opacity="0.4">
<path d="M149.664 225.478C149.586 225.478 149.511 225.448 149.455 225.395C149.399 225.341 149.366 225.268 149.363 225.19C149.363 225.011 148.64 207.328 145.427 203.392C145.399 203.358 145.379 203.317 145.369 203.274C145.359 203.231 145.359 203.186 145.369 203.142L151.34 173.35C151.354 173.286 151.388 173.227 151.438 173.183C151.487 173.139 151.55 173.113 151.616 173.107C151.782 173.107 168.057 172.058 175.852 174.221C175.928 174.242 175.993 174.292 176.033 174.36C176.072 174.428 176.083 174.509 176.064 174.586C176.053 174.624 176.035 174.66 176.011 174.691C175.987 174.723 175.956 174.749 175.922 174.768C175.887 174.788 175.849 174.801 175.81 174.806C175.771 174.81 175.731 174.807 175.692 174.797C168.499 172.8 153.888 173.574 151.884 173.69L145.977 203.13C149.241 207.418 149.932 224.448 149.964 225.178C149.966 225.256 149.937 225.332 149.883 225.39C149.829 225.447 149.755 225.481 149.676 225.485L149.664 225.478Z" fill="#263238"/>
</g>
<path d="M183.75 208.64H175.725C174.933 208.64 174.291 209.281 174.291 210.073V210.092C174.291 210.884 174.933 211.526 175.725 211.526H183.75C184.542 211.526 185.184 210.884 185.184 210.092V210.073C185.184 209.281 184.542 208.64 183.75 208.64Z" fill="#263238"/>
<path opacity="0.7" d="M183.75 208.64H175.725C174.933 208.64 174.291 209.281 174.291 210.073V210.092C174.291 210.884 174.933 211.526 175.725 211.526H183.75C184.542 211.526 185.184 210.884 185.184 210.092V210.073C185.184 209.281 184.542 208.64 183.75 208.64Z" fill="white"/>
<path d="M44.9922 257.741H120.256C120.256 257.741 119.943 228.691 133.779 228.691C144.851 228.691 147.667 247.302 148.352 254.733C148.429 255.555 148.81 256.32 149.421 256.876C150.032 257.433 150.828 257.741 151.655 257.741H209.255C209.89 257.732 210.499 257.487 210.964 257.054C211.429 256.621 211.716 256.031 211.77 255.398C212.218 248.934 214.381 231.309 224.608 231.309C237.139 231.309 240.307 243.277 240.307 257.209L246.131 249.363C246.131 249.363 250.221 212.557 222.509 214.304C195.629 216.006 196.909 247.84 196.909 247.84H158.957C158.957 247.84 156.896 222.573 145.594 215.981C134.291 209.389 116.525 212.211 110.227 217.83C100.403 226.56 99.8402 250.573 99.8402 250.573H46.4642L44.9922 257.741Z" fill="#689F3A"/>
<path opacity="0.2" d="M44.9922 257.741H120.256C120.256 257.741 119.943 228.691 133.779 228.691C144.851 228.691 147.667 247.302 148.352 254.733C148.429 255.555 148.81 256.32 149.421 256.876C150.032 257.433 150.828 257.741 151.655 257.741H209.255C209.89 257.732 210.499 257.487 210.964 257.054C211.429 256.621 211.716 256.031 211.77 255.398C212.218 248.934 214.381 231.309 224.608 231.309C237.139 231.309 240.307 243.277 240.307 257.209L246.131 249.363C246.131 249.363 250.221 212.557 222.509 214.304C195.629 216.006 196.909 247.84 196.909 247.84H158.957C158.957 247.84 156.896 222.573 145.594 215.981C134.291 209.389 116.525 212.211 110.227 217.83C100.403 226.56 99.8402 250.573 99.8402 250.573H46.4642L44.9922 257.741Z" fill="#263238"/>
<path opacity="0.2" d="M100.96 247.865C100.96 247.865 101.101 218.233 119.782 214.176C131.981 211.526 145.005 214.176 148.794 220.845C148.794 220.845 145.03 216.064 135.072 216.064C125.114 216.064 119.194 238.387 117.299 244.416C115.405 250.444 100.96 247.865 100.96 247.865Z" fill="white"/>
<path d="M116.912 229.654C117.361 225.376 114.993 221.621 111.622 221.266C108.251 220.912 105.153 224.093 104.704 228.371C104.254 232.649 106.622 236.404 109.994 236.759C113.365 237.113 116.462 233.932 116.912 229.654Z" fill="#263238"/>
<path opacity="0.7" d="M116.912 229.654C117.361 225.376 114.993 221.621 111.622 221.266C108.251 220.912 105.153 224.093 104.704 228.371C104.254 232.649 106.622 236.404 109.994 236.759C113.365 237.113 116.462 233.932 116.912 229.654Z" fill="white"/>
<path d="M114.999 229.549C115.379 225.938 113.381 222.769 110.537 222.471C107.693 222.172 105.08 224.856 104.701 228.466C104.321 232.076 106.319 235.245 109.163 235.544C112.007 235.843 114.62 233.159 114.999 229.549Z" fill="#689F3A"/>
<path opacity="0.8" d="M114.999 229.549C115.379 225.938 113.381 222.769 110.537 222.471C107.693 222.172 105.08 224.856 104.701 228.466C104.321 232.076 106.319 235.245 109.163 235.544C112.007 235.843 114.62 233.159 114.999 229.549Z" fill="white"/>
<path d="M110.758 231.29C112.373 231.29 113.683 229.82 113.683 228.007C113.683 226.194 112.373 224.724 110.758 224.724C109.142 224.724 107.833 226.194 107.833 228.007C107.833 229.82 109.142 231.29 110.758 231.29Z" fill="white"/>
<path d="M107.833 233.933C108.639 233.933 109.292 233.2 109.292 232.295C109.292 231.39 108.639 230.656 107.833 230.656C107.027 230.656 106.374 231.39 106.374 232.295C106.374 233.2 107.027 233.933 107.833 233.933Z" fill="white"/>
<path opacity="0.2" d="M197.933 246.893C197.933 246.893 203.053 248.903 207.168 246.893C211.283 244.883 216.768 225.459 224.102 220.845C231.437 216.231 238.931 220.986 241.382 224.723C241.382 224.723 237.945 215.514 224.569 214.925C211.193 214.336 197.933 225.223 197.933 246.893Z" fill="white"/>
<path d="M118.157 249.574H45.395C42.9914 249.574 41.043 251.523 41.043 253.926V253.997C41.043 256.4 42.9914 258.349 45.395 258.349H118.157C120.56 258.349 122.509 256.4 122.509 253.997V253.926C122.509 251.523 120.56 249.574 118.157 249.574Z" fill="#263238"/>
<path opacity="0.7" d="M118.157 249.574H45.395C42.9914 249.574 41.043 251.523 41.043 253.926V253.997C41.043 256.4 42.9914 258.349 45.395 258.349H118.157C120.56 258.349 122.509 256.4 122.509 253.997V253.926C122.509 251.523 120.56 249.574 118.157 249.574Z" fill="white"/>
<path opacity="0.2" d="M122.509 253.958C122.505 255.122 122.042 256.237 121.219 257.059C120.396 257.882 119.282 258.345 118.118 258.349H45.4399C44.6652 258.35 43.9046 258.142 43.2383 257.747H109.741C110.613 257.753 111.468 257.498 112.194 257.015C112.921 256.532 113.487 255.843 113.819 255.037C114.151 254.23 114.235 253.342 114.059 252.487C113.883 251.633 113.456 250.85 112.832 250.24C112.567 249.969 112.265 249.737 111.936 249.549H118.118C119.282 249.552 120.396 250.016 121.219 250.838C122.042 251.661 122.505 252.776 122.509 253.939V253.958Z" fill="#263238"/>
<path d="M104.685 252.371H101.018C100.155 252.371 99.4561 253.07 99.4561 253.933V253.958C99.4561 254.821 100.155 255.52 101.018 255.52H104.685C105.547 255.52 106.246 254.821 106.246 253.958V253.933C106.246 253.07 105.547 252.371 104.685 252.371Z" fill="#689F3A"/>
<path d="M48.4602 252.371H44.793C43.9306 252.371 43.2314 253.07 43.2314 253.933V253.958C43.2314 254.821 43.9306 255.52 44.793 255.52H48.4602C49.3227 255.52 50.0218 254.821 50.0218 253.958V253.933C50.0218 253.07 49.3227 252.371 48.4602 252.371Z" fill="#689F3A"/>
<path d="M247.539 249.574H243.059C240.655 249.574 238.707 251.523 238.707 253.926V253.997C238.707 256.4 240.655 258.349 243.059 258.349H247.539C249.943 258.349 251.891 256.4 251.891 253.997V253.926C251.891 251.523 249.943 249.574 247.539 249.574Z" fill="#263238"/>
<path opacity="0.7" d="M247.539 249.574H243.059C240.655 249.574 238.707 251.523 238.707 253.926V253.997C238.707 256.4 240.655 258.349 243.059 258.349H247.539C249.943 258.349 251.891 256.4 251.891 253.997V253.926C251.891 251.523 249.943 249.574 247.539 249.574Z" fill="white"/>
<path d="M145.984 205.511C146.012 205.711 145.979 205.915 145.889 206.096C145.798 206.277 145.654 206.426 145.476 206.523C145.299 206.62 145.096 206.66 144.894 206.638C144.693 206.616 144.504 206.533 144.351 206.4C144.198 206.268 144.09 206.091 144.04 205.895C143.99 205.699 144.002 205.492 144.073 205.303C144.144 205.113 144.272 204.95 144.438 204.835C144.605 204.72 144.802 204.659 145.005 204.66C145.125 204.651 145.246 204.666 145.36 204.704C145.474 204.742 145.58 204.803 145.671 204.882C145.762 204.961 145.836 205.057 145.89 205.165C145.944 205.273 145.976 205.391 145.984 205.511Z" fill="#263238"/>
<path opacity="0.2" d="M145.984 205.511C146.012 205.711 145.979 205.915 145.889 206.096C145.798 206.277 145.654 206.426 145.476 206.523C145.299 206.62 145.096 206.66 144.894 206.638C144.693 206.616 144.504 206.533 144.351 206.4C144.198 206.268 144.09 206.091 144.04 205.895C143.99 205.699 144.002 205.492 144.073 205.303C144.144 205.113 144.272 204.95 144.438 204.835C144.605 204.72 144.802 204.659 145.005 204.66C145.125 204.651 145.246 204.666 145.36 204.704C145.474 204.742 145.58 204.803 145.671 204.882C145.762 204.961 145.836 205.057 145.89 205.165C145.944 205.273 145.976 205.391 145.984 205.511Z" fill="white"/>
<path d="M155.808 198.713C155.808 200.672 154.528 202.265 153.011 202.265C151.494 202.265 150.221 200.672 150.221 198.713C150.221 196.755 151.469 195.161 153.011 195.161C154.554 195.161 155.808 196.748 155.808 198.713Z" fill="#263238"/>
<path opacity="0.5" d="M155.808 198.714C155.808 200.672 154.528 202.266 153.011 202.266C152.911 202.272 152.81 202.272 152.71 202.266C151.315 202.074 150.221 200.57 150.221 198.733C150.221 196.896 151.315 195.392 152.71 195.2C152.81 195.194 152.911 195.194 153.011 195.2C154.554 195.162 155.808 196.755 155.808 198.714Z" fill="white"/>
<path opacity="0.5" d="M155.206 198.713C155.206 200.55 154.112 202.054 152.71 202.246C151.315 202.054 150.221 200.55 150.221 198.713C150.221 196.877 151.315 195.373 152.71 195.181C154.112 195.373 155.206 196.877 155.206 198.713Z" fill="white"/>
<path d="M146.086 205.696H145.088C145.008 205.696 144.932 205.665 144.875 205.608C144.819 205.552 144.787 205.475 144.787 205.396C144.787 205.316 144.819 205.239 144.875 205.183C144.932 205.127 145.008 205.095 145.088 205.095H146.086C146.329 205.097 146.569 205.047 146.79 204.948C147.011 204.848 147.208 204.702 147.366 204.519L151.206 200.071C151.231 200.037 151.262 200.008 151.298 199.987C151.333 199.965 151.373 199.952 151.415 199.947C151.457 199.941 151.499 199.945 151.539 199.957C151.579 199.969 151.616 199.99 151.647 200.017C151.679 200.044 151.705 200.078 151.723 200.116C151.741 200.153 151.751 200.194 151.752 200.236C151.753 200.278 151.746 200.32 151.73 200.358C151.714 200.397 151.691 200.432 151.661 200.461L147.821 204.909C147.606 205.158 147.339 205.357 147.04 205.493C146.741 205.629 146.415 205.699 146.086 205.696Z" fill="#263238"/>
<g opacity="0.5">
<path d="M146.086 205.696H145.088C145.008 205.696 144.932 205.665 144.875 205.608C144.819 205.552 144.787 205.475 144.787 205.396C144.787 205.316 144.819 205.239 144.875 205.183C144.932 205.127 145.008 205.095 145.088 205.095H146.086C146.329 205.097 146.569 205.047 146.79 204.948C147.011 204.848 147.208 204.702 147.366 204.519L151.206 200.071C151.231 200.037 151.262 200.008 151.298 199.987C151.333 199.965 151.373 199.952 151.415 199.947C151.457 199.941 151.499 199.945 151.539 199.957C151.579 199.969 151.616 199.99 151.647 200.017C151.679 200.044 151.705 200.078 151.723 200.116C151.741 200.153 151.751 200.194 151.752 200.236C151.753 200.278 151.746 200.32 151.73 200.358C151.714 200.397 151.691 200.432 151.661 200.461L147.821 204.909C147.606 205.158 147.339 205.357 147.04 205.493C146.741 205.629 146.415 205.699 146.086 205.696Z" fill="white"/>
</g>
<path opacity="0.2" d="M93.5996 198.714C93.5996 198.714 99.2508 184.634 104.307 177.267C104.307 177.267 109.561 175.693 122.227 175.533C122.227 175.533 115.276 185.05 111.987 192.742C111.987 192.742 112.915 185.286 115.462 179.482C111.819 185.198 108.792 191.284 106.432 197.638C102.134 197.695 97.8464 198.054 93.5996 198.714Z" fill="white"/>
</svg>
