<svg width="32" height="32" viewBox="0 0 32 32" fill="none" xmlns="http://www.w3.org/2000/svg">
<circle cx="16" cy="16" r="16" fill="#E6FFD0"/>
<path fill-rule="evenodd" clip-rule="evenodd" d="M19.682 12.9306V13.9528C20.8302 14.3112 21.6668 15.3507 21.6668 16.5922V19.8835C21.6668 21.4204 20.3926 22.6666 18.8216 22.6666H13.1794C11.6077 22.6666 10.3335 21.4204 10.3335 19.8835V16.5922C10.3335 15.3507 11.1708 14.3112 12.3184 13.9528V12.9306C12.3251 10.9431 13.9713 9.33325 15.99 9.33325C18.0358 9.33325 19.682 10.9431 19.682 12.9306ZM16.0036 10.4926C17.3787 10.4926 18.4965 11.5857 18.4965 12.9306V13.8091H13.5038V12.9173C13.5106 11.5791 14.6284 10.4926 16.0036 10.4926ZM16.5929 18.9699C16.5929 19.2945 16.3287 19.5529 15.9968 19.5529C15.6716 19.5529 15.4074 19.2945 15.4074 18.9699V17.4991C15.4074 17.1811 15.6716 16.9228 15.9968 16.9228C16.3287 16.9228 16.5929 17.1811 16.5929 17.4991V18.9699Z" fill="#689F3A"/>
</svg>
