<svg width="20" height="20" viewBox="0 0 20 20" fill="none" xmlns="http://www.w3.org/2000/svg">
<path fill-rule="evenodd" clip-rule="evenodd" d="M16.2153 4.93223C16.5071 4.93223 16.75 5.17447 16.75 5.48272V5.76772C16.75 6.06846 16.5071 6.31821 16.2153 6.31821H3.78539C3.49289 6.31821 3.25 6.06846 3.25 5.76772V5.48272C3.25 5.17447 3.49289 4.93223 3.78539 4.93223H5.97217C6.41639 4.93223 6.80298 4.61648 6.90291 4.17098L7.01743 3.65949C7.1954 2.96275 7.78112 2.5 8.45145 2.5H11.5485C12.2116 2.5 12.8039 2.96275 12.9753 3.62274L13.0978 4.17023C13.197 4.61648 13.5836 4.93223 14.0286 4.93223H16.2153ZM15.1044 15.3505C15.3327 13.2228 15.7324 8.16784 15.7324 8.11684C15.747 7.96235 15.6967 7.8161 15.5967 7.69835C15.4895 7.5881 15.3538 7.52285 15.2043 7.52285H4.80139C4.65113 7.52285 4.50817 7.5881 4.40897 7.69835C4.30831 7.8161 4.25871 7.96235 4.266 8.11684C4.26734 8.12621 4.28168 8.30428 4.30566 8.60197C4.41219 9.92441 4.70888 13.6076 4.90059 15.3505C5.03626 16.6345 5.87874 17.4415 7.09905 17.4708C8.04072 17.4925 9.01084 17.5 10.0028 17.5C10.9372 17.5 11.8862 17.4925 12.857 17.4708C14.1197 17.449 14.9614 16.6563 15.1044 15.3505Z" fill="#B80B0B"/>
</svg>
