<svg width="48" height="49" viewBox="0 0 48 49" fill="none" xmlns="http://www.w3.org/2000/svg">
<circle cx="24" cy="25" r="24" fill="#FFD0D0"/>
<path fill-rule="evenodd" clip-rule="evenodd" d="M30.9059 19.3691C31.2301 19.3691 31.5 19.6383 31.5 19.9808V20.2974C31.5 20.6316 31.2301 20.9091 30.9059 20.9091H17.0949C16.7699 20.9091 16.5 20.6316 16.5 20.2974V19.9808C16.5 19.6383 16.7699 19.3691 17.0949 19.3691H19.5246C20.0182 19.3691 20.4478 19.0183 20.5588 18.5233L20.686 17.9549C20.8838 17.1808 21.5346 16.6666 22.2794 16.6666H25.7206C26.4573 16.6666 27.1154 17.1808 27.3059 17.9141L27.442 18.5224C27.5522 19.0183 27.9818 19.3691 28.4762 19.3691H30.9059ZM29.6715 30.945C29.9252 28.5808 30.3693 22.9642 30.3693 22.9076C30.3855 22.7359 30.3296 22.5734 30.2186 22.4426C30.0994 22.3201 29.9487 22.2476 29.7826 22.2476H18.2238C18.0568 22.2476 17.898 22.3201 17.7877 22.4426C17.6759 22.5734 17.6208 22.7359 17.6289 22.9076C17.6304 22.918 17.6463 23.1158 17.673 23.4466C17.7913 24.9159 18.121 29.0084 18.334 30.945C18.4847 32.3716 19.4208 33.2683 20.7767 33.3008C21.823 33.325 22.9009 33.3333 24.0032 33.3333C25.0414 33.3333 26.0958 33.325 27.1745 33.3008C28.5774 33.2766 29.5127 32.3958 29.6715 30.945Z" fill="#B80B0B"/>
</svg>
