<svg width="334" height="239" viewBox="0 0 334 239" fill="none" xmlns="http://www.w3.org/2000/svg">
<rect x="0.367188" y="0.205078" width="333" height="238" rx="17.6456" fill="#F1F9FF"/>
<rect x="146.367" y="61.2051" width="41" height="41" rx="20.5" fill="white"/>
<g clip-path="url(#clip0_2710_15472)">
<path d="M176.136 78.5848H174.074V77.2956C174.074 76.8314 174.228 76.3931 174.486 76.0321C174.615 75.8516 174.615 75.5679 174.435 75.4132L173.738 74.6397C173.558 74.4334 173.223 74.4076 173.016 74.5881C172.991 74.6139 172.965 74.6397 172.939 74.6654C172.346 75.4132 172.011 76.3415 172.011 77.2956V78.5848H168.71L166.905 74.356C166.673 73.7887 166.106 73.4277 165.487 73.4277H161.181C160.33 73.4277 159.634 74.1239 159.634 74.9749V79.6936C159.35 79.4616 158.963 79.4873 158.705 79.7452L157.7 80.7508C157.416 81.0345 157.416 81.4728 157.7 81.7565L157.855 81.9112C157.7 82.1948 157.571 82.5042 157.468 82.8395H157.236C156.849 82.8395 156.514 83.1489 156.514 83.5615V84.9797C156.514 85.3664 156.823 85.7017 157.236 85.7017H157.468C157.571 86.0111 157.7 86.3205 157.855 86.6299L157.7 86.7847C157.416 87.0683 157.416 87.5066 157.7 87.7903L158.705 88.7959C158.989 89.0796 159.427 89.0796 159.711 88.7959L159.866 88.6412C160.149 88.7959 160.459 88.9249 160.794 89.028V89.2601C160.794 89.6468 161.104 89.9821 161.516 89.9821H162.934C163.321 89.9821 163.656 89.6726 163.656 89.2601V89.028C163.966 88.9249 164.275 88.7959 164.585 88.6412L164.739 88.7959C165.023 89.0796 165.461 89.0796 165.745 88.7959L166.751 87.7903C167.034 87.5066 167.034 87.0683 166.751 86.7847L166.596 86.6299C166.751 86.3463 166.879 86.0369 166.983 85.7017H167.215C167.601 85.7017 167.937 85.3922 167.937 84.9797V84.7734H170.541C171.624 83.2778 173.635 82.8137 175.286 83.613L176.91 81.9628C177.091 81.7823 177.219 81.4986 177.219 81.2408V79.6163C177.168 79.049 176.704 78.5848 176.136 78.5848ZM162.212 86.8362C160.794 86.8362 159.634 85.6759 159.634 84.2577C159.634 82.8395 160.794 81.6791 162.212 81.6791C163.63 81.6791 164.791 82.8395 164.791 84.2577C164.791 85.6759 163.63 86.8362 162.212 86.8362ZM162.934 78.5848H161.697V75.4906H165.152L166.493 78.5848H162.934Z" fill="#1358BF"/>
<path d="M173.557 84.2578C171.984 84.2578 170.721 85.5213 170.721 87.0942C170.721 88.6671 171.984 89.9306 173.557 89.9306C175.13 89.9306 176.394 88.6671 176.394 87.0942C176.394 85.5213 175.13 84.2578 173.557 84.2578ZM173.557 87.8678C173.119 87.8678 172.784 87.5326 172.784 87.0942C172.784 86.6559 173.119 86.3207 173.557 86.3207C173.995 86.3207 174.331 86.6559 174.331 87.0942C174.331 87.5326 173.995 87.8678 173.557 87.8678Z" fill="#1358BF"/>
</g>
<path d="M92.9261 126.344C92.2102 126.344 91.5739 126.222 91.017 125.976C90.4635 125.731 90.026 125.39 89.7045 124.952C89.383 124.515 89.2124 124.009 89.1925 123.436H91.0618C91.0784 123.711 91.1695 123.951 91.3352 124.157C91.5009 124.359 91.7214 124.516 91.9964 124.629C92.2715 124.742 92.5798 124.798 92.9212 124.798C93.2857 124.798 93.6089 124.735 93.8906 124.609C94.1723 124.48 94.3928 124.301 94.5518 124.072C94.7109 123.844 94.7888 123.58 94.7855 123.282C94.7888 122.974 94.7093 122.702 94.5469 122.466C94.3845 122.231 94.1491 122.047 93.8409 121.915C93.536 121.782 93.1681 121.716 92.7372 121.716H91.8374V120.294H92.7372C93.0919 120.294 93.4018 120.233 93.6669 120.11C93.9354 119.987 94.1458 119.815 94.2983 119.593C94.4508 119.367 94.5253 119.107 94.522 118.812C94.5253 118.524 94.4607 118.274 94.3281 118.062C94.1989 117.846 94.0149 117.679 93.7763 117.559C93.541 117.44 93.2642 117.381 92.946 117.381C92.6345 117.381 92.3461 117.437 92.081 117.55C91.8158 117.662 91.602 117.823 91.4396 118.032C91.2772 118.237 91.1911 118.483 91.1811 118.768H89.4062C89.4195 118.198 89.5836 117.697 89.8984 117.266C90.2166 116.832 90.6409 116.494 91.1712 116.252C91.7015 116.007 92.2964 115.884 92.956 115.884C93.6354 115.884 94.2254 116.012 94.7259 116.267C95.2296 116.519 95.6191 116.858 95.8942 117.286C96.1693 117.714 96.3068 118.186 96.3068 118.703C96.3101 119.276 96.1411 119.757 95.7997 120.145C95.4616 120.532 95.0175 120.786 94.4673 120.905V120.985C95.1832 121.084 95.7318 121.349 96.1129 121.78C96.4974 122.208 96.688 122.74 96.6847 123.376C96.6847 123.946 96.5223 124.457 96.1974 124.907C95.8759 125.355 95.4318 125.706 94.8651 125.961C94.3016 126.217 93.6553 126.344 92.9261 126.344ZM100.258 126.359C99.7746 126.359 99.3387 126.273 98.951 126.101C98.5665 125.925 98.2616 125.666 98.0362 125.325C97.8141 124.984 97.7031 124.563 97.7031 124.062C97.7031 123.631 97.7826 123.275 97.9417 122.993C98.1008 122.712 98.3179 122.486 98.593 122.317C98.8681 122.148 99.178 122.021 99.5227 121.934C99.8707 121.845 100.23 121.78 100.602 121.741C101.049 121.694 101.412 121.653 101.69 121.616C101.969 121.577 102.171 121.517 102.297 121.437C102.426 121.354 102.491 121.227 102.491 121.055V121.025C102.491 120.65 102.38 120.36 102.158 120.155C101.936 119.949 101.616 119.846 101.198 119.846C100.757 119.846 100.408 119.943 100.149 120.135C99.8939 120.327 99.7216 120.554 99.6321 120.816L97.9517 120.577C98.0842 120.113 98.303 119.725 98.6079 119.414C98.9128 119.099 99.2857 118.864 99.7265 118.708C100.167 118.549 100.655 118.469 101.188 118.469C101.556 118.469 101.922 118.512 102.287 118.599C102.651 118.685 102.985 118.827 103.286 119.026C103.588 119.222 103.83 119.488 104.012 119.827C104.198 120.165 104.29 120.587 104.29 121.094V126.205H102.56V125.156H102.501C102.391 125.368 102.237 125.567 102.038 125.753C101.843 125.935 101.596 126.082 101.298 126.195C101.003 126.305 100.656 126.359 100.258 126.359ZM100.726 125.037C101.087 125.037 101.4 124.965 101.665 124.823C101.931 124.677 102.134 124.485 102.277 124.246C102.423 124.008 102.496 123.747 102.496 123.466V122.566C102.439 122.612 102.343 122.655 102.207 122.695C102.075 122.735 101.926 122.77 101.76 122.8C101.594 122.829 101.43 122.856 101.268 122.879C101.105 122.902 100.964 122.922 100.845 122.939C100.577 122.975 100.336 123.035 100.124 123.118C99.9121 123.201 99.7448 123.317 99.6221 123.466C99.4995 123.612 99.4382 123.8 99.4382 124.032C99.4382 124.364 99.5591 124.614 99.8011 124.783C100.043 124.952 100.351 125.037 100.726 125.037ZM110.801 118.569V120.045H107.51V126.205H105.75V118.569H110.801ZM111.894 129.069V118.569H113.664V119.831H113.769C113.861 119.646 113.992 119.449 114.161 119.24C114.33 119.028 114.559 118.847 114.847 118.698C115.136 118.546 115.504 118.469 115.951 118.469C116.541 118.469 117.073 118.62 117.547 118.922C118.024 119.22 118.402 119.662 118.68 120.249C118.962 120.832 119.103 121.548 119.103 122.397C119.103 123.235 118.966 123.948 118.69 124.535C118.415 125.121 118.041 125.569 117.567 125.877C117.093 126.185 116.556 126.339 115.956 126.339C115.519 126.339 115.156 126.266 114.867 126.121C114.579 125.975 114.347 125.799 114.171 125.594C113.999 125.385 113.865 125.188 113.769 125.002H113.694V129.069H111.894ZM113.659 122.387C113.659 122.881 113.729 123.313 113.868 123.684C114.01 124.056 114.214 124.346 114.479 124.555C114.748 124.76 115.073 124.863 115.454 124.863C115.852 124.863 116.185 124.757 116.453 124.545C116.722 124.329 116.924 124.036 117.06 123.665C117.199 123.29 117.269 122.864 117.269 122.387C117.269 121.913 117.201 121.492 117.065 121.124C116.929 120.756 116.727 120.468 116.458 120.259C116.19 120.05 115.855 119.946 115.454 119.946C115.069 119.946 114.743 120.047 114.475 120.249C114.206 120.451 114.002 120.735 113.863 121.099C113.727 121.464 113.659 121.893 113.659 122.387ZM121.153 129.069C120.908 129.069 120.681 129.049 120.472 129.009C120.266 128.973 120.102 128.93 119.98 128.88L120.397 127.478C120.659 127.554 120.893 127.59 121.098 127.587C121.304 127.584 121.485 127.519 121.64 127.393C121.799 127.271 121.934 127.065 122.043 126.777L122.197 126.364L119.428 118.569H121.337L123.097 124.336H123.177L124.941 118.569H126.856L123.798 127.13C123.655 127.534 123.467 127.881 123.231 128.169C122.996 128.461 122.708 128.683 122.366 128.835C122.028 128.991 121.624 129.069 121.153 129.069ZM127.328 124.112H129.113C129.13 124.397 129.257 124.617 129.496 124.773C129.735 124.929 130.044 125.007 130.426 125.007C130.813 125.007 131.14 124.922 131.405 124.753C131.673 124.581 131.808 124.321 131.808 123.973C131.808 123.767 131.756 123.587 131.654 123.431C131.551 123.272 131.407 123.149 131.221 123.063C131.035 122.977 130.817 122.934 130.565 122.934H129.396V121.656H130.565C130.939 121.656 131.223 121.57 131.415 121.398C131.61 121.225 131.708 121.008 131.708 120.746C131.708 120.465 131.606 120.236 131.4 120.06C131.198 119.885 130.918 119.797 130.56 119.797C130.202 119.797 129.904 119.878 129.665 120.04C129.43 120.203 129.307 120.412 129.297 120.667H127.522C127.529 120.223 127.661 119.836 127.92 119.508C128.182 119.18 128.533 118.925 128.974 118.743C129.418 118.56 129.919 118.469 130.475 118.469C131.072 118.469 131.587 118.559 132.021 118.738C132.456 118.917 132.79 119.167 133.026 119.488C133.261 119.807 133.379 120.181 133.379 120.612C133.379 121.026 133.249 121.369 132.991 121.641C132.732 121.91 132.384 122.102 131.947 122.218V122.297C132.249 122.314 132.52 122.4 132.762 122.556C133.004 122.708 133.196 122.916 133.339 123.177C133.481 123.439 133.553 123.742 133.553 124.087C133.553 124.555 133.419 124.959 133.15 125.3C132.882 125.638 132.512 125.898 132.041 126.081C131.574 126.263 131.039 126.354 130.436 126.354C129.849 126.354 129.324 126.266 128.86 126.091C128.399 125.912 128.033 125.655 127.761 125.32C127.489 124.985 127.345 124.583 127.328 124.112ZM136.355 123.769L139.412 118.569H141.262V126.205H139.522V121L136.474 126.205H134.62V118.569H136.355V123.769ZM141.905 120.045V118.569H148.587V120.045H146.116V126.205H144.376V120.045H141.905ZM152.736 126.354C151.97 126.354 151.309 126.195 150.752 125.877C150.199 125.555 149.773 125.101 149.475 124.515C149.176 123.925 149.027 123.23 149.027 122.432C149.027 121.646 149.176 120.957 149.475 120.363C149.776 119.767 150.197 119.303 150.737 118.971C151.278 118.637 151.912 118.469 152.641 118.469C153.112 118.469 153.556 118.546 153.974 118.698C154.395 118.847 154.766 119.079 155.087 119.394C155.412 119.709 155.667 120.11 155.853 120.597C156.039 121.081 156.131 121.658 156.131 122.327V122.879H149.872V121.666H154.406C154.403 121.321 154.328 121.015 154.183 120.746C154.037 120.474 153.833 120.261 153.571 120.105C153.313 119.949 153.011 119.871 152.666 119.871C152.298 119.871 151.975 119.961 151.697 120.14C151.418 120.315 151.201 120.547 151.046 120.836C150.893 121.121 150.815 121.434 150.812 121.775V122.834C150.812 123.278 150.893 123.66 151.055 123.978C151.218 124.293 151.445 124.535 151.737 124.704C152.028 124.869 152.37 124.952 152.761 124.952C153.023 124.952 153.26 124.916 153.472 124.843C153.684 124.767 153.868 124.656 154.024 124.51C154.179 124.364 154.297 124.183 154.376 123.968L156.057 124.157C155.951 124.601 155.749 124.989 155.45 125.32C155.155 125.648 154.778 125.903 154.317 126.086C153.856 126.265 153.329 126.354 152.736 126.354ZM163.892 128.8V116.023H165.697V128.8H163.892ZM163.892 126.354C163.332 126.354 162.82 126.26 162.356 126.071C161.892 125.882 161.491 125.613 161.153 125.265C160.818 124.917 160.558 124.503 160.372 124.023C160.19 123.539 160.099 123.003 160.099 122.417C160.099 121.83 160.19 121.295 160.372 120.811C160.558 120.327 160.818 119.911 161.153 119.563C161.491 119.212 161.892 118.942 162.356 118.753C162.82 118.564 163.332 118.469 163.892 118.469H164.275V126.354H163.892ZM163.892 124.903H164.116V119.921H163.892C163.574 119.921 163.292 119.987 163.047 120.12C162.805 120.249 162.601 120.43 162.435 120.662C162.273 120.89 162.148 121.156 162.062 121.457C161.979 121.756 161.938 122.075 161.938 122.417C161.938 122.871 162.013 123.287 162.162 123.665C162.311 124.039 162.53 124.339 162.818 124.564C163.11 124.79 163.468 124.903 163.892 124.903ZM165.697 126.354H165.314V118.469H165.697C166.257 118.469 166.769 118.564 167.233 118.753C167.697 118.942 168.096 119.212 168.431 119.563C168.769 119.911 169.029 120.327 169.211 120.811C169.397 121.295 169.49 121.83 169.49 122.417C169.49 123.003 169.397 123.539 169.211 124.023C169.029 124.503 168.769 124.917 168.431 125.265C168.096 125.613 167.697 125.882 167.233 126.071C166.769 126.26 166.257 126.354 165.697 126.354ZM165.697 124.903C166.018 124.903 166.3 124.838 166.542 124.709C166.784 124.579 166.986 124.4 167.148 124.172C167.314 123.943 167.438 123.68 167.521 123.381C167.604 123.08 167.645 122.758 167.645 122.417C167.645 121.963 167.573 121.547 167.427 121.169C167.281 120.791 167.062 120.489 166.77 120.264C166.482 120.035 166.124 119.921 165.697 119.921H165.473V124.903H165.697ZM173.99 126.354C173.244 126.354 172.598 126.19 172.051 125.862C171.504 125.534 171.08 125.075 170.778 124.485C170.48 123.895 170.331 123.206 170.331 122.417C170.331 121.628 170.48 120.937 170.778 120.344C171.08 119.75 171.504 119.29 172.051 118.961C172.598 118.633 173.244 118.469 173.99 118.469C174.735 118.469 175.382 118.633 175.929 118.961C176.475 119.29 176.898 119.75 177.196 120.344C177.498 120.937 177.649 121.628 177.649 122.417C177.649 123.206 177.498 123.895 177.196 124.485C176.898 125.075 176.475 125.534 175.929 125.862C175.382 126.19 174.735 126.354 173.99 126.354ZM174 124.912C174.404 124.912 174.742 124.801 175.014 124.579C175.286 124.354 175.488 124.052 175.62 123.675C175.756 123.297 175.824 122.876 175.824 122.412C175.824 121.944 175.756 121.522 175.62 121.144C175.488 120.763 175.286 120.46 175.014 120.234C174.742 120.009 174.404 119.896 174 119.896C173.585 119.896 173.241 120.009 172.966 120.234C172.694 120.46 172.49 120.763 172.354 121.144C172.221 121.522 172.155 121.944 172.155 122.412C172.155 122.876 172.221 123.297 172.354 123.675C172.49 124.052 172.694 124.354 172.966 124.579C173.241 124.801 173.585 124.912 174 124.912ZM177.985 120.045V118.569H184.667V120.045H182.196V126.205H180.456V120.045H177.985ZM188.766 126.354C188.02 126.354 187.374 126.19 186.827 125.862C186.28 125.534 185.856 125.075 185.555 124.485C185.256 123.895 185.107 123.206 185.107 122.417C185.107 121.628 185.256 120.937 185.555 120.344C185.856 119.75 186.28 119.29 186.827 118.961C187.374 118.633 188.02 118.469 188.766 118.469C189.512 118.469 190.158 118.633 190.705 118.961C191.252 119.29 191.675 119.75 191.973 120.344C192.275 120.937 192.425 121.628 192.425 122.417C192.425 123.206 192.275 123.895 191.973 124.485C191.675 125.075 191.252 125.534 190.705 125.862C190.158 126.19 189.512 126.354 188.766 126.354ZM188.776 124.912C189.181 124.912 189.519 124.801 189.79 124.579C190.062 124.354 190.264 124.052 190.397 123.675C190.533 123.297 190.601 122.876 190.601 122.412C190.601 121.944 190.533 121.522 190.397 121.144C190.264 120.763 190.062 120.46 189.79 120.234C189.519 120.009 189.181 119.896 188.776 119.896C188.362 119.896 188.017 120.009 187.742 120.234C187.47 120.46 187.266 120.763 187.131 121.144C186.998 121.522 186.932 121.944 186.932 122.412C186.932 122.876 186.998 123.297 187.131 123.675C187.266 124.052 187.47 124.354 187.742 124.579C188.017 124.801 188.362 124.912 188.776 124.912ZM198.654 118.569V120.045H195.363V126.205H193.603V118.569H198.654ZM199.747 129.069V118.569H201.517V119.831H201.621C201.714 119.646 201.845 119.449 202.014 119.24C202.183 119.028 202.412 118.847 202.7 118.698C202.988 118.546 203.356 118.469 203.804 118.469C204.394 118.469 204.926 118.62 205.4 118.922C205.877 119.22 206.255 119.662 206.533 120.249C206.815 120.832 206.956 121.548 206.956 122.397C206.956 123.235 206.818 123.948 206.543 124.535C206.268 125.121 205.894 125.569 205.42 125.877C204.946 126.185 204.409 126.339 203.809 126.339C203.371 126.339 203.008 126.266 202.72 126.121C202.432 125.975 202.2 125.799 202.024 125.594C201.852 125.385 201.717 125.188 201.621 125.002H201.547V129.069H199.747ZM201.512 122.387C201.512 122.881 201.581 123.313 201.721 123.684C201.863 124.056 202.067 124.346 202.332 124.555C202.601 124.76 202.925 124.863 203.307 124.863C203.704 124.863 204.037 124.757 204.306 124.545C204.574 124.329 204.777 124.036 204.912 123.665C205.052 123.29 205.121 122.864 205.121 122.387C205.121 121.913 205.053 121.492 204.917 121.124C204.782 120.756 204.579 120.468 204.311 120.259C204.042 120.05 203.708 119.946 203.307 119.946C202.922 119.946 202.596 120.047 202.327 120.249C202.059 120.451 201.855 120.735 201.716 121.099C201.58 121.464 201.512 121.893 201.512 122.387ZM210.344 126.359C209.861 126.359 209.425 126.273 209.037 126.101C208.652 125.925 208.348 125.666 208.122 125.325C207.9 124.984 207.789 124.563 207.789 124.062C207.789 123.631 207.869 123.275 208.028 122.993C208.187 122.712 208.404 122.486 208.679 122.317C208.954 122.148 209.264 122.021 209.609 121.934C209.957 121.845 210.316 121.78 210.687 121.741C211.135 121.694 211.498 121.653 211.776 121.616C212.055 121.577 212.257 121.517 212.383 121.437C212.512 121.354 212.577 121.227 212.577 121.055V121.025C212.577 120.65 212.466 120.36 212.244 120.155C212.022 119.949 211.702 119.846 211.284 119.846C210.843 119.846 210.494 119.943 210.235 120.135C209.98 120.327 209.807 120.554 209.718 120.816L208.038 120.577C208.17 120.113 208.389 119.725 208.694 119.414C208.999 119.099 209.372 118.864 209.812 118.708C210.253 118.549 210.74 118.469 211.274 118.469C211.642 118.469 212.008 118.512 212.373 118.599C212.737 118.685 213.071 118.827 213.372 119.026C213.674 119.222 213.916 119.488 214.098 119.827C214.284 120.165 214.376 120.587 214.376 121.094V126.205H212.646V125.156H212.587C212.477 125.368 212.323 125.567 212.124 125.753C211.929 125.935 211.682 126.082 211.383 126.195C211.089 126.305 210.742 126.359 210.344 126.359ZM210.812 125.037C211.173 125.037 211.486 124.965 211.751 124.823C212.017 124.677 212.22 124.485 212.363 124.246C212.509 124.008 212.582 123.747 212.582 123.466V122.566C212.525 122.612 212.429 122.655 212.293 122.695C212.161 122.735 212.012 122.77 211.846 122.8C211.68 122.829 211.516 122.856 211.354 122.879C211.191 122.902 211.05 122.922 210.931 122.939C210.663 122.975 210.422 123.035 210.21 123.118C209.998 123.201 209.831 123.317 209.708 123.466C209.585 123.612 209.524 123.8 209.524 124.032C209.524 124.364 209.645 124.614 209.887 124.783C210.129 124.952 210.437 125.037 210.812 125.037ZM219.301 128.8V116.023H221.106V128.8H219.301ZM219.301 126.354C218.741 126.354 218.229 126.26 217.765 126.071C217.301 125.882 216.9 125.613 216.562 125.265C216.227 124.917 215.967 124.503 215.781 124.023C215.599 123.539 215.508 123.003 215.508 122.417C215.508 121.83 215.599 121.295 215.781 120.811C215.967 120.327 216.227 119.911 216.562 119.563C216.9 119.212 217.301 118.942 217.765 118.753C218.229 118.564 218.741 118.469 219.301 118.469H219.684V126.354H219.301ZM219.301 124.903H219.525V119.921H219.301C218.983 119.921 218.701 119.987 218.456 120.12C218.214 120.249 218.01 120.43 217.845 120.662C217.682 120.89 217.558 121.156 217.472 121.457C217.389 121.756 217.347 122.075 217.347 122.417C217.347 122.871 217.422 123.287 217.571 123.665C217.72 124.039 217.939 124.339 218.227 124.564C218.519 124.79 218.877 124.903 219.301 124.903ZM221.106 126.354H220.723V118.469H221.106C221.666 118.469 222.178 118.564 222.642 118.753C223.106 118.942 223.506 119.212 223.84 119.563C224.178 119.911 224.439 120.327 224.621 120.811C224.806 121.295 224.899 121.83 224.899 122.417C224.899 123.003 224.806 123.539 224.621 124.023C224.439 124.503 224.178 124.917 223.84 125.265C223.506 125.613 223.106 125.882 222.642 126.071C222.178 126.26 221.666 126.354 221.106 126.354ZM221.106 124.903C221.427 124.903 221.709 124.838 221.951 124.709C222.193 124.579 222.395 124.4 222.558 124.172C222.723 123.943 222.848 123.68 222.931 123.381C223.013 123.08 223.055 122.758 223.055 122.417C223.055 121.963 222.982 121.547 222.836 121.169C222.69 120.791 222.471 120.489 222.18 120.264C221.891 120.035 221.533 119.921 221.106 119.921H220.882V124.903H221.106ZM227.803 123.769L230.861 118.569H232.71V126.205H230.97V121L227.922 126.205H226.068V118.569H227.803V123.769ZM238.24 121.696V123.177H234.129V121.696H238.24ZM235.556 118.569V126.205H233.751V118.569H235.556ZM240.547 126.354C239.811 126.354 239.173 126.187 238.633 125.852C238.096 125.517 237.68 125.053 237.385 124.46C237.09 123.867 236.943 123.181 236.943 122.402C236.943 121.623 237.09 120.939 237.385 120.349C237.68 119.759 238.096 119.298 238.633 118.966C239.173 118.635 239.811 118.469 240.547 118.469C241.28 118.469 241.914 118.635 242.451 118.966C242.991 119.298 243.409 119.759 243.704 120.349C244.002 120.939 244.151 121.623 244.151 122.402C244.151 123.181 244.002 123.867 243.704 124.46C243.409 125.053 242.991 125.517 242.451 125.852C241.914 126.187 241.28 126.354 240.547 126.354ZM240.547 124.863C240.981 124.863 241.336 124.753 241.611 124.535C241.886 124.316 242.088 124.021 242.218 123.65C242.347 123.278 242.411 122.863 242.411 122.402C242.411 121.941 242.347 121.525 242.218 121.154C242.088 120.783 241.886 120.489 241.611 120.274C241.336 120.055 240.981 119.946 240.547 119.946C240.11 119.946 239.752 120.055 239.473 120.274C239.198 120.489 238.996 120.783 238.867 121.154C238.737 121.525 238.673 121.941 238.673 122.402C238.673 122.866 238.737 123.283 238.867 123.655C238.996 124.026 239.198 124.321 239.473 124.54C239.752 124.755 240.11 124.863 240.547 124.863Z" fill="#273043"/>
<rect x="77.8672" y="145.205" width="178" height="32" rx="12" fill="white"/>
<path d="M141.845 165.824C141.26 165.824 140.737 165.724 140.277 165.522C139.82 165.32 139.458 165.04 139.191 164.682C138.926 164.322 138.784 163.904 138.764 163.43H140.103C140.12 163.688 140.206 163.912 140.362 164.103C140.522 164.29 140.729 164.435 140.985 164.537C141.24 164.64 141.524 164.691 141.837 164.691C142.181 164.691 142.485 164.631 142.749 164.512C143.016 164.393 143.225 164.226 143.375 164.013C143.526 163.797 143.601 163.549 143.601 163.268C143.601 162.975 143.526 162.718 143.375 162.496C143.228 162.272 143.01 162.096 142.723 161.968C142.439 161.84 142.095 161.776 141.692 161.776H140.955V160.702H141.692C142.016 160.702 142.3 160.644 142.544 160.528C142.791 160.411 142.985 160.249 143.124 160.042C143.263 159.831 143.333 159.586 143.333 159.305C143.333 159.035 143.272 158.8 143.149 158.601C143.03 158.4 142.86 158.242 142.638 158.128C142.419 158.015 142.161 157.958 141.862 157.958C141.578 157.958 141.313 158.01 141.066 158.116C140.821 158.218 140.622 158.366 140.469 158.559C140.316 158.749 140.233 158.978 140.222 159.245H138.948C138.962 158.773 139.101 158.358 139.365 158.001C139.632 157.643 139.985 157.363 140.422 157.161C140.86 156.959 141.345 156.858 141.88 156.858C142.439 156.858 142.922 156.968 143.328 157.187C143.737 157.403 144.053 157.691 144.274 158.052C144.499 158.412 144.61 158.807 144.607 159.236C144.61 159.725 144.473 160.14 144.198 160.481C143.925 160.822 143.561 161.05 143.107 161.167V161.235C143.686 161.323 144.135 161.553 144.453 161.925C144.774 162.297 144.933 162.759 144.931 163.31C144.933 163.79 144.8 164.221 144.53 164.601C144.263 164.982 143.898 165.282 143.435 165.501C142.972 165.716 142.442 165.824 141.845 165.824ZM148.163 165.85C147.749 165.85 147.374 165.773 147.038 165.62C146.703 165.464 146.437 165.238 146.241 164.942C146.048 164.647 145.952 164.285 145.952 163.856C145.952 163.486 146.023 163.182 146.165 162.944C146.307 162.705 146.499 162.516 146.74 162.377C146.981 162.238 147.251 162.133 147.55 162.062C147.848 161.991 148.152 161.937 148.462 161.9C148.854 161.854 149.172 161.817 149.416 161.789C149.66 161.758 149.838 161.708 149.949 161.64C150.06 161.572 150.115 161.461 150.115 161.307V161.278C150.115 160.905 150.01 160.617 149.8 160.412C149.592 160.208 149.283 160.106 148.871 160.106C148.442 160.106 148.104 160.201 147.856 160.391C147.612 160.579 147.443 160.787 147.349 161.018L146.152 160.745C146.294 160.347 146.501 160.026 146.774 159.782C147.05 159.535 147.366 159.356 147.724 159.245C148.082 159.131 148.459 159.074 148.854 159.074C149.115 159.074 149.392 159.106 149.685 159.168C149.98 159.228 150.256 159.339 150.511 159.501C150.77 159.662 150.981 159.894 151.146 160.195C151.311 160.493 151.393 160.881 151.393 161.358V165.705H150.149V164.81H150.098C150.016 164.975 149.892 165.137 149.727 165.296C149.562 165.455 149.351 165.587 149.092 165.692C148.834 165.797 148.524 165.85 148.163 165.85ZM148.44 164.827C148.793 164.827 149.094 164.758 149.344 164.618C149.597 164.479 149.788 164.297 149.919 164.073C150.053 163.846 150.119 163.603 150.119 163.344V162.501C150.074 162.546 149.986 162.589 149.855 162.628C149.727 162.665 149.581 162.698 149.416 162.726C149.251 162.752 149.091 162.776 148.935 162.799C148.778 162.819 148.648 162.836 148.543 162.85C148.295 162.881 148.07 162.934 147.865 163.008C147.663 163.081 147.501 163.188 147.379 163.327C147.26 163.464 147.2 163.645 147.2 163.873C147.2 164.188 147.317 164.427 147.55 164.589C147.783 164.748 148.08 164.827 148.44 164.827ZM156.975 159.16V160.259H154.048V165.705H152.791V159.16H156.975ZM158.022 168.16V159.16H159.266V160.221H159.373C159.446 160.084 159.553 159.927 159.692 159.748C159.831 159.569 160.025 159.412 160.272 159.279C160.519 159.143 160.846 159.074 161.252 159.074C161.78 159.074 162.252 159.208 162.667 159.475C163.081 159.742 163.407 160.127 163.643 160.63C163.881 161.133 164 161.738 164 162.445C164 163.153 163.883 163.759 163.647 164.265C163.411 164.768 163.087 165.155 162.675 165.428C162.263 165.698 161.793 165.833 161.265 165.833C160.867 165.833 160.542 165.766 160.289 165.633C160.039 165.499 159.843 165.343 159.701 165.164C159.559 164.985 159.449 164.826 159.373 164.687H159.296V168.16H158.022ZM159.27 162.432C159.27 162.893 159.337 163.296 159.471 163.643C159.604 163.989 159.797 164.26 160.05 164.456C160.303 164.65 160.613 164.746 160.979 164.746C161.36 164.746 161.678 164.645 161.934 164.444C162.189 164.239 162.383 163.962 162.513 163.613C162.647 163.263 162.714 162.87 162.714 162.432C162.714 162.001 162.648 161.613 162.518 161.269C162.39 160.925 162.196 160.654 161.938 160.455C161.682 160.256 161.363 160.157 160.979 160.157C160.61 160.157 160.297 160.252 160.042 160.442C159.789 160.633 159.597 160.898 159.466 161.239C159.336 161.58 159.27 161.978 159.27 162.432ZM165.711 168.16C165.52 168.16 165.347 168.144 165.191 168.113C165.035 168.084 164.918 168.053 164.841 168.019L165.148 166.975C165.381 167.037 165.589 167.064 165.77 167.056C165.952 167.047 166.113 166.979 166.252 166.851C166.394 166.724 166.519 166.515 166.627 166.225L166.785 165.79L164.39 159.16H165.753L167.411 164.239H167.479L169.137 159.16H170.505L167.807 166.579C167.682 166.92 167.523 167.208 167.33 167.444C167.137 167.682 166.907 167.861 166.64 167.981C166.373 168.1 166.063 168.16 165.711 168.16ZM171.014 163.975H172.318C172.335 164.242 172.456 164.448 172.681 164.593C172.908 164.738 173.202 164.81 173.563 164.81C173.929 164.81 174.242 164.732 174.5 164.576C174.759 164.417 174.888 164.171 174.888 163.839C174.888 163.64 174.838 163.466 174.739 163.319C174.642 163.168 174.505 163.052 174.326 162.969C174.149 162.887 173.941 162.846 173.699 162.846H172.634V161.844H173.699C174.06 161.844 174.33 161.762 174.509 161.597C174.688 161.432 174.777 161.226 174.777 160.979C174.777 160.712 174.681 160.498 174.487 160.336C174.297 160.171 174.031 160.089 173.691 160.089C173.344 160.089 173.056 160.167 172.826 160.323C172.595 160.476 172.475 160.675 172.463 160.92H171.176C171.185 160.553 171.296 160.232 171.509 159.956C171.725 159.678 172.014 159.462 172.378 159.309C172.745 159.153 173.161 159.074 173.627 159.074C174.112 159.074 174.533 159.153 174.888 159.309C175.243 159.465 175.517 159.681 175.71 159.956C175.906 160.232 176.005 160.549 176.005 160.907C176.005 161.268 175.897 161.563 175.681 161.793C175.468 162.02 175.189 162.184 174.845 162.283V162.351C175.098 162.368 175.323 162.445 175.519 162.581C175.715 162.718 175.868 162.898 175.979 163.123C176.09 163.347 176.145 163.601 176.145 163.885C176.145 164.286 176.034 164.633 175.813 164.925C175.594 165.218 175.29 165.444 174.901 165.603C174.514 165.759 174.073 165.837 173.576 165.837C173.093 165.837 172.659 165.762 172.276 165.611C171.895 165.458 171.593 165.242 171.368 164.964C171.147 164.685 171.029 164.356 171.014 163.975ZM178.409 163.92L181.294 159.16H182.667V165.705H181.418V160.941L178.546 165.705H177.161V159.16H178.409V163.92ZM183.268 160.259V159.16H188.791V160.259H186.656V165.705H185.411V160.259H183.268ZM190.797 161.41H192.698C193.499 161.41 194.115 161.608 194.547 162.006C194.979 162.404 195.195 162.917 195.195 163.545C195.195 163.954 195.098 164.322 194.905 164.648C194.712 164.975 194.429 165.233 194.057 165.424C193.685 165.611 193.232 165.705 192.698 165.705H189.838V159.16H191.087V164.606H192.698C193.064 164.606 193.365 164.51 193.601 164.32C193.837 164.127 193.955 163.881 193.955 163.583C193.955 163.268 193.837 163.01 193.601 162.812C193.365 162.61 193.064 162.509 192.698 162.509H190.797V161.41Z" fill="#689F3A"/>
<defs>
<clipPath id="clip0_2710_15472">
<rect width="21" height="21" fill="white" transform="translate(156.367 71.2051)"/>
</clipPath>
</defs>
</svg>
