<svg width="19" height="18" viewBox="0 0 19 18" fill="none" xmlns="http://www.w3.org/2000/svg">
<path fill-rule="evenodd" clip-rule="evenodd" d="M7.5323 15.0209L14.1221 6.49908C14.4802 6.03953 14.6076 5.50822 14.4882 4.96724C14.3847 4.47544 14.0823 4.00783 13.6286 3.65309L12.5224 2.7743C11.5594 2.00838 10.3656 2.089 9.68114 2.96779L8.94099 3.92801C8.84548 4.04814 8.86936 4.22551 8.98874 4.32226C8.98874 4.32226 10.859 5.82185 10.8988 5.85409C11.0262 5.97503 11.1217 6.13628 11.1455 6.32977C11.1853 6.7087 10.9227 7.06344 10.5327 7.11181C10.3497 7.136 10.1746 7.07956 10.0472 6.97475L8.08145 5.41067C7.98594 5.33891 7.84269 5.35423 7.7631 5.45098L3.09135 11.4977C2.78892 11.8766 2.68546 12.3684 2.78892 12.8441L3.38582 15.4321C3.41766 15.5692 3.53704 15.6659 3.6803 15.6659L6.30666 15.6337C6.78418 15.6256 7.22987 15.4079 7.5323 15.0209ZM11.2098 14.2149H15.4923C15.9102 14.2149 16.25 14.5592 16.25 14.9825C16.25 15.4065 15.9102 15.75 15.4923 15.75H11.2098C10.7919 15.75 10.4521 15.4065 10.4521 14.9825C10.4521 14.5592 10.7919 14.2149 11.2098 14.2149Z" fill="white"/>
</svg>
