<svg width="20" height="20" viewBox="0 0 20 20" fill="none" xmlns="http://www.w3.org/2000/svg">
<path fill-rule="evenodd" clip-rule="evenodd" d="M8.0323 16.0209L14.6221 7.49908C14.9802 7.03953 15.1076 6.50822 14.9882 5.96724C14.8847 5.47544 14.5823 5.00783 14.1286 4.65309L13.0224 3.7743C12.0594 3.00838 10.8656 3.089 10.1811 3.96779L9.44099 4.92801C9.34548 5.04814 9.36936 5.22551 9.48874 5.32226C9.48874 5.32226 11.359 6.82185 11.3988 6.85409C11.5262 6.97503 11.6217 7.13628 11.6455 7.32977C11.6853 7.7087 11.4227 8.06344 11.0327 8.11181C10.8497 8.136 10.6746 8.07956 10.5472 7.97475L8.58145 6.41067C8.48594 6.33891 8.34269 6.35423 8.2631 6.45098L3.59135 12.4977C3.28892 12.8766 3.18546 13.3684 3.28892 13.8441L3.88582 16.4321C3.91766 16.5692 4.03704 16.6659 4.1803 16.6659L6.80666 16.6337C7.28418 16.6256 7.72987 16.4079 8.0323 16.0209ZM11.7098 15.2149H15.9923C16.4102 15.2149 16.75 15.5592 16.75 15.9825C16.75 16.4065 16.4102 16.75 15.9923 16.75H11.7098C11.2919 16.75 10.9521 16.4065 10.9521 15.9825C10.9521 15.5592 11.2919 15.2149 11.7098 15.2149Z" fill="#1358BF"/>
</svg>
