<svg width="32" height="32" viewBox="0 0 32 32" fill="none" xmlns="http://www.w3.org/2000/svg">
<rect width="32" height="32" rx="16" fill="#689F3A"/>
<path fill-rule="evenodd" clip-rule="evenodd" d="M10.3334 14.8787C10.3334 11.8121 12.896 9.3335 15.9957 9.3335C19.1041 9.3335 21.6667 11.8121 21.6667 14.8787C21.6667 16.424 21.1047 17.8586 20.1797 19.0745C19.1592 20.4158 17.9015 21.5845 16.4857 22.5018C16.1617 22.7138 15.8693 22.7298 15.5137 22.5018C14.0899 21.5845 12.8321 20.4158 11.8204 19.0745C10.8947 17.8586 10.3334 16.424 10.3334 14.8787ZM14.1295 15.0513C14.1295 16.0786 14.9678 16.8866 15.9957 16.8866C17.0242 16.8866 17.8706 16.0786 17.8706 15.0513C17.8706 14.032 17.0242 13.1847 15.9957 13.1847C14.9678 13.1847 14.1295 14.032 14.1295 15.0513Z" fill="white"/>
</svg>
