<svg width="24" height="19" viewBox="0 0 24 19" fill="none" xmlns="http://www.w3.org/2000/svg">
<path d="M18.228 10.5391C20.4415 10.5391 22.2358 8.7447 22.2358 6.53125C22.2358 4.3178 20.4415 2.52344 18.228 2.52344C16.0146 2.52344 14.2202 4.3178 14.2202 6.53125C14.2202 8.7447 16.0146 10.5391 18.228 10.5391Z" fill="url(#paint0_radial_2531_18332)"/>
<path d="M18.228 2.10039C18.0202 2.10039 17.8569 1.93711 17.8569 1.7293V0.371094C17.8569 0.163281 18.0202 0 18.228 0C18.4358 0 18.5991 0.163281 18.5991 0.371094V1.7293C18.5991 1.92969 18.4284 2.10039 18.228 2.10039ZM15.0886 3.3918C15.2296 3.25078 15.2296 3.01328 15.0886 2.87227L14.1312 1.91484C13.9901 1.77383 13.7526 1.77383 13.6116 1.91484C13.4706 2.05586 13.4706 2.29336 13.6116 2.43438L14.569 3.3918C14.6433 3.46602 14.7323 3.50312 14.8288 3.50312C14.9253 3.50312 15.0218 3.46602 15.0886 3.3918ZM13.7972 6.53125C13.7972 6.32344 13.6339 6.16016 13.4261 6.16016H12.0679C11.8601 6.16016 11.6968 6.32344 11.6968 6.53125C11.6968 6.73906 11.8601 6.90234 12.0679 6.90234H13.4261C13.6265 6.90234 13.7972 6.73164 13.7972 6.53125ZM14.1312 11.1477L15.0886 10.1902C15.2296 10.0492 15.2296 9.81172 15.0886 9.6707C14.9476 9.52969 14.7101 9.52969 14.569 9.6707L13.6116 10.6281C13.4706 10.7691 13.4706 11.0066 13.6116 11.1477C13.6858 11.2219 13.7749 11.259 13.8714 11.259C13.9679 11.259 14.0644 11.2145 14.1312 11.1477ZM18.5991 12.6914V11.3332C18.5991 11.1254 18.4358 10.9621 18.228 10.9621C18.0202 10.9621 17.8569 11.1254 17.8569 11.3332V12.6914C17.8569 12.8992 18.0202 13.0625 18.228 13.0625C18.4358 13.0625 18.5991 12.8918 18.5991 12.6914ZM22.8444 11.1477C22.9854 11.0066 22.9854 10.7691 22.8444 10.6281L21.887 9.66328C21.746 9.52227 21.5085 9.52227 21.3675 9.66328C21.2265 9.8043 21.2265 10.0418 21.3675 10.1828L22.3249 11.1402C22.3991 11.2145 22.4882 11.2516 22.5847 11.2516C22.6812 11.2516 22.7702 11.2145 22.8444 11.1477ZM24.7519 6.53125C24.7519 6.32344 24.5886 6.16016 24.3808 6.16016H23.0226C22.8147 6.16016 22.6515 6.32344 22.6515 6.53125C22.6515 6.73906 22.8147 6.90234 23.0226 6.90234H24.3808C24.5886 6.90234 24.7519 6.73164 24.7519 6.53125ZM21.887 3.3918L22.8444 2.43438C22.9854 2.29336 22.9854 2.05586 22.8444 1.91484C22.7034 1.77383 22.4659 1.77383 22.3249 1.91484L21.3675 2.87227C21.2265 3.01328 21.2265 3.25078 21.3675 3.3918C21.4417 3.46602 21.5308 3.50312 21.6272 3.50312C21.7163 3.50312 21.8128 3.46602 21.887 3.3918Z" fill="url(#paint1_linear_2531_18332)"/>
<path d="M19.1262 8.77266C18.6883 8.77266 18.2652 8.83203 17.857 8.93594C16.7289 6.90234 14.5617 5.5293 12.0754 5.5293C8.55 5.5293 5.67031 8.29023 5.48477 11.7711C4.95781 11.4816 4.35664 11.3184 3.71094 11.3184C1.6625 11.3184 0 12.9809 0 15.0293C0 17.0777 1.6625 18.7402 3.71094 18.7402H19.1262C21.8797 18.7402 24.1063 16.5137 24.1063 13.7602C24.1063 11.0066 21.8797 8.77266 19.1262 8.77266Z" fill="url(#paint2_linear_2531_18332)"/>
<path d="M19.1261 18.7326C21.8765 18.7326 24.1062 16.503 24.1062 13.7525C24.1062 11.0021 21.8765 8.77246 19.1261 8.77246C16.3757 8.77246 14.146 11.0021 14.146 13.7525C14.146 16.503 16.3757 18.7326 19.1261 18.7326Z" fill="url(#paint3_linear_2531_18332)"/>
<path d="M3.71094 18.7324C5.76043 18.7324 7.42188 17.071 7.42188 15.0215C7.42188 12.972 5.76043 11.3105 3.71094 11.3105C1.66144 11.3105 0 12.972 0 15.0215C0 17.071 1.66144 18.7324 3.71094 18.7324Z" fill="url(#paint4_linear_2531_18332)"/>
<defs>
<radialGradient id="paint0_radial_2531_18332" cx="0" cy="0" r="1" gradientUnits="userSpaceOnUse" gradientTransform="translate(18.1119 6.41495) scale(4.2295 4.2295)">
<stop offset="0.0324831" stop-color="#FFF5A9"/>
<stop offset="0.1534" stop-color="#FFF3A4"/>
<stop offset="0.2905" stop-color="#FFEF97"/>
<stop offset="0.4357" stop-color="#FFE780"/>
<stop offset="0.5864" stop-color="#FFDD60"/>
<stop offset="0.7399" stop-color="#FFCF38"/>
<stop offset="0.8617" stop-color="#FFC312"/>
<stop offset="0.8823" stop-color="#FFC417"/>
<stop offset="0.9051" stop-color="#FFC924"/>
<stop offset="0.9289" stop-color="#FFD03A"/>
<stop offset="0.9535" stop-color="#FFDA59"/>
<stop offset="0.9783" stop-color="#FFE880"/>
<stop offset="1" stop-color="#FFF5A9"/>
</radialGradient>
<linearGradient id="paint1_linear_2531_18332" x1="18.2268" y1="0.878527" x2="18.2268" y2="12.8945" gradientUnits="userSpaceOnUse">
<stop stop-color="#FFF5A9"/>
<stop offset="0.0059793" stop-color="#FFF5A8"/>
<stop offset="0.4891" stop-color="#FFDA58"/>
<stop offset="0.8318" stop-color="#FFC925"/>
<stop offset="1" stop-color="#FFC312"/>
</linearGradient>
<linearGradient id="paint2_linear_2531_18332" x1="12.056" y1="18.731" x2="12.056" y2="5.52284" gradientUnits="userSpaceOnUse">
<stop offset="1.565e-07" stop-color="#8EBFFF"/>
<stop offset="0.2928" stop-color="#B2D4FF"/>
<stop offset="0.6112" stop-color="#D3E7FF"/>
<stop offset="0.7853" stop-color="#E0EEFF"/>
</linearGradient>
<linearGradient id="paint3_linear_2531_18332" x1="19.1269" y1="18.7308" x2="19.1269" y2="8.76912" gradientUnits="userSpaceOnUse">
<stop offset="0.3288" stop-color="#E0EEFF" stop-opacity="0"/>
<stop offset="0.9047" stop-color="#E0EEFF"/>
</linearGradient>
<linearGradient id="paint4_linear_2531_18332" x1="3.7767" y1="18.73" x2="3.64726" y2="11.3154" gradientUnits="userSpaceOnUse">
<stop offset="0.3288" stop-color="#E0EEFF" stop-opacity="0"/>
<stop offset="0.9047" stop-color="#E0EEFF"/>
</linearGradient>
</defs>
</svg>
