<svg width="20" height="20" viewBox="0 0 20 20" fill="none" xmlns="http://www.w3.org/2000/svg">
<path fill-rule="evenodd" clip-rule="evenodd" d="M3.625 8.73832C3.625 5.28842 6.50791 2.5 9.99508 2.5C13.4921 2.5 16.375 5.28842 16.375 8.73832C16.375 10.4768 15.7428 12.0907 14.7021 13.4587C13.5541 14.9676 12.1391 16.2823 10.5464 17.3143C10.1819 17.5528 9.85291 17.5708 9.45284 17.3143C7.85105 16.2823 6.43607 14.9676 5.29787 13.4587C4.25649 12.0907 3.625 10.4768 3.625 8.73832ZM7.89567 8.93256C7.89567 10.0883 8.83874 10.9973 9.99508 10.9973C11.1522 10.9973 12.1043 10.0883 12.1043 8.93256C12.1043 7.78585 11.1522 6.83262 9.99508 6.83262C8.83874 6.83262 7.89567 7.78585 7.89567 8.93256Z" fill="#1358BF"/>
</svg>
