<svg width="16" height="16" viewBox="0 0 16 16" fill="none" xmlns="http://www.w3.org/2000/svg">
<path d="M7.58979 2C6.0088 2.09075 4.52618 2.70511 3.34277 3.75979L5.17297 5.58998C5.86172 5.01658 6.69802 4.67007 7.58979 4.58859V2Z" fill="#FF8A1E"/>
<path d="M4.59219 6.17013L2.76203 4.33997C1.70645 5.52305 1.09132 7.00577 1 8.58715H3.5887C3.67073 7.69521 4.01798 6.85883 4.59219 6.17013Z" fill="#FF8A1E"/>
<path d="M12.4102 8.58715H14.9989C14.9076 7.00577 14.2925 5.52305 13.2369 4.33997L11.4067 6.17013C11.981 6.85881 12.3282 7.69521 12.4102 8.58715Z" fill="#FF8A1E"/>
<path d="M12.4104 9.40677C12.3529 10.0385 12.1727 10.5653 11.9595 10.988C12.1675 11.3087 12.3409 11.5798 12.4554 11.7598C12.7674 12.2501 12.6983 12.8795 12.2874 13.2904C12.1877 13.3902 12.0737 13.4706 11.9502 13.53L12.3764 13.9563C12.4567 14.0365 12.5618 14.0766 12.6669 14.0766C12.7721 14.0766 12.8772 14.0365 12.9574 13.9563C14.1858 12.7281 14.902 11.1254 15 9.40677H12.4104Z" fill="#FF8A1E"/>
<path d="M3.5896 9.40677H1C1.09802 11.1254 1.81426 12.7281 3.04256 13.9563C3.12278 14.0365 3.22792 14.0766 3.33305 14.0766C3.43818 14.0766 3.54334 14.0365 3.62356 13.9563L4.86797 12.7118C5.02839 12.5514 5.02839 12.2912 4.86797 12.1308C4.54322 11.806 3.72522 10.8968 3.5896 9.40677Z" fill="#FF8A1E"/>
<path d="M12.6562 3.75979C11.4728 2.70508 9.99017 2.09075 8.40918 2V4.58859C9.30093 4.67007 10.1372 5.01658 10.826 5.58998L12.6562 3.75979Z" fill="#FF8A1E"/>
<path d="M8.91082 8.09284C8.40834 7.59037 7.59075 7.59037 7.08828 8.09284C6.58581 8.59531 6.58581 9.41291 7.08828 9.91538C7.72306 10.5502 10.8427 12.5421 11.1963 12.7671C11.3585 12.8703 11.5706 12.847 11.7066 12.7111C11.8425 12.5752 11.8658 12.3631 11.7625 12.2009C11.5375 11.8473 9.5456 8.7276 8.91082 8.09284Z" fill="#FF8A1E"/>
</svg>
