<svg width="48" height="49" viewBox="0 0 48 49" fill="none" xmlns="http://www.w3.org/2000/svg">
<circle cx="24" cy="25" r="24" fill="#E6FFD0"/>
<path fill-rule="evenodd" clip-rule="evenodd" d="M19.67 15H28.34C31.73 15 34 17.38 34 20.92V29.091C34 32.62 31.73 35 28.34 35H19.67C16.28 35 14 32.62 14 29.091V20.92C14 17.38 16.28 15 19.67 15ZM23.43 27.99L28.18 23.24C28.52 22.9 28.52 22.35 28.18 22C27.84 21.66 27.28 21.66 26.94 22L22.81 26.13L21.06 24.38C20.72 24.04 20.16 24.04 19.82 24.38C19.48 24.72 19.48 25.27 19.82 25.62L22.2 27.99C22.37 28.16 22.59 28.24 22.81 28.24C23.04 28.24 23.26 28.16 23.43 27.99Z" fill="#689F3A"/>
</svg>
