<svg width="36" height="36" viewBox="0 0 36 36" fill="none" xmlns="http://www.w3.org/2000/svg">
<rect x="0.5" y="0.5" width="35" height="35" rx="7.5" fill="#EBF5FF" stroke="#E4F0FD"/>
<path d="M26.8285 15.0285H24.8639V13.8007C24.8639 13.3586 25.0113 12.9411 25.2568 12.5973C25.3796 12.4254 25.3796 12.1553 25.2077 12.0079L24.5447 11.2712C24.3728 11.0748 24.0535 11.0502 23.857 11.2221C23.8325 11.2467 23.8079 11.2712 23.7834 11.2958C23.2185 12.0079 22.8993 12.892 22.8993 13.8007V15.0285H19.7559L18.0369 11.0011C17.8159 10.4608 17.2756 10.117 16.6862 10.117H12.5851C11.7747 10.117 11.1116 10.7801 11.1116 11.5905V16.0845C10.8415 15.8635 10.4731 15.8881 10.2275 16.1336L9.26979 17.0914C8.99966 17.3615 8.99966 17.779 9.26979 18.0491L9.41714 18.1965C9.26979 18.4666 9.147 18.7613 9.04877 19.0806H8.82775C8.45939 19.0806 8.14014 19.3752 8.14014 19.7682V21.1188C8.14014 21.4872 8.43483 21.8065 8.82775 21.8065H9.04877C9.147 22.1011 9.26979 22.3958 9.41714 22.6905L9.26979 22.8379C8.99966 23.108 8.99966 23.5255 9.26979 23.7956L10.2275 24.7534C10.4977 25.0235 10.9152 25.0235 11.1853 24.7534L11.3326 24.606C11.6028 24.7534 11.8975 24.8762 12.2167 24.9744V25.1954C12.2167 25.5638 12.5114 25.883 12.9043 25.883H14.255C14.6234 25.883 14.9426 25.5883 14.9426 25.1954V24.9744C15.2373 24.8762 15.532 24.7534 15.8267 24.606L15.974 24.7534C16.2442 25.0235 16.6616 25.0235 16.9318 24.7534L17.8895 23.7956C18.1597 23.5255 18.1597 23.108 17.8895 22.8379L17.7422 22.6905C17.8895 22.4204 18.0123 22.1257 18.1105 21.8065H18.3316C18.6999 21.8065 19.0192 21.5118 19.0192 21.1188V20.9224H21.4995C22.5309 19.498 24.4464 19.056 26.0181 19.8173L27.5653 18.2456C27.7372 18.0737 27.8599 17.8036 27.8599 17.558V16.0108C27.8108 15.4706 27.3688 15.0285 26.8285 15.0285ZM13.5674 22.887C12.2167 22.887 11.1116 21.7819 11.1116 20.4312C11.1116 19.0806 12.2167 17.9755 13.5674 17.9755C14.9181 17.9755 16.0231 19.0806 16.0231 20.4312C16.0231 21.7819 14.9181 22.887 13.5674 22.887ZM14.255 15.0285H13.0762V12.0816H16.367L17.644 15.0285H14.255Z" fill="#1358BF"/>
<path d="M24.3719 20.4313C22.8739 20.4313 21.6705 21.6346 21.6705 23.1326C21.6705 24.6306 22.8739 25.834 24.3719 25.834C25.8699 25.834 27.0732 24.6306 27.0732 23.1326C27.0732 21.6346 25.8699 20.4313 24.3719 20.4313ZM24.3719 23.8693C23.9544 23.8693 23.6351 23.5501 23.6351 23.1326C23.6351 22.7151 23.9544 22.3959 24.3719 22.3959C24.7894 22.3959 25.1086 22.7151 25.1086 23.1326C25.1086 23.5501 24.7894 23.8693 24.3719 23.8693Z" fill="#1358BF"/>
</svg>
