<svg width="32" height="32" viewBox="0 0 32 32" fill="none" xmlns="http://www.w3.org/2000/svg">
<rect width="32" height="32" rx="16" fill="#689F3A"/>
<path d="M22.1795 13.92H20.8043V13.0605C20.8043 12.7511 20.9074 12.4588 21.0793 12.2182C21.1653 12.0978 21.1653 11.9087 21.045 11.8056L20.5808 11.2899C20.4605 11.1524 20.237 11.1352 20.0995 11.2555C20.0823 11.2727 20.0651 11.2899 20.0479 11.3071C19.6525 11.8056 19.4291 12.4244 19.4291 13.0605V13.92H17.2287L16.0254 11.1008C15.8707 10.7226 15.4925 10.4819 15.0799 10.4819H12.2091C11.6418 10.4819 11.1777 10.9461 11.1777 11.5134V14.6592C10.9886 14.5045 10.7307 14.5217 10.5588 14.6936L9.88841 15.364C9.69932 15.5531 9.69932 15.8453 9.88841 16.0344L9.99156 16.1376C9.88841 16.3267 9.80246 16.5329 9.7337 16.7564H9.57899C9.32113 16.7564 9.09766 16.9627 9.09766 17.2377V18.1832C9.09766 18.4411 9.30394 18.6645 9.57899 18.6645H9.7337C9.80246 18.8708 9.88841 19.0771 9.99156 19.2834L9.88841 19.3865C9.69932 19.5756 9.69932 19.8679 9.88841 20.057L10.5588 20.7274C10.7479 20.9165 11.0402 20.9165 11.2293 20.7274L11.3324 20.6243C11.5215 20.7274 11.7278 20.8133 11.9513 20.8821V21.0368C11.9513 21.2947 12.1575 21.5182 12.4326 21.5182H13.3781C13.6359 21.5182 13.8594 21.3119 13.8594 21.0368V20.8821C14.0657 20.8133 14.272 20.7274 14.4782 20.6243L14.5814 20.7274C14.7705 20.9165 15.0627 20.9165 15.2518 20.7274L15.9222 20.057C16.1113 19.8679 16.1113 19.5756 15.9222 19.3865L15.8191 19.2834C15.9222 19.0943 16.0082 18.888 16.0769 18.6645H16.2317C16.4895 18.6645 16.713 18.4583 16.713 18.1832V18.0457H18.4492C19.1712 17.0487 20.5121 16.7392 21.6122 17.2721L22.6952 16.1719C22.8156 16.0516 22.9015 15.8625 22.9015 15.6906V14.6076C22.8671 14.2294 22.5577 13.92 22.1795 13.92ZM12.8967 19.4209C11.9513 19.4209 11.1777 18.6474 11.1777 17.7019C11.1777 16.7564 11.9513 15.9829 12.8967 15.9829C13.8422 15.9829 14.6158 16.7564 14.6158 17.7019C14.6158 18.6474 13.8422 19.4209 12.8967 19.4209ZM13.3781 13.92H12.5529V11.8572H14.8564L15.7503 13.92H13.3781Z" fill="white"/>
<path d="M20.4603 17.7021C19.4117 17.7021 18.5693 18.5445 18.5693 19.5931C18.5693 20.6417 19.4117 21.484 20.4603 21.484C21.5089 21.484 22.3512 20.6417 22.3512 19.5931C22.3512 18.5445 21.5089 17.7021 20.4603 17.7021ZM20.4603 20.1088C20.168 20.1088 19.9446 19.8853 19.9446 19.5931C19.9446 19.3009 20.168 19.0774 20.4603 19.0774C20.7525 19.0774 20.976 19.3009 20.976 19.5931C20.976 19.8853 20.7525 20.1088 20.4603 20.1088Z" fill="white"/>
</svg>
