<svg width="16" height="16" viewBox="0 0 16 16" fill="none" xmlns="http://www.w3.org/2000/svg">
<path d="M14.1795 5.91995H12.8043V5.06043C12.8043 4.751 12.9074 4.45877 13.0793 4.2181C13.1653 4.09777 13.1653 3.90867 13.045 3.80553L12.5808 3.28982C12.4605 3.1523 12.237 3.13511 12.0995 3.25544C12.0823 3.27263 12.0651 3.28982 12.0479 3.30701C11.6525 3.80553 11.4291 4.42438 11.4291 5.06043V5.91995H9.2287L8.02537 3.10073C7.87066 2.72254 7.49247 2.48187 7.0799 2.48187H4.20911C3.64183 2.48187 3.17769 2.94601 3.17769 3.51329V6.65913C2.9886 6.50442 2.73074 6.52161 2.55884 6.69351L1.88841 7.36394C1.69932 7.55303 1.69932 7.84527 1.88841 8.03436L1.99156 8.1375C1.88841 8.3266 1.80246 8.53288 1.7337 8.75636H1.57899C1.32113 8.75636 1.09766 8.96264 1.09766 9.23769V10.1832C1.09766 10.441 1.30394 10.6645 1.57899 10.6645H1.7337C1.80246 10.8708 1.88841 11.0771 1.99156 11.2833L1.88841 11.3865C1.69932 11.5756 1.69932 11.8678 1.88841 12.0569L2.55884 12.7273C2.74793 12.9164 3.04017 12.9164 3.22926 12.7273L3.3324 12.6242C3.5215 12.7273 3.72778 12.8133 3.95126 12.882V13.0368C3.95126 13.2946 4.15754 13.5181 4.43259 13.5181H5.37806C5.63591 13.5181 5.85939 13.3118 5.85939 13.0368V12.882C6.06567 12.8133 6.27196 12.7273 6.47824 12.6242L6.58138 12.7273C6.77048 12.9164 7.06271 12.9164 7.25181 12.7273L7.92223 12.0569C8.11133 11.8678 8.11133 11.5756 7.92223 11.3865L7.81909 11.2833C7.92223 11.0942 8.00818 10.888 8.07694 10.6645H8.23166C8.48951 10.6645 8.71299 10.4582 8.71299 10.1832V10.0456H10.4492C11.1712 9.04859 12.5121 8.73917 13.6122 9.27207L14.6952 8.17188C14.8156 8.05155 14.9015 7.86246 14.9015 7.69055V6.60756C14.8671 6.22937 14.5577 5.91995 14.1795 5.91995ZM4.89673 11.4209C3.95126 11.4209 3.17769 10.6473 3.17769 9.70183C3.17769 8.75636 3.95126 7.98279 4.89673 7.98279C5.8422 7.98279 6.61576 8.75636 6.61576 9.70183C6.61576 10.6473 5.8422 11.4209 4.89673 11.4209ZM5.37806 5.91995H4.55292V3.8571H6.85643L7.75033 5.91995H5.37806Z" fill="#FF1E1E"/>
<path d="M12.4603 9.7019C11.4117 9.7019 10.5693 10.5442 10.5693 11.5928C10.5693 12.6415 11.4117 13.4838 12.4603 13.4838C13.5089 13.4838 14.3512 12.6415 14.3512 11.5928C14.3512 10.5442 13.5089 9.7019 12.4603 9.7019ZM12.4603 12.1086C12.168 12.1086 11.9446 11.8851 11.9446 11.5928C11.9446 11.3006 12.168 11.0771 12.4603 11.0771C12.7525 11.0771 12.976 11.3006 12.976 11.5928C12.976 11.8851 12.7525 12.1086 12.4603 12.1086Z" fill="#FF1E1E"/>
</svg>
