<svg width="24" height="24" viewBox="0 0 24 24" fill="none" xmlns="http://www.w3.org/2000/svg">
<circle cx="12" cy="12" r="12" fill="#DFECFF"/>
<path d="M17.5164 10.0266H16.3057V9.26998C16.3057 8.99758 16.3965 8.74032 16.5478 8.52845C16.6235 8.42252 16.6235 8.25605 16.5176 8.16526L16.109 7.71126C16.003 7.59019 15.8063 7.57506 15.6852 7.68099C15.6701 7.69613 15.655 7.71126 15.6398 7.72639C15.2918 8.16526 15.095 8.71005 15.095 9.26998V10.0266H13.158L12.0987 7.54479C11.9625 7.21186 11.6295 7 11.2663 7H8.73911C8.23971 7 7.83112 7.4086 7.83112 7.90799V10.6774C7.66465 10.5412 7.43765 10.5563 7.28632 10.7076L6.69613 11.2978C6.52966 11.4643 6.52966 11.7216 6.69613 11.888L6.78693 11.9788C6.69613 12.1453 6.62046 12.3269 6.55993 12.5236H6.42373C6.19673 12.5236 6 12.7052 6 12.9473V13.7797C6 14.0067 6.1816 14.2034 6.42373 14.2034H6.55993C6.62046 14.385 6.69613 14.5666 6.78693 14.7482L6.69613 14.839C6.52966 15.0055 6.52966 15.2627 6.69613 15.4292L7.28632 16.0194C7.45279 16.1858 7.71005 16.1858 7.87651 16.0194L7.96731 15.9286C8.13378 16.0194 8.31538 16.095 8.51211 16.1556V16.2918C8.51211 16.5188 8.69371 16.7155 8.93584 16.7155H9.76816C9.99516 16.7155 10.1919 16.5339 10.1919 16.2918V16.1556C10.3735 16.095 10.5551 16.0194 10.7367 15.9286L10.8275 16.0194C10.994 16.1858 11.2512 16.1858 11.4177 16.0194L12.0079 15.4292C12.1743 15.2627 12.1743 15.0055 12.0079 14.839L11.9171 14.7482C12.0079 14.5817 12.0835 14.4001 12.1441 14.2034H12.2803C12.5073 14.2034 12.704 14.0218 12.704 13.7797V13.6586H14.2325C14.868 12.7809 16.0484 12.5085 17.017 12.9776L17.9703 12.0091C18.0763 11.9032 18.1519 11.7367 18.1519 11.5854V10.632C18.1217 10.299 17.8493 10.0266 17.5164 10.0266ZM9.34443 14.8693C8.51211 14.8693 7.83112 14.1883 7.83112 13.3559C7.83112 12.5236 8.51211 11.8426 9.34443 11.8426C10.1768 11.8426 10.8578 12.5236 10.8578 13.3559C10.8578 14.1883 10.1768 14.8693 9.34443 14.8693ZM9.76816 10.0266H9.04177V8.21065H11.0696L11.8565 10.0266H9.76816Z" fill="#1358BF"/>
<path d="M16.0025 13.356C15.0794 13.356 14.3379 14.0975 14.3379 15.0206C14.3379 15.9437 15.0794 16.6853 16.0025 16.6853C16.9257 16.6853 17.6672 15.9437 17.6672 15.0206C17.6672 14.0975 16.9257 13.356 16.0025 13.356ZM16.0025 15.4746C15.7453 15.4746 15.5485 15.2779 15.5485 15.0206C15.5485 14.7634 15.7453 14.5666 16.0025 14.5666C16.2598 14.5666 16.4565 14.7634 16.4565 15.0206C16.4565 15.2779 16.2598 15.4746 16.0025 15.4746Z" fill="#1358BF"/>
</svg>
