<svg width="24" height="24" viewBox="0 0 24 24" fill="none" xmlns="http://www.w3.org/2000/svg">
<circle cx="12" cy="12" r="12" fill="#DFECFF"/>
<path d="M18.1795 9.91952H16.8043V9.06C16.8043 8.75057 16.9074 8.45834 17.0793 8.21767C17.1653 8.09734 17.1653 7.90825 17.045 7.8051L16.5808 7.28939C16.4605 7.15187 16.237 7.13468 16.0995 7.25501C16.0823 7.2722 16.0651 7.28939 16.0479 7.30658C15.6525 7.8051 15.4291 8.42396 15.4291 9.06V9.91952H13.2287L12.0254 7.1003C11.8707 6.72211 11.4925 6.48145 11.0799 6.48145H8.20911C7.64183 6.48145 7.17769 6.94559 7.17769 7.51287V10.6587C6.9886 10.504 6.73074 10.5212 6.55884 10.6931L5.88841 11.3635C5.69932 11.5526 5.69932 11.8448 5.88841 12.0339L5.99156 12.1371C5.88841 12.3262 5.80246 12.5325 5.7337 12.7559H5.57899C5.32113 12.7559 5.09766 12.9622 5.09766 13.2373V14.1827C5.09766 14.4406 5.30394 14.6641 5.57899 14.6641H5.7337C5.80246 14.8703 5.88841 15.0766 5.99156 15.2829L5.88841 15.3861C5.69932 15.5752 5.69932 15.8674 5.88841 16.0565L6.55884 16.7269C6.74793 16.916 7.04017 16.916 7.22926 16.7269L7.3324 16.6238C7.5215 16.7269 7.72778 16.8129 7.95126 16.8816V17.0363C7.95126 17.2942 8.15754 17.5177 8.43259 17.5177H9.37806C9.63591 17.5177 9.85939 17.3114 9.85939 17.0363V16.8816C10.0657 16.8129 10.272 16.7269 10.4782 16.6238L10.5814 16.7269C10.7705 16.916 11.0627 16.916 11.2518 16.7269L11.9222 16.0565C12.1113 15.8674 12.1113 15.5752 11.9222 15.3861L11.8191 15.2829C11.9222 15.0938 12.0082 14.8875 12.0769 14.6641H12.2317C12.4895 14.6641 12.713 14.4578 12.713 14.1827V14.0452H14.4492C15.1712 13.0482 16.5121 12.7387 17.6122 13.2716L18.6952 12.1715C18.8156 12.0511 18.9015 11.862 18.9015 11.6901V10.6071C18.8671 10.2289 18.5577 9.91952 18.1795 9.91952ZM8.89673 15.4204C7.95126 15.4204 7.17769 14.6469 7.17769 13.7014C7.17769 12.7559 7.95126 11.9824 8.89673 11.9824C9.8422 11.9824 10.6158 12.7559 10.6158 13.7014C10.6158 14.6469 9.8422 15.4204 8.89673 15.4204ZM9.37806 9.91952H8.55292V7.85667H10.8564L11.7503 9.91952H9.37806Z" fill="#1358BF"/>
<path d="M16.4603 13.7012C15.4117 13.7012 14.5693 14.5435 14.5693 15.5921C14.5693 16.6407 15.4117 17.4831 16.4603 17.4831C17.5089 17.4831 18.3512 16.6407 18.3512 15.5921C18.3512 14.5435 17.5089 13.7012 16.4603 13.7012ZM16.4603 16.1078C16.168 16.1078 15.9446 15.8843 15.9446 15.5921C15.9446 15.2999 16.168 15.0764 16.4603 15.0764C16.7525 15.0764 16.976 15.2999 16.976 15.5921C16.976 15.8843 16.7525 16.1078 16.4603 16.1078Z" fill="#1358BF"/>
</svg>
