<svg width="24" height="25" viewBox="0 0 24 25" fill="none" xmlns="http://www.w3.org/2000/svg">
<circle cx="12" cy="12" r="12" fill="#FF1E1E"/>
<g clip-path="url(#clip0_2710_14676)">
<path d="M17.4071 10.8099H16.2038V10.1116C16.2038 9.86018 16.294 9.62274 16.4444 9.42719C16.5196 9.32942 16.5196 9.17579 16.4143 9.09198L16.0082 8.67297C15.9029 8.56123 15.7074 8.54726 15.5871 8.64503C15.572 8.659 15.557 8.67297 15.5419 8.68693C15.196 9.09198 15.0004 9.5948 15.0004 10.1116V10.8099H13.0751L12.0222 8.51933C11.8868 8.21205 11.5559 8.01651 11.1949 8.01651H8.68297C8.1866 8.01651 7.78048 8.39362 7.78048 8.85454V11.4105C7.61502 11.2848 7.3894 11.2988 7.23898 11.4385L6.65236 11.9832C6.4869 12.1368 6.4869 12.3743 6.65236 12.5279L6.74261 12.6117C6.65236 12.7653 6.57715 12.933 6.51699 13.1145H6.38161C6.15599 13.1145 5.96045 13.2821 5.96045 13.5056V14.2738C5.96045 14.4833 6.14095 14.6649 6.38161 14.6649H6.51699C6.57715 14.8325 6.65236 15.0001 6.74261 15.1677L6.65236 15.2515C6.4869 15.4051 6.4869 15.6426 6.65236 15.7962L7.23898 16.3409C7.40444 16.4946 7.66015 16.4946 7.8256 16.3409L7.91585 16.2571C8.08131 16.3409 8.26181 16.4108 8.45735 16.4667V16.5924C8.45735 16.8019 8.63785 16.9834 8.87851 16.9834H9.7058C9.93142 16.9834 10.127 16.8158 10.127 16.5924V16.4667C10.3075 16.4108 10.488 16.3409 10.6685 16.2571L10.7587 16.3409C10.9242 16.4946 11.1799 16.4946 11.3453 16.3409L11.932 15.7962C12.0974 15.6426 12.0974 15.4051 11.932 15.2515L11.8417 15.1677C11.932 15.0141 12.0072 14.8465 12.0673 14.6649H12.2027C12.4283 14.6649 12.6239 14.4973 12.6239 14.2738V14.1621H14.1431C14.7748 13.352 15.9481 13.1006 16.9107 13.5335L17.8583 12.6396C17.9636 12.5419 18.0388 12.3882 18.0388 12.2486V11.3686C18.0087 11.0614 17.738 10.8099 17.4071 10.8099ZM9.28464 15.2794C8.45735 15.2794 7.78048 14.6509 7.78048 13.8827C7.78048 13.1145 8.45735 12.486 9.28464 12.486C10.1119 12.486 10.7888 13.1145 10.7888 13.8827C10.7888 14.6509 10.1119 15.2794 9.28464 15.2794ZM9.7058 10.8099H8.98381V9.13388H10.9994L11.7815 10.8099H9.7058Z" fill="white"/>
<path d="M15.9026 13.8828C14.9851 13.8828 14.248 14.5672 14.248 15.4192C14.248 16.2712 14.9851 16.9556 15.9026 16.9556C16.8202 16.9556 17.5572 16.2712 17.5572 15.4192C17.5572 14.5672 16.8202 13.8828 15.9026 13.8828ZM15.9026 15.8382C15.6469 15.8382 15.4514 15.6566 15.4514 15.4192C15.4514 15.1817 15.6469 15.0002 15.9026 15.0002C16.1583 15.0002 16.3539 15.1817 16.3539 15.4192C16.3539 15.6566 16.1583 15.8382 15.9026 15.8382Z" fill="white"/>
</g>
<defs>
<clipPath id="clip0_2710_14676">
<rect width="12.25" height="11.375" fill="white" transform="translate(5.875 6.8125)"/>
</clipPath>
</defs>
</svg>
