<svg width="14" height="14" viewBox="0 0 14 14" fill="none" xmlns="http://www.w3.org/2000/svg">
<path d="M13.1795 4.91952H11.8043V4.06C11.8043 3.75057 11.9074 3.45834 12.0793 3.21767C12.1653 3.09734 12.1653 2.90825 12.045 2.8051L11.5808 2.28939C11.4605 2.15187 11.237 2.13468 11.0995 2.25501C11.0823 2.2722 11.0651 2.28939 11.0479 2.30658C10.6525 2.8051 10.4291 3.42396 10.4291 4.06V4.91952H8.2287L7.02537 2.1003C6.87066 1.72211 6.49247 1.48145 6.0799 1.48145H3.20911C2.64183 1.48145 2.17769 1.94559 2.17769 2.51287V5.65871C1.9886 5.50399 1.73074 5.52118 1.55884 5.69309L0.888413 6.36351C0.699319 6.5526 0.699319 6.84484 0.888413 7.03393L0.991555 7.13708C0.888413 7.32617 0.802461 7.53246 0.7337 7.75593H0.578987C0.321131 7.75593 0.0976562 7.96221 0.0976562 8.23726V9.18273C0.0976562 9.44059 0.303941 9.66406 0.578987 9.66406H0.7337C0.802461 9.87035 0.888413 10.0766 0.991555 10.2829L0.888413 10.3861C0.699319 10.5752 0.699319 10.8674 0.888413 11.0565L1.55884 11.7269C1.74793 11.916 2.04017 11.916 2.22926 11.7269L2.3324 11.6238C2.5215 11.7269 2.72778 11.8129 2.95126 11.8816V12.0363C2.95126 12.2942 3.15754 12.5177 3.43259 12.5177H4.37806C4.63591 12.5177 4.85939 12.3114 4.85939 12.0363V11.8816C5.06567 11.8129 5.27196 11.7269 5.47824 11.6238L5.58138 11.7269C5.77048 11.916 6.06271 11.916 6.25181 11.7269L6.92223 11.0565C7.11133 10.8674 7.11133 10.5752 6.92223 10.3861L6.81909 10.2829C6.92223 10.0938 7.00818 9.88754 7.07694 9.66406H7.23166C7.48951 9.66406 7.71299 9.45778 7.71299 9.18273V9.04521H9.44922C10.1712 8.04817 11.5121 7.73874 12.6122 8.27164L13.6952 7.17146C13.8156 7.05113 13.9015 6.86203 13.9015 6.69013V5.60713C13.8671 5.22895 13.5577 4.91952 13.1795 4.91952ZM3.89673 10.4204C2.95126 10.4204 2.17769 9.64687 2.17769 8.7014C2.17769 7.75593 2.95126 6.98236 3.89673 6.98236C4.8422 6.98236 5.61576 7.75593 5.61576 8.7014C5.61576 9.64687 4.8422 10.4204 3.89673 10.4204ZM4.37806 4.91952H3.55292V2.85667H5.85643L6.75033 4.91952H4.37806Z" fill="#1455C0"/>
<path d="M11.4603 8.70117C10.4117 8.70117 9.56934 9.5435 9.56934 10.5921C9.56934 11.6407 10.4117 12.4831 11.4603 12.4831C12.5089 12.4831 13.3512 11.6407 13.3512 10.5921C13.3512 9.5435 12.5089 8.70117 11.4603 8.70117ZM11.4603 11.1078C11.168 11.1078 10.9446 10.8843 10.9446 10.5921C10.9446 10.2999 11.168 10.0764 11.4603 10.0764C11.7525 10.0764 11.976 10.2999 11.976 10.5921C11.976 10.8843 11.7525 11.1078 11.4603 11.1078Z" fill="#1455C0"/>
</svg>
