<svg width="20" height="20" viewBox="0 0 20 20" fill="none" xmlns="http://www.w3.org/2000/svg">
<path d="M18.828 7.02851H16.8634V5.80062C16.8634 5.35859 17.0108 4.94111 17.2563 4.5973C17.3791 4.4254 17.3791 4.15526 17.2072 4.00791L16.5442 3.27118C16.3723 3.07472 16.053 3.05017 15.8566 3.22207C15.832 3.24663 15.8074 3.27118 15.7829 3.29574C15.2181 4.00791 14.8988 4.89199 14.8988 5.80062V7.02851H11.7554L10.0364 3.00105C9.81537 2.46078 9.2751 2.11697 8.68572 2.11697H4.58459C3.77418 2.11697 3.11113 2.78003 3.11113 3.59043V8.08449C2.84099 7.86347 2.47263 7.88803 2.22705 8.1336L1.2693 9.09135C0.999167 9.36149 0.999167 9.77897 1.2693 10.0491L1.41665 10.1964C1.2693 10.4666 1.14651 10.7613 1.04828 11.0805H0.827263C0.458898 11.0805 0.139648 11.3752 0.139648 11.7681V13.1188C0.139648 13.4872 0.434341 13.8064 0.827263 13.8064H1.04828C1.14651 14.1011 1.2693 14.3958 1.41665 14.6905L1.2693 14.8378C0.999167 15.108 0.999167 15.5255 1.2693 15.7956L2.22705 16.7533C2.49718 17.0235 2.91466 17.0235 3.1848 16.7533L3.33215 16.606C3.60228 16.7533 3.89697 16.8761 4.21622 16.9744V17.1954C4.21622 17.5638 4.51091 17.883 4.90384 17.883H6.25451C6.62287 17.883 6.94212 17.5883 6.94212 17.1954V16.9744C7.23681 16.8761 7.53151 16.7533 7.8262 16.606L7.97354 16.7533C8.24368 17.0235 8.66116 17.0235 8.93129 16.7533L9.88904 15.7956C10.1592 15.5255 10.1592 15.108 9.88904 14.8378L9.7417 14.6905C9.88904 14.4204 10.0118 14.1257 10.1101 13.8064H10.3311C10.6994 13.8064 11.0187 13.5117 11.0187 13.1188V12.9223H13.499C14.5304 11.498 16.4459 11.056 18.0176 11.8173L19.5648 10.2456C19.7367 10.0737 19.8595 9.80352 19.8595 9.55795V8.01082C19.8103 7.47055 19.3683 7.02851 18.828 7.02851ZM5.56689 14.887C4.21622 14.887 3.11113 13.7819 3.11113 12.4312C3.11113 11.0805 4.21622 9.97543 5.56689 9.97543C6.91756 9.97543 8.02266 11.0805 8.02266 12.4312C8.02266 13.7819 6.91756 14.887 5.56689 14.887ZM6.25451 7.02851H5.07574V4.08159H8.36647L9.64347 7.02851H6.25451Z" fill="#1358BF"/>
<path d="M16.3713 12.4313C14.8732 12.4313 13.6699 13.6346 13.6699 15.1326C13.6699 16.6306 14.8732 17.834 16.3713 17.834C17.8693 17.834 19.0726 16.6306 19.0726 15.1326C19.0726 13.6346 17.8693 12.4313 16.3713 12.4313ZM16.3713 15.8693C15.9538 15.8693 15.6345 15.5501 15.6345 15.1326C15.6345 14.7151 15.9538 14.3959 16.3713 14.3959C16.7887 14.3959 17.108 14.7151 17.108 15.1326C17.108 15.5501 16.7887 15.8693 16.3713 15.8693Z" fill="#1358BF"/>
</svg>
