<svg width="24" height="24" viewBox="0 0 24 24" fill="none" xmlns="http://www.w3.org/2000/svg">
<circle cx="12" cy="12" r="12" fill="#E6FFD0"/>
<path fill-rule="evenodd" clip-rule="evenodd" d="M14.4257 9.80251C14.4257 11.1732 13.333 12.2722 11.9703 12.2722C10.6076 12.2722 9.51489 11.1732 9.51489 9.80251C9.51489 8.43133 10.6076 7.33334 11.9703 7.33334C13.333 7.33334 14.4257 8.43133 14.4257 9.80251ZM11.9703 16.6667C9.96878 16.6667 8.25976 16.3494 8.25976 15.0801C8.25976 13.8103 9.95782 13.4815 11.9703 13.4815C13.9718 13.4815 15.6809 13.7988 15.6809 15.0686C15.6809 16.3378 13.9828 16.6667 11.9703 16.6667ZM15.475 9.84706C15.475 10.5458 15.2666 11.1967 14.901 11.7378C14.8634 11.7935 14.8968 11.8686 14.9631 11.8802C15.0545 11.8959 15.1491 11.9049 15.2452 11.9075C16.2036 11.9327 17.0639 11.3123 17.3016 10.3782C17.6536 8.99073 16.6199 7.74512 15.3037 7.74512C15.1606 7.74512 15.0237 7.76035 14.8905 7.78767C14.8723 7.79187 14.8529 7.80028 14.8425 7.81656C14.8299 7.83653 14.8393 7.86332 14.8519 7.88066C15.2473 8.43806 15.475 9.11787 15.475 9.84706ZM17.0623 12.8823C17.7064 13.009 18.13 13.2674 18.3055 13.6431C18.4538 13.9514 18.4538 14.3092 18.3055 14.6171C18.037 15.1997 17.1715 15.3867 16.8351 15.435C16.7657 15.4455 16.7098 15.3851 16.7171 15.3153C16.8889 13.7008 15.522 12.9354 15.1684 12.7594C15.1533 12.7515 15.1501 12.7394 15.1517 12.7321C15.1527 12.7268 15.159 12.7184 15.1705 12.7169C15.9357 12.7027 16.7583 12.8077 17.0623 12.8823ZM8.75502 11.9074C8.85113 11.9048 8.94514 11.8964 9.03707 11.8801C9.10341 11.8686 9.13684 11.7934 9.09923 11.7378C8.73361 11.1966 8.5252 10.5457 8.5252 9.847C8.5252 9.11781 8.75293 8.43801 9.14833 7.8806C9.16086 7.86327 9.16974 7.83648 9.15773 7.81651C9.14728 7.80075 9.12743 7.79182 9.10968 7.78762C8.97596 7.7603 8.83911 7.74506 8.696 7.74506C7.37976 7.74506 6.34609 8.99068 6.69865 10.3781C6.93631 11.3122 7.79657 11.9327 8.75502 11.9074ZM8.84826 12.7318C8.84982 12.7397 8.84669 12.7512 8.83206 12.7596C8.47793 12.9356 7.11102 13.7011 7.28287 15.3149C7.29018 15.3853 7.23481 15.4452 7.16535 15.4352C6.82897 15.3869 5.96349 15.1999 5.69502 14.6173C5.54616 14.3089 5.54616 13.9516 5.69502 13.6433C5.87052 13.2676 6.2936 13.0092 6.93761 12.882C7.24213 12.808 8.06426 12.7029 8.82997 12.7171C8.84146 12.7186 8.84721 12.727 8.84826 12.7318Z" fill="#689F3A"/>
</svg>
