<svg width="21" height="21" viewBox="0 0 21 21" fill="none" xmlns="http://www.w3.org/2000/svg">
<path fill-rule="evenodd" clip-rule="evenodd" d="M14.2153 7.36075C14.2153 9.31882 12.6543 10.8889 10.7076 10.8889C8.76081 10.8889 7.19982 9.31882 7.19982 7.36075C7.19982 5.40193 8.76081 3.83337 10.7076 3.83337C12.6543 3.83337 14.2153 5.40193 14.2153 7.36075ZM10.7076 17.1667C7.84825 17.1667 5.40678 16.7134 5.40678 14.9002C5.40678 13.0862 7.83258 12.6164 10.7076 12.6164C13.5669 12.6164 16.0083 13.0697 16.0083 14.8837C16.0083 16.6969 13.5826 17.1667 10.7076 17.1667ZM15.7143 7.42439C15.7143 8.42257 15.4166 9.35244 14.8942 10.1255C14.8405 10.205 14.8883 10.3123 14.983 10.3289C15.1136 10.3514 15.2487 10.3641 15.386 10.3679C16.7552 10.4039 17.9841 9.51755 18.3236 8.18316C18.8266 6.20107 17.3499 4.42162 15.4695 4.42162C15.2651 4.42162 15.0696 4.44339 14.8793 4.48241C14.8532 4.48842 14.8256 4.50042 14.8107 4.52369C14.7928 4.55221 14.8062 4.59048 14.8241 4.61525C15.389 5.41154 15.7143 6.38269 15.7143 7.42439ZM17.9819 11.7605C18.9019 11.9414 19.5071 12.3106 19.7578 12.8472C19.9697 13.2878 19.9697 13.7989 19.7578 14.2387C19.3742 15.071 18.1378 15.3382 17.6573 15.4072C17.5581 15.4222 17.4782 15.3359 17.4887 15.2361C17.7342 12.9298 15.7814 11.8363 15.2763 11.5849C15.2546 11.5736 15.2502 11.5564 15.2524 11.5459C15.2539 11.5384 15.2629 11.5264 15.2793 11.5241C16.3724 11.5038 17.5476 11.6539 17.9819 11.7605ZM6.1143 10.3678C6.25159 10.364 6.3859 10.352 6.51723 10.3288C6.61199 10.3123 6.65975 10.2049 6.60602 10.1254C6.08371 9.35237 5.78598 8.42249 5.78598 7.42432C5.78598 6.38262 6.11131 5.41146 6.67616 4.61518C6.69407 4.59041 6.70676 4.55213 6.68959 4.52361C6.67467 4.5011 6.64632 4.48834 6.62095 4.48234C6.42993 4.44331 6.23443 4.42155 6.02998 4.42155C4.14964 4.42155 2.67297 6.20099 3.17663 8.18308C3.51614 9.51748 4.74508 10.4038 6.1143 10.3678ZM6.24749 11.5454C6.24973 11.5567 6.24525 11.5732 6.22436 11.5852C5.71846 11.8366 3.76573 12.9301 4.01122 15.2357C4.02167 15.3362 3.94257 15.4218 3.84333 15.4075C3.3628 15.3385 2.1264 15.0713 1.74287 14.239C1.53021 13.7984 1.53021 13.2881 1.74287 12.8475C1.99358 12.3109 2.59798 11.9417 3.518 11.7601C3.95302 11.6542 5.12749 11.5041 6.22137 11.5244C6.23779 11.5267 6.246 11.5387 6.24749 11.5454Z" fill="#1358BF"/>
</svg>
