<svg width="24" height="25" viewBox="0 0 24 25" fill="none" xmlns="http://www.w3.org/2000/svg">
<rect y="0.5" width="24" height="24" rx="12" fill="#2CB081"/>
<rect x="4" y="5" width="16" height="16" rx="8" fill="#2CB081"/>
<path d="M8.66667 15.0007V15.0073M15.3333 16.334C15.3333 16.6876 15.4738 17.0267 15.7239 17.2768C15.9739 17.5268 16.313 17.6673 16.6667 17.6673C17.0203 17.6673 17.3594 17.5268 17.6095 17.2768C17.8595 17.0267 18 16.6876 18 16.334C18 15.9804 17.8595 15.6412 17.6095 15.3912C17.3594 15.1411 17.0203 15.0007 16.6667 15.0007C16.313 15.0007 15.9739 15.1411 15.7239 15.3912C15.4738 15.6412 15.3333 15.9804 15.3333 16.334ZM15.3333 16.334H11M17.3333 15.134V12.334C17.3333 12.1572 17.2631 11.9876 17.1381 11.8626C17.013 11.7376 16.8435 11.6673 16.6667 11.6673L12.6667 11.6673L11.3333 8.33398H7.33333V12.6673M16 8.33398H15.3333C15.1565 8.33398 14.987 8.40422 14.8619 8.52925C14.7369 8.65427 14.6667 8.82384 14.6667 9.00065V11.6673M6 15.0007C6 15.7079 6.28095 16.3862 6.78105 16.8863C7.28115 17.3864 7.95942 17.6673 8.66667 17.6673C9.37391 17.6673 10.0522 17.3864 10.5523 16.8863C11.0524 16.3862 11.3333 15.7079 11.3333 15.0007C11.3333 14.2934 11.0524 13.6151 10.5523 13.115C10.0522 12.6149 9.37391 12.334 8.66667 12.334C7.95942 12.334 7.28115 12.6149 6.78105 13.115C6.28095 13.6151 6 14.2934 6 15.0007Z" stroke="white" stroke-linecap="round" stroke-linejoin="round"/>
</svg>
