<svg width="21" height="21" viewBox="0 0 21 21" fill="none" xmlns="http://www.w3.org/2000/svg">
<path fill-rule="evenodd" clip-rule="evenodd" d="M14.4713 8.86426C14.4713 9.70155 14.6926 10.1951 15.1796 10.7638C15.5486 11.1827 15.6666 11.7206 15.6666 12.3041C15.6666 12.8869 15.4751 13.4401 15.0915 13.8893C14.5892 14.4278 13.8809 14.7716 13.1581 14.8314C12.1105 14.9207 11.0624 14.9959 10.0002 14.9959C8.93748 14.9959 7.88995 14.9509 6.84242 14.8314C6.11889 14.7716 5.4106 14.4278 4.90903 13.8893C4.5254 13.4401 4.33325 12.8869 4.33325 12.3041C4.33325 11.7206 4.45185 11.1827 4.82024 10.7638C5.32248 10.1951 5.5292 9.70155 5.5292 8.86426V8.58024C5.5292 7.45893 5.8088 6.72572 6.38458 6.00795C7.24063 4.96117 8.61282 4.33337 9.97043 4.33337H10.0301C11.4168 4.33337 12.8334 4.99139 13.6749 6.08315C14.2208 6.78615 14.4713 7.48848 14.4713 8.58024V8.86426ZM8.04903 16.3739C8.04903 16.0382 8.35713 15.8844 8.64204 15.8186C8.97531 15.7481 11.0061 15.7481 11.3394 15.8186C11.6243 15.8844 11.9324 16.0382 11.9324 16.3739C11.9158 16.6935 11.7283 16.9769 11.4692 17.1568C11.1333 17.4187 10.7391 17.5845 10.327 17.6443C10.099 17.6738 9.87509 17.6745 9.65511 17.6443C9.24233 17.5845 8.8481 17.4187 8.51284 17.1562C8.25311 16.9769 8.0656 16.6935 8.04903 16.3739Z" fill="#1358BF"/>
</svg>
