<svg width="44" height="44" viewBox="0 0 44 44" fill="none" xmlns="http://www.w3.org/2000/svg">
<circle cx="22" cy="22" r="18" fill="#1358BF"/>
<path d="M22 19V22M22 22V25M22 22H25M22 22H19M31 22C31 26.9706 26.9706 31 22 31C17.0294 31 13 26.9706 13 22C13 17.0294 17.0294 13 22 13C26.9706 13 31 17.0294 31 22Z" stroke="white" stroke-width="1.5" stroke-linecap="round" stroke-linejoin="round"/>
<path d="M31 22C31 26.9706 26.9706 31 22 31C17.0294 31 13 26.9706 13 22C13 17.0294 17.0294 13 22 13C26.9706 13 31 17.0294 31 22Z" fill="white"/>
<g clip-path="url(#clip0_2191_12264)">
<path d="M17.7574 22.0001L26.2426 22.0001M22 17.7574L22 26.2427" stroke="#1358BF" stroke-width="1.5" stroke-linecap="round" stroke-linejoin="round"/>
</g>
<defs>
<clipPath id="clip0_2191_12264">
<rect width="12" height="12" fill="white" transform="translate(22 13.5148) rotate(45)"/>
</clipPath>
</defs>
</svg>
