<svg width="28" height="28" viewBox="0 0 28 28" fill="none" xmlns="http://www.w3.org/2000/svg">
<circle cx="14" cy="14" r="14" fill="#E6FFD0"/>
<circle cx="14" cy="14" r="14" fill="url(#paint0_linear_2270_13348)"/>
<path fill-rule="evenodd" clip-rule="evenodd" d="M16.772 11.4886C16.772 13.055 15.5233 14.3111 13.9659 14.3111C12.4085 14.3111 11.1597 13.055 11.1597 11.4886C11.1597 9.92153 12.4085 8.66669 13.9659 8.66669C15.5233 8.66669 16.772 9.92153 16.772 11.4886ZM13.9659 19.3334C11.6784 19.3334 9.72523 18.9707 9.72523 17.5201C9.72523 16.069 11.6659 15.6931 13.9659 15.6931C16.2533 15.6931 18.2065 16.0557 18.2065 17.5069C18.2065 18.9575 16.2658 19.3334 13.9659 19.3334ZM17.9712 11.5395C17.9712 12.338 17.7331 13.0819 17.3152 13.7004C17.2722 13.764 17.3104 13.8499 17.3862 13.8631C17.4907 13.8811 17.5987 13.8913 17.7086 13.8943C18.804 13.9231 19.7871 13.214 20.0587 12.1465C20.461 10.5608 19.2797 9.13728 17.7754 9.13728C17.6119 9.13728 17.4555 9.1547 17.3033 9.18592C17.2824 9.19072 17.2603 9.20033 17.2483 9.21894C17.234 9.24175 17.2448 9.27238 17.2591 9.29219C17.711 9.92922 17.9712 10.7061 17.9712 11.5395ZM19.7853 15.0084C20.5213 15.1531 21.0055 15.4485 21.206 15.8778C21.3756 16.2302 21.3756 16.6391 21.206 16.9909C20.8992 17.6568 19.9101 17.8705 19.5257 17.9258C19.4463 17.9378 19.3824 17.8687 19.3907 17.7889C19.5871 15.9438 18.025 15.069 17.6208 14.8679C17.6035 14.8589 17.5999 14.8451 17.6017 14.8367C17.6029 14.8307 17.6101 14.8211 17.6232 14.8193C18.4977 14.8031 19.4379 14.9231 19.7853 15.0084ZM10.2912 13.8942C10.4011 13.8912 10.5085 13.8816 10.6136 13.863C10.6894 13.8498 10.7276 13.7639 10.6846 13.7003C10.2668 13.0819 10.0286 12.338 10.0286 11.5394C10.0286 10.7061 10.2889 9.92916 10.7407 9.29213C10.7551 9.27231 10.7652 9.24169 10.7515 9.21888C10.7395 9.20087 10.7169 9.19066 10.6966 9.18586C10.5437 9.15464 10.3873 9.13722 10.2238 9.13722C8.71951 9.13722 7.53818 10.5608 7.94111 12.1465C8.21272 13.214 9.19587 13.923 10.2912 13.8942ZM10.3978 14.8363C10.3996 14.8453 10.396 14.8585 10.3793 14.8681C9.97457 15.0693 8.41239 15.9441 8.60878 17.7885C8.61714 17.869 8.55386 17.9374 8.47447 17.926C8.09004 17.8708 7.10092 17.657 6.7941 16.9912C6.62397 16.6387 6.62397 16.2305 6.7941 15.878C6.99467 15.4487 7.47819 15.1533 8.21421 15.008C8.56222 14.9234 9.5018 14.8033 10.3769 14.8195C10.39 14.8213 10.3966 14.8309 10.3978 14.8363Z" fill="white"/>
<defs>
<linearGradient id="paint0_linear_2270_13348" x1="-1.45329" y1="13.8133" x2="21.9575" y2="13.2944" gradientUnits="userSpaceOnUse">
<stop stop-color="#1358BF"/>
<stop offset="1" stop-color="#1343BF"/>
</linearGradient>
</defs>
</svg>
