<svg width="40" height="40" viewBox="0 0 40 40" fill="none" xmlns="http://www.w3.org/2000/svg">
<g clip-path="url(#clip0_1070_16856)">
<path d="M40 20C39.8828 26.6875 38.7031 32.0703 35.3359 35.3359C32.0703 38.7031 26.6875 39.8828 20 40C13.3125 39.8828 7.92969 38.7031 4.66406 35.3359C1.29688 32.0703 0.117188 26.6875 0 20C0.117188 13.3125 1.29688 7.92969 4.66406 4.66406C7.92969 1.29688 13.3125 0.117188 20 0C26.6875 0.117188 32.0703 1.29688 35.3359 4.66406C38.7031 7.92969 39.8828 13.3125 40 20Z" fill="url(#paint0_linear_1070_16856)"/>
<path d="M30.8828 12.1563C30.7266 12.0078 30.4844 12.0078 30.3359 12.1563L29.3281 13.1641C29.3047 13.1875 29.2891 13.2031 29.2734 13.2266C29.2188 13.1719 26.5781 10.5 26.4062 10.4766C26.3828 10.2891 26.2188 10.1406 26.0234 10.1406C25.8047 10.1406 25.6328 10.3125 25.6328 10.5312V11.9609C25.6328 12.1563 25.7812 12.3203 25.9688 12.3437L26.3281 12.7969L26.3438 12.8125C26.2344 12.8047 26.125 12.7969 26.0156 12.7969C24.9922 12.7969 24.0547 13.1641 23.3203 13.7734L21.7031 12.1563C21.5547 12.0078 21.3047 12.0078 21.1562 12.1563C21 12.3047 21 12.5547 21.1562 12.7031L22.7734 14.3203C22.3047 14.8906 21.9766 15.5859 21.8516 16.3437C21.1328 16.0859 20.3516 15.9531 19.5469 15.9531C15.8359 15.9531 12.8047 18.8594 12.6094 22.5234C12.0547 22.2187 11.4219 22.0469 10.7422 22.0469C8.58594 22.0469 6.83594 23.7969 6.83594 25.9531C6.83594 27.1172 7.34375 28.1562 8.14844 28.875C8.21875 28.9609 15.0781 35.8203 19.25 39.9844C19.5 39.9922 19.75 40 20 40C26.6875 39.8828 32.0703 38.7031 35.3359 35.3359C38.4844 32.2812 39.7188 27.375 39.9609 21.2812C36.0078 17.2969 30.9219 12.1953 30.8828 12.1563Z" fill="url(#paint1_linear_1070_16856)"/>
<path d="M26.0234 21.2344C28.3534 21.2344 30.2422 19.3456 30.2422 17.0156C30.2422 14.6857 28.3534 12.7969 26.0234 12.7969C23.6935 12.7969 21.8047 14.6857 21.8047 17.0156C21.8047 19.3456 23.6935 21.2344 26.0234 21.2344Z" fill="url(#paint2_radial_1070_16856)"/>
<path d="M26.0234 12.3516C25.8047 12.3516 25.6328 12.1797 25.6328 11.9609V10.5312C25.6328 10.3125 25.8047 10.1406 26.0234 10.1406C26.2422 10.1406 26.4141 10.3125 26.4141 10.5312V11.9609C26.4141 12.1719 26.2344 12.3516 26.0234 12.3516ZM22.7187 13.7109C22.8672 13.5625 22.8672 13.3125 22.7187 13.1641L21.7109 12.1562C21.5625 12.0078 21.3125 12.0078 21.1641 12.1562C21.0156 12.3047 21.0156 12.5547 21.1641 12.7031L22.1719 13.7109C22.25 13.7891 22.3437 13.8281 22.4453 13.8281C22.5469 13.8281 22.6484 13.7891 22.7187 13.7109ZM21.3594 17.0156C21.3594 16.7969 21.1875 16.625 20.9687 16.625H19.5391C19.3203 16.625 19.1484 16.7969 19.1484 17.0156C19.1484 17.2344 19.3203 17.4062 19.5391 17.4062H20.9687C21.1797 17.4062 21.3594 17.2266 21.3594 17.0156ZM21.7109 21.875L22.7187 20.8672C22.8672 20.7187 22.8672 20.4687 22.7187 20.3203C22.5703 20.1719 22.3203 20.1719 22.1719 20.3203L21.1641 21.3281C21.0156 21.4766 21.0156 21.7266 21.1641 21.875C21.2422 21.9531 21.3359 21.9922 21.4375 21.9922C21.5391 21.9922 21.6406 21.9453 21.7109 21.875ZM26.4141 23.5V22.0703C26.4141 21.8516 26.2422 21.6797 26.0234 21.6797C25.8047 21.6797 25.6328 21.8516 25.6328 22.0703V23.5C25.6328 23.7187 25.8047 23.8906 26.0234 23.8906C26.2422 23.8906 26.4141 23.7109 26.4141 23.5ZM30.8828 21.875C31.0312 21.7266 31.0312 21.4766 30.8828 21.3281L29.875 20.3125C29.7266 20.1641 29.4766 20.1641 29.3281 20.3125C29.1797 20.4609 29.1797 20.7109 29.3281 20.8594L30.3359 21.8672C30.4141 21.9453 30.5078 21.9844 30.6094 21.9844C30.7109 21.9844 30.8047 21.9453 30.8828 21.875ZM32.8906 17.0156C32.8906 16.7969 32.7187 16.625 32.5 16.625H31.0703C30.8516 16.625 30.6797 16.7969 30.6797 17.0156C30.6797 17.2344 30.8516 17.4062 31.0703 17.4062H32.5C32.7187 17.4062 32.8906 17.2266 32.8906 17.0156ZM29.875 13.7109L30.8828 12.7031C31.0312 12.5547 31.0312 12.3047 30.8828 12.1562C30.7344 12.0078 30.4844 12.0078 30.3359 12.1562L29.3281 13.1641C29.1797 13.3125 29.1797 13.5625 29.3281 13.7109C29.4062 13.7891 29.5 13.8281 29.6016 13.8281C29.6953 13.8281 29.7969 13.7891 29.875 13.7109Z" fill="url(#paint3_linear_1070_16856)"/>
<path d="M26.9688 19.375C26.5078 19.375 26.0625 19.4375 25.6328 19.5469C24.4453 17.4062 22.1641 15.9609 19.5469 15.9609C15.8359 15.9609 12.8047 18.8672 12.6094 22.5312C12.0547 22.2266 11.4219 22.0547 10.7422 22.0547C8.58594 22.0547 6.83594 23.8047 6.83594 25.9609C6.83594 28.1172 8.58594 29.8672 10.7422 29.8672H26.9688C29.8672 29.8672 32.2109 27.5234 32.2109 24.625C32.2109 21.7266 29.8672 19.375 26.9688 19.375Z" fill="url(#paint4_linear_1070_16856)"/>
<path d="M26.9688 29.8594C29.8639 29.8594 32.2109 27.5124 32.2109 24.6172C32.2109 21.722 29.8639 19.375 26.9688 19.375C24.0736 19.375 21.7266 21.722 21.7266 24.6172C21.7266 27.5124 24.0736 29.8594 26.9688 29.8594Z" fill="url(#paint5_linear_1070_16856)"/>
<path d="M10.7422 29.8594C12.8995 29.8594 14.6484 28.1105 14.6484 25.9531C14.6484 23.7958 12.8995 22.0469 10.7422 22.0469C8.58483 22.0469 6.83594 23.7958 6.83594 25.9531C6.83594 28.1105 8.58483 29.8594 10.7422 29.8594Z" fill="url(#paint6_linear_1070_16856)"/>
</g>
<defs>
<linearGradient id="paint0_linear_1070_16856" x1="20" y1="0.152266" x2="20" y2="39.5682" gradientUnits="userSpaceOnUse">
<stop stop-color="#50B8FF"/>
<stop offset="0.3844" stop-color="#359DFF"/>
<stop offset="0.7467" stop-color="#238AFF"/>
<stop offset="1" stop-color="#1C83FF"/>
</linearGradient>
<linearGradient id="paint1_linear_1070_16856" x1="17.963" y1="18.9649" x2="34.4405" y2="35.4425" gradientUnits="userSpaceOnUse">
<stop stop-color="#027FD3"/>
<stop offset="0.0621918" stop-color="#027FD3" stop-opacity="0.938"/>
<stop offset="1" stop-color="#027FD3" stop-opacity="0"/>
</linearGradient>
<radialGradient id="paint2_radial_1070_16856" cx="0" cy="0" r="1" gradientUnits="userSpaceOnUse" gradientTransform="translate(25.9013 16.8932) scale(4.45211 4.45211)">
<stop offset="0.0324831" stop-color="#FFF5A9"/>
<stop offset="0.1534" stop-color="#FFF3A4"/>
<stop offset="0.2905" stop-color="#FFEF97"/>
<stop offset="0.4357" stop-color="#FFE780"/>
<stop offset="0.5864" stop-color="#FFDD60"/>
<stop offset="0.7399" stop-color="#FFCF38"/>
<stop offset="0.8617" stop-color="#FFC312"/>
<stop offset="0.8823" stop-color="#FFC417"/>
<stop offset="0.9051" stop-color="#FFC924"/>
<stop offset="0.9289" stop-color="#FFD03A"/>
<stop offset="0.9535" stop-color="#FFDA59"/>
<stop offset="0.9783" stop-color="#FFE880"/>
<stop offset="1" stop-color="#FFF5A9"/>
</radialGradient>
<linearGradient id="paint3_linear_1070_16856" x1="26.0222" y1="11.0654" x2="26.0222" y2="23.7138" gradientUnits="userSpaceOnUse">
<stop stop-color="#FFF5A9"/>
<stop offset="0.0059793" stop-color="#FFF5A8"/>
<stop offset="0.4891" stop-color="#FFDA58"/>
<stop offset="0.8318" stop-color="#FFC925"/>
<stop offset="1" stop-color="#FFC312"/>
</linearGradient>
<linearGradient id="paint4_linear_1070_16856" x1="19.5265" y1="29.8574" x2="19.5265" y2="15.9541" gradientUnits="userSpaceOnUse">
<stop offset="1.565e-07" stop-color="#8EBFFF"/>
<stop offset="0.2928" stop-color="#B2D4FF"/>
<stop offset="0.6112" stop-color="#D3E7FF"/>
<stop offset="0.7853" stop-color="#E0EEFF"/>
</linearGradient>
<linearGradient id="paint5_linear_1070_16856" x1="26.9696" y1="29.8574" x2="26.9696" y2="19.3715" gradientUnits="userSpaceOnUse">
<stop offset="0.3288" stop-color="#E0EEFF" stop-opacity="0"/>
<stop offset="0.9047" stop-color="#E0EEFF"/>
</linearGradient>
<linearGradient id="paint6_linear_1070_16856" x1="10.8114" y1="29.8569" x2="10.6752" y2="22.052" gradientUnits="userSpaceOnUse">
<stop offset="0.3288" stop-color="#E0EEFF" stop-opacity="0"/>
<stop offset="0.9047" stop-color="#E0EEFF"/>
</linearGradient>
<clipPath id="clip0_1070_16856">
<rect width="40" height="40" fill="white"/>
</clipPath>
</defs>
</svg>
