<svg width="20" height="20" viewBox="0 0 20 20" fill="none" xmlns="http://www.w3.org/2000/svg">
<path d="M2.5 7.5H1.875C1.70924 7.5 1.55027 7.56585 1.43306 7.68306C1.31585 7.80027 1.25 7.95924 1.25 8.125C1.25 8.29076 1.31585 8.44973 1.43306 8.56694C1.55027 8.68415 1.70924 8.75 1.875 8.75H2.5C2.66576 8.75 2.82473 8.68415 2.94194 8.56694C3.05915 8.44973 3.125 8.29076 3.125 8.125C3.125 7.95924 3.05915 7.80027 2.94194 7.68306C2.82473 7.56585 2.66576 7.5 2.5 7.5Z" fill="#1358BF"/>
<path d="M4.15253 3.89655L3.67315 3.49467C3.5461 3.38817 3.38194 3.33651 3.21679 3.35104C3.05164 3.36558 2.89903 3.44512 2.79253 3.57217C2.68603 3.69923 2.63436 3.86339 2.64889 4.02854C2.66343 4.19369 2.74297 4.3463 2.87003 4.4528L3.34878 4.85405C3.41165 4.90682 3.4843 4.9467 3.56258 4.9714C3.64086 4.9961 3.72324 5.00513 3.80501 4.998C3.88678 4.99086 3.96635 4.96768 4.03917 4.92979C4.11198 4.8919 4.17663 4.84005 4.2294 4.77717C4.28218 4.7143 4.32205 4.64165 4.34675 4.56337C4.37145 4.48509 4.38049 4.40271 4.37335 4.32094C4.36621 4.23917 4.34303 4.1596 4.30515 4.08678C4.26726 4.01397 4.2154 3.94932 4.15253 3.89655Z" fill="#1358BF"/>
<path d="M7.5 3.75C7.66576 3.75 7.82473 3.68415 7.94194 3.56694C8.05915 3.44973 8.125 3.29076 8.125 3.125V2.5C8.125 2.33424 8.05915 2.17527 7.94194 2.05806C7.82473 1.94085 7.66576 1.875 7.5 1.875C7.33424 1.875 7.17527 1.94085 7.05806 2.05806C6.94085 2.17527 6.875 2.33424 6.875 2.5V3.125C6.875 3.29076 6.94085 3.44973 7.05806 3.56694C7.17527 3.68415 7.33424 3.75 7.5 3.75Z" fill="#1358BF"/>
<path d="M11.2501 5.0003C11.3971 5.00032 11.5394 4.94854 11.652 4.85405L12.1307 4.4528C12.2578 4.3463 12.3373 4.19369 12.3519 4.02854C12.3664 3.86339 12.3147 3.69923 12.2082 3.57217C12.1017 3.44512 11.9491 3.36558 11.784 3.35104C11.6188 3.33651 11.4547 3.38817 11.3276 3.49467L10.8482 3.89655C10.75 3.97901 10.6795 4.08969 10.6463 4.21359C10.6131 4.33749 10.6188 4.4686 10.6627 4.58913C10.7066 4.70966 10.7865 4.81376 10.8916 4.88732C10.9967 4.96088 11.1218 5.00032 11.2501 5.0003Z" fill="#1358BF"/>
<path d="M5.84375 9.1998C5.9125 9.1748 5.98125 9.1498 6.05 9.13105C6.10625 9.1123 6.1625 9.09355 6.225 9.0748C6.71381 8.34434 7.34895 7.72331 8.0902 7.25102C8.83144 6.77873 9.66267 6.46547 10.5313 6.33105C10.0923 5.76373 9.48689 5.34793 8.79982 5.14191C8.11274 4.93589 7.37842 4.94996 6.69975 5.18216C6.02107 5.41436 5.43203 5.85305 5.01515 6.43677C4.59827 7.02049 4.37443 7.72 4.375 8.4373C4.37528 8.90989 4.47094 9.37756 4.65625 9.8123C5.02268 9.55557 5.42213 9.34954 5.84375 9.1998Z" fill="#1358BF"/>
<path d="M16.0515 10.2461C15.6214 9.42301 14.9754 8.73248 14.1827 8.24855C13.39 7.76463 12.4806 7.50557 11.5519 7.49915C10.6232 7.49272 9.71023 7.73918 8.91093 8.21209C8.11163 8.685 7.45611 9.36654 7.01465 10.1836C6.80564 10.2137 6.59979 10.2626 6.39965 10.3299C6.36542 10.3375 6.33195 10.3481 6.29965 10.3618L6.29027 10.3655C5.54047 10.6286 4.89208 11.1202 4.43642 11.7712C3.98075 12.4222 3.74077 13.1997 3.75027 13.9943C3.76075 14.4322 3.94283 14.8485 4.2573 15.1535C4.57177 15.4585 4.99345 15.6278 5.43152 15.6249H17.044C17.4487 15.6241 17.8396 15.4782 18.1459 15.2138C18.4522 14.9494 18.6536 14.5838 18.7134 14.1836C18.7371 14.0151 18.7495 13.8451 18.7503 13.6749C18.7464 12.8845 18.4789 12.1179 17.99 11.4968C17.5011 10.8757 16.8189 10.4356 16.0515 10.2461Z" fill="#1358BF"/>
</svg>
