<svg width="95" height="95" viewBox="0 0 95 95" fill="none" xmlns="http://www.w3.org/2000/svg">
<g clip-path="url(#clip0_1153_17716)">
<path d="M95 47.5C94.7217 63.3828 91.9199 76.167 83.9229 83.9229C76.167 91.9199 63.3828 94.7217 47.5 95C31.6172 94.7217 18.833 91.9199 11.0771 83.9229C3.08008 76.167 0.27832 63.3828 0 47.5C0.27832 31.6172 3.08008 18.833 11.0771 11.0771C18.833 3.08008 31.6172 0.27832 47.5 0C63.3828 0.27832 76.167 3.08008 83.9229 11.0771C91.9199 18.833 94.7217 31.6172 95 47.5Z" fill="url(#paint0_linear_1153_17716)"/>
<path d="M73.3467 28.8711C72.9756 28.5186 72.4004 28.5186 72.0478 28.8711L69.6543 31.2646C69.5986 31.3203 69.5615 31.3574 69.5244 31.4131C69.3945 31.2832 63.123 24.9375 62.7148 24.8818C62.6592 24.4365 62.2695 24.084 61.8057 24.084C61.2861 24.084 60.8779 24.4922 60.8779 25.0117V28.4072C60.8779 28.8711 61.2305 29.2607 61.6758 29.3164L62.5293 30.3926L62.5664 30.4297C62.3066 30.4111 62.0469 30.3926 61.7871 30.3926C59.3564 30.3926 57.1299 31.2646 55.3857 32.7119L51.5449 28.8711C51.1924 28.5186 50.5986 28.5186 50.2461 28.8711C49.875 29.2236 49.875 29.8174 50.2461 30.1699L54.0869 34.0107C52.9736 35.3652 52.1943 37.0166 51.8975 38.8164C50.1904 38.2041 48.335 37.8887 46.4238 37.8887C37.6104 37.8887 30.4111 44.791 29.9473 53.4932C28.6299 52.7695 27.127 52.3613 25.5127 52.3613C20.3916 52.3613 16.2354 56.5176 16.2354 61.6387C16.2354 64.4033 17.4414 66.8711 19.3525 68.5781C19.5195 68.7822 35.8105 85.0732 45.7187 94.9629C46.3125 94.9815 46.9062 95 47.5 95C63.3828 94.7217 76.167 91.9199 83.9229 83.9229C91.4004 76.668 94.332 65.0156 94.9072 50.543C85.5186 41.0801 73.4394 28.9639 73.3467 28.8711Z" fill="url(#paint1_linear_1153_17716)"/>
<path d="M61.8057 50.4316C67.3393 50.4316 71.8252 45.9457 71.8252 40.4121C71.8252 34.8785 67.3393 30.3926 61.8057 30.3926C56.272 30.3926 51.7861 34.8785 51.7861 40.4121C51.7861 45.9457 56.272 50.4316 61.8057 50.4316Z" fill="url(#paint2_radial_1153_17716)"/>
<path d="M61.8057 29.335C61.2861 29.335 60.8779 28.9268 60.8779 28.4072V25.0117C60.8779 24.4922 61.2861 24.084 61.8057 24.084C62.3252 24.084 62.7334 24.4922 62.7334 25.0117V28.4072C62.7334 28.9082 62.3066 29.335 61.8057 29.335ZM53.957 32.5635C54.3096 32.2109 54.3096 31.6172 53.957 31.2646L51.5635 28.8711C51.2109 28.5186 50.6172 28.5186 50.2646 28.8711C49.9121 29.2236 49.9121 29.8174 50.2646 30.1699L52.6582 32.5635C52.8437 32.749 53.0664 32.8418 53.3076 32.8418C53.5488 32.8418 53.79 32.749 53.957 32.5635ZM50.7285 40.4121C50.7285 39.8926 50.3203 39.4844 49.8008 39.4844H46.4053C45.8857 39.4844 45.4775 39.8926 45.4775 40.4121C45.4775 40.9316 45.8857 41.3398 46.4053 41.3398H49.8008C50.3018 41.3398 50.7285 40.9131 50.7285 40.4121ZM51.5635 51.9531L53.957 49.5596C54.3096 49.207 54.3096 48.6133 53.957 48.2607C53.6045 47.9082 53.0107 47.9082 52.6582 48.2607L50.2646 50.6543C49.9121 51.0068 49.9121 51.6006 50.2646 51.9531C50.4502 52.1387 50.6728 52.2314 50.9141 52.2314C51.1553 52.2314 51.3965 52.1201 51.5635 51.9531ZM62.7334 55.8125V52.417C62.7334 51.8975 62.3252 51.4893 61.8057 51.4893C61.2861 51.4893 60.8779 51.8975 60.8779 52.417V55.8125C60.8779 56.332 61.2861 56.7402 61.8057 56.7402C62.3252 56.7402 62.7334 56.3135 62.7334 55.8125ZM73.3467 51.9531C73.6992 51.6006 73.6992 51.0068 73.3467 50.6543L70.9531 48.2422C70.6006 47.8896 70.0068 47.8896 69.6543 48.2422C69.3018 48.5947 69.3018 49.1885 69.6543 49.541L72.0478 51.9346C72.2334 52.1201 72.456 52.2129 72.6973 52.2129C72.9385 52.2129 73.1611 52.1201 73.3467 51.9531ZM78.1152 40.4121C78.1152 39.8926 77.707 39.4844 77.1875 39.4844H73.792C73.2725 39.4844 72.8643 39.8926 72.8643 40.4121C72.8643 40.9316 73.2725 41.3398 73.792 41.3398H77.1875C77.707 41.3398 78.1152 40.9131 78.1152 40.4121ZM70.9531 32.5635L73.3467 30.1699C73.6992 29.8174 73.6992 29.2236 73.3467 28.8711C72.9941 28.5186 72.4004 28.5186 72.0478 28.8711L69.6543 31.2646C69.3018 31.6172 69.3018 32.2109 69.6543 32.5635C69.8398 32.749 70.0625 32.8418 70.3037 32.8418C70.5264 32.8418 70.7676 32.749 70.9531 32.5635Z" fill="url(#paint3_linear_1153_17716)"/>
<path d="M64.0508 46.0156C62.9561 46.0156 61.8984 46.1641 60.8779 46.4238C58.0576 41.3398 52.6396 37.9072 46.4238 37.9072C37.6104 37.9072 30.4111 44.8096 29.9473 53.5117C28.6299 52.7881 27.127 52.3799 25.5127 52.3799C20.3916 52.3799 16.2354 56.5361 16.2354 61.6572C16.2354 66.7783 20.3916 70.9346 25.5127 70.9346H64.0508C70.9346 70.9346 76.501 65.3682 76.501 58.4844C76.501 51.6006 70.9346 46.0156 64.0508 46.0156Z" fill="url(#paint4_linear_1153_17716)"/>
<path d="M64.0508 70.916C70.9268 70.916 76.501 65.3419 76.501 58.4658C76.501 51.5898 70.9268 46.0156 64.0508 46.0156C57.1747 46.0156 51.6006 51.5898 51.6006 58.4658C51.6006 65.3419 57.1747 70.916 64.0508 70.916Z" fill="url(#paint5_linear_1153_17716)"/>
<path d="M25.5127 70.916C30.6364 70.916 34.79 66.7624 34.79 61.6387C34.79 56.5149 30.6364 52.3613 25.5127 52.3613C20.389 52.3613 16.2354 56.5149 16.2354 61.6387C16.2354 66.7624 20.389 70.916 25.5127 70.916Z" fill="url(#paint6_linear_1153_17716)"/>
</g>
<defs>
<linearGradient id="paint0_linear_1153_17716" x1="47.5" y1="0.361631" x2="47.5" y2="93.9745" gradientUnits="userSpaceOnUse">
<stop stop-color="#50B8FF"/>
<stop offset="0.3844" stop-color="#359DFF"/>
<stop offset="0.7467" stop-color="#238AFF"/>
<stop offset="1" stop-color="#1C83FF"/>
</linearGradient>
<linearGradient id="paint1_linear_1153_17716" x1="42.662" y1="45.0417" x2="81.7963" y2="84.1759" gradientUnits="userSpaceOnUse">
<stop stop-color="#027FD3"/>
<stop offset="0.0621918" stop-color="#027FD3" stop-opacity="0.938"/>
<stop offset="1" stop-color="#027FD3" stop-opacity="0"/>
</linearGradient>
<radialGradient id="paint2_radial_1153_17716" cx="0" cy="0" r="1" gradientUnits="userSpaceOnUse" gradientTransform="translate(61.5155 40.1214) scale(10.5738 10.5738)">
<stop offset="0.0324831" stop-color="#FFF5A9"/>
<stop offset="0.1534" stop-color="#FFF3A4"/>
<stop offset="0.2905" stop-color="#FFEF97"/>
<stop offset="0.4357" stop-color="#FFE780"/>
<stop offset="0.5864" stop-color="#FFDD60"/>
<stop offset="0.7399" stop-color="#FFCF38"/>
<stop offset="0.8617" stop-color="#FFC312"/>
<stop offset="0.8823" stop-color="#FFC417"/>
<stop offset="0.9051" stop-color="#FFC924"/>
<stop offset="0.9289" stop-color="#FFD03A"/>
<stop offset="0.9535" stop-color="#FFDA59"/>
<stop offset="0.9783" stop-color="#FFE880"/>
<stop offset="1" stop-color="#FFF5A9"/>
</radialGradient>
<linearGradient id="paint3_linear_1153_17716" x1="61.8027" y1="26.2803" x2="61.8027" y2="56.3203" gradientUnits="userSpaceOnUse">
<stop stop-color="#FFF5A9"/>
<stop offset="0.0059793" stop-color="#FFF5A8"/>
<stop offset="0.4891" stop-color="#FFDA58"/>
<stop offset="0.8318" stop-color="#FFC925"/>
<stop offset="1" stop-color="#FFC312"/>
</linearGradient>
<linearGradient id="paint4_linear_1153_17716" x1="46.3754" y1="70.9114" x2="46.3754" y2="37.8911" gradientUnits="userSpaceOnUse">
<stop offset="1.565e-07" stop-color="#8EBFFF"/>
<stop offset="0.2928" stop-color="#B2D4FF"/>
<stop offset="0.6112" stop-color="#D3E7FF"/>
<stop offset="0.7853" stop-color="#E0EEFF"/>
</linearGradient>
<linearGradient id="paint5_linear_1153_17716" x1="64.0528" y1="70.9114" x2="64.0528" y2="46.0073" gradientUnits="userSpaceOnUse">
<stop offset="0.3288" stop-color="#E0EEFF" stop-opacity="0"/>
<stop offset="0.9047" stop-color="#E0EEFF"/>
</linearGradient>
<linearGradient id="paint6_linear_1153_17716" x1="25.6771" y1="70.9101" x2="25.3535" y2="52.3736" gradientUnits="userSpaceOnUse">
<stop offset="0.3288" stop-color="#E0EEFF" stop-opacity="0"/>
<stop offset="0.9047" stop-color="#E0EEFF"/>
</linearGradient>
<clipPath id="clip0_1153_17716">
<rect width="95" height="95" fill="white"/>
</clipPath>
</defs>
</svg>
