<svg width="16" height="14" viewBox="0 0 16 14" fill="none" xmlns="http://www.w3.org/2000/svg">
<path d="M15.2 7C14.72 7 14.4 7.31111 14.4 7.77778C14.4 9.1 13.36 10.1111 12 10.1111H2.72L3.76 9.1C4.08 8.78889 4.08 8.32222 3.76 8.01111C3.44 7.7 2.96 7.7 2.64 8.01111L0.24 10.3444C0.16 10.4222 0.0799999 10.5 0.0799999 10.5778C-7.7486e-08 10.6556 0 10.8111 0 10.8889C0 10.9667 -7.7486e-08 11.1222 0.0799999 11.2C0.0799999 11.2778 0.16 11.3556 0.24 11.4333L2.64 13.7667C2.8 13.9222 2.96 14 3.2 14C3.44 14 3.6 13.9222 3.76 13.7667C4.08 13.4556 4.08 12.9889 3.76 12.6778L2.72 11.6667H12C14.24 11.6667 16 9.95556 16 7.77778C16 7.31111 15.68 7 15.2 7ZM15.92 2.8C15.92 2.72222 15.84 2.64444 15.76 2.56667L13.36 0.233333C13.04 -0.0777778 12.56 -0.0777778 12.24 0.233333C11.92 0.544444 11.92 1.01111 12.24 1.32222L13.28 2.33333H4C1.76 2.33333 0 4.04444 0 6.22222C0 6.68889 0.32 7 0.8 7C1.28 7 1.6 6.68889 1.6 6.22222C1.6 4.9 2.64 3.88889 4 3.88889H13.28L12.24 4.9C11.92 5.21111 11.92 5.67778 12.24 5.98889C12.56 6.3 13.04 6.3 13.36 5.98889L15.76 3.65556C15.84 3.57778 15.92 3.5 15.92 3.42222C16 3.34444 16 3.18889 16 3.11111C16 3.03333 16 2.87778 15.92 2.8Z" fill="#273043"/>
</svg>
