<svg width="40" height="40" viewBox="0 0 40 40" fill="none" xmlns="http://www.w3.org/2000/svg">
<circle cx="20" cy="20" r="20" fill="#E6FFD0"/>
<path fill-rule="evenodd" clip-rule="evenodd" d="M20.9668 15.2536H23.0135C25.4735 15.2536 26.6735 16.5669 26.6668 19.2603V22.5069C26.6668 25.0803 25.0802 26.6669 22.5002 26.6669H17.4935C14.9268 26.6669 13.3335 25.0803 13.3335 22.5003V17.4936C13.3335 14.7336 14.5602 13.3336 16.9802 13.3336H18.0335C18.6542 13.3269 19.2335 13.6136 19.6135 14.1003L20.2002 14.8803C20.3868 15.1136 20.6668 15.2536 20.9668 15.2536ZM16.9135 22.1936H23.0868C23.3602 22.1936 23.5802 21.9669 23.5802 21.6936C23.5802 21.4136 23.3602 21.1936 23.0868 21.1936H16.9135C16.6335 21.1936 16.4135 21.4136 16.4135 21.6936C16.4135 21.9669 16.6335 22.1936 16.9135 22.1936Z" fill="#689F3A"/>
</svg>
