<svg width="32" height="32" viewBox="0 0 32 32" fill="none" xmlns="http://www.w3.org/2000/svg">
<circle cx="16" cy="16" r="16" fill="#FFD0D0"/>
<path fill-rule="evenodd" clip-rule="evenodd" d="M21.5247 11.4953C21.7841 11.4953 22 11.7106 22 11.9846V12.238C22 12.5053 21.7841 12.7273 21.5247 12.7273H10.4759C10.2159 12.7273 10 12.5053 10 12.238V11.9846C10 11.7106 10.2159 11.4953 10.4759 11.4953H12.4197C12.8146 11.4953 13.1582 11.2147 13.247 10.8187L13.3488 10.364C13.507 9.74467 14.0277 9.33334 14.6235 9.33334H17.3765C17.9659 9.33334 18.4923 9.74467 18.6447 10.3313L18.7536 10.818C18.8418 11.2147 19.1854 11.4953 19.5809 11.4953H21.5247ZM20.5372 20.756C20.7402 18.8647 21.0955 14.3714 21.0955 14.3261C21.1084 14.1888 21.0637 14.0588 20.9749 13.9541C20.8796 13.8561 20.759 13.7981 20.626 13.7981H11.379C11.2455 13.7981 11.1184 13.8561 11.0302 13.9541C10.9407 14.0588 10.8966 14.1888 10.9031 14.3261C10.9043 14.3344 10.9171 14.4927 10.9384 14.7573C11.0331 15.9328 11.2968 19.2068 11.4672 20.756C11.5878 21.8973 12.3367 22.6147 13.4214 22.6407C14.2584 22.66 15.1207 22.6667 16.0025 22.6667C16.8331 22.6667 17.6766 22.66 18.5396 22.6407C19.6619 22.6213 20.4101 21.9167 20.5372 20.756Z" fill="#B80B0B"/>
</svg>
