<svg width="57" height="37" viewBox="0 0 57 37" fill="none" xmlns="http://www.w3.org/2000/svg">
<rect x="1" y="1" width="55" height="35" rx="17.5" fill="white"/>
<path fill-rule="evenodd" clip-rule="evenodd" d="M14.0603 10.8607C17.3407 7.58029 22.6593 7.58029 25.9397 10.8607C29.2201 14.1411 29.2201 19.4597 25.9397 22.7401L20 28.6798L14.0603 22.7401C10.7799 19.4597 10.7799 14.1411 14.0603 10.8607ZM20 19.2004C21.3255 19.2004 22.4 18.1259 22.4 16.8004C22.4 15.4749 21.3255 14.4004 20 14.4004C18.6745 14.4004 17.6 15.4749 17.6 16.8004C17.6 18.1259 18.6745 19.2004 20 19.2004Z" fill="#1358BF"/>
<path d="M37.6172 12.1504H41.6162C43.3271 12.1504 44.6221 12.3906 45.501 12.8711C46.3799 13.3516 46.8193 14.1953 46.8193 15.4023C46.8193 15.8887 46.7402 16.3281 46.582 16.7207C46.4297 17.1133 46.207 17.4355 45.9141 17.6875C45.6211 17.9395 45.2637 18.1035 44.8418 18.1797V18.2676C45.2695 18.3555 45.6562 18.5078 46.002 18.7246C46.3477 18.9355 46.623 19.2461 46.8281 19.6562C47.0391 20.0605 47.1445 20.5996 47.1445 21.2734C47.1445 22.0527 46.9541 22.7207 46.5732 23.2773C46.1924 23.834 45.6475 24.2617 44.9385 24.5605C44.2354 24.8535 43.3975 25 42.4248 25H37.6172V12.1504ZM40.3418 17.2393H41.9238C42.7148 17.2393 43.2627 17.1162 43.5674 16.8701C43.8721 16.6182 44.0244 16.249 44.0244 15.7627C44.0244 15.2705 43.8428 14.9189 43.4795 14.708C43.1221 14.4912 42.5537 14.3828 41.7744 14.3828H40.3418V17.2393ZM40.3418 19.4014V22.75H42.1172C42.9375 22.75 43.5088 22.5918 43.8311 22.2754C44.1533 21.959 44.3145 21.5342 44.3145 21.001C44.3145 20.6846 44.2441 20.4062 44.1035 20.166C43.9629 19.9258 43.7256 19.7383 43.3916 19.6035C43.0635 19.4688 42.6094 19.4014 42.0293 19.4014H40.3418Z" fill="#1358BF"/>
<rect x="1" y="1" width="55" height="35" rx="17.5" stroke="#7E8697" stroke-width="2"/>
</svg>
