<svg width="57" height="37" viewBox="0 0 57 37" fill="none" xmlns="http://www.w3.org/2000/svg">
<rect x="1" y="1" width="55" height="35" rx="17.5" fill="white"/>
<path fill-rule="evenodd" clip-rule="evenodd" d="M14.0603 10.8607C17.3407 7.58029 22.6593 7.58029 25.9397 10.8607C29.2201 14.1411 29.2201 19.4597 25.9397 22.7401L20 28.6798L14.0603 22.7401C10.7799 19.4597 10.7799 14.1411 14.0603 10.8607ZM20 19.2004C21.3255 19.2004 22.4 18.1259 22.4 16.8004C22.4 15.4749 21.3255 14.4004 20 14.4004C18.6745 14.4004 17.6 15.4749 17.6 16.8004C17.6 18.1259 18.6745 19.2004 20 19.2004Z" fill="#689F3A"/>
<path d="M45.4834 25L44.5518 21.9414H39.8672L38.9355 25H36L40.5352 12.0977H43.8662L48.4189 25H45.4834ZM43.9014 19.6562L42.9697 16.668C42.9111 16.4688 42.832 16.2139 42.7324 15.9033C42.6387 15.5869 42.542 15.2676 42.4424 14.9453C42.3486 14.6172 42.2725 14.333 42.2139 14.0928C42.1553 14.333 42.0732 14.6318 41.9678 14.9893C41.8682 15.3408 41.7715 15.6748 41.6777 15.9912C41.584 16.3076 41.5166 16.5332 41.4756 16.668L40.5527 19.6562H43.9014Z" fill="#689F3A"/>
<rect x="1" y="1" width="55" height="35" rx="17.5" stroke="#7E8697" stroke-width="2"/>
</svg>
