<svg width="36" height="36" viewBox="0 0 36 36" fill="none" xmlns="http://www.w3.org/2000/svg">
<rect x="0.5" y="0.5" width="35" height="35" rx="7.5" fill="#EBF5FF" stroke="#E4F0FD"/>
<path d="M17.3583 14.0751V10.7343C17.3583 10.379 17.6416 10.083 17.9999 10.083C18.3208 10.083 18.5926 10.3318 18.6356 10.6468L18.6416 10.7343V14.0751L22.6248 14.0754C24.6082 14.0754 26.2376 15.6995 26.3291 17.725L26.3332 17.9047V22.1042C26.3332 24.1439 24.7604 25.8182 22.8065 25.9122L22.6332 25.9163H13.3665C11.3832 25.9163 9.76158 24.3003 9.67054 22.2674L9.6665 22.087L9.6665 17.8961C9.6665 15.8564 11.2314 14.174 13.1848 14.0795L13.3582 14.0754H17.3582V19.4107L16.0248 18.0338C15.7748 17.7757 15.3665 17.7757 15.1165 18.0338C14.9915 18.1629 14.9332 18.335 14.9332 18.5071C14.9332 18.6379 14.9705 18.7742 15.0494 18.8896L15.1165 18.9718L17.5415 21.4846C17.6582 21.6137 17.8248 21.6825 17.9998 21.6825C18.1387 21.6825 18.2776 21.6347 18.3876 21.5441L18.4498 21.4846L20.8748 18.9718C21.1248 18.7137 21.1248 18.292 20.8748 18.0338C20.6476 17.7991 20.2894 17.7778 20.0384 17.9698L19.9665 18.0338L18.6415 19.4107V14.0754L17.3583 14.0751Z" fill="#1358BF"/>
</svg>
