<svg width="28" height="28" viewBox="0 0 28 28" fill="none" xmlns="http://www.w3.org/2000/svg">
<circle cx="14" cy="14" r="14" fill="#EDFFDE"/>
<path fill-rule="evenodd" clip-rule="evenodd" d="M8.33325 12.8787C8.33325 9.81209 10.8958 7.3335 13.9955 7.3335C17.104 7.3335 19.6666 9.81209 19.6666 12.8787C19.6666 14.424 19.1046 15.8586 18.1796 17.0745C17.1591 18.4158 15.9014 19.5845 14.4856 20.5018C14.1616 20.7138 13.8692 20.7298 13.5136 20.5018C12.0897 19.5845 10.832 18.4158 9.82025 17.0745C8.89457 15.8586 8.33325 14.424 8.33325 12.8787ZM12.1294 13.0513C12.1294 14.0786 12.9677 14.8866 13.9955 14.8866C15.0241 14.8866 15.8704 14.0786 15.8704 13.0513C15.8704 12.032 15.0241 11.1847 13.9955 11.1847C12.9677 11.1847 12.1294 12.032 12.1294 13.0513Z" fill="#689F3A"/>
</svg>
