<svg width="233" height="162" viewBox="0 0 233 162" fill="none" xmlns="http://www.w3.org/2000/svg">
<rect width="233" height="162" rx="4" fill="#EAEAED"/>
<path d="M96.0833 85.2498V85.2907M136.917 93.4165C136.917 95.5824 137.777 97.6597 139.309 99.1912C140.84 100.723 142.917 101.583 145.083 101.583C147.249 101.583 149.326 100.723 150.858 99.1912C152.39 97.6597 153.25 95.5824 153.25 93.4165C153.25 91.2506 152.39 89.1733 150.858 87.6418C149.326 86.1103 147.249 85.2498 145.083 85.2498C142.917 85.2498 140.84 86.1103 139.309 87.6418C137.777 89.1733 136.917 91.2506 136.917 93.4165ZM136.917 93.4165H110.375M149.167 86.0665V68.9165C149.167 67.8335 148.736 66.7949 147.971 66.0292C147.205 65.2634 146.166 64.8332 145.083 64.8332H120.583L112.417 44.4165H87.9167V70.9582M141 44.4165H136.917C135.834 44.4165 134.795 44.8467 134.029 45.6125C133.264 46.3783 132.833 47.4169 132.833 48.4998V64.8332M79.75 85.2498C79.75 89.5817 81.4708 93.7362 84.5339 96.7992C87.597 99.8623 91.7515 101.583 96.0833 101.583C100.415 101.583 104.57 99.8623 107.633 96.7992C110.696 93.7362 112.417 89.5817 112.417 85.2498C112.417 80.918 110.696 76.7635 107.633 73.7004C104.57 70.6373 100.415 68.9165 96.0833 68.9165C91.7515 68.9165 87.597 70.6373 84.5339 73.7004C81.4708 76.7635 79.75 80.918 79.75 85.2498Z" stroke="#A5A8AD" stroke-width="4" stroke-linecap="round" stroke-linejoin="round"/>
<path d="M73.9961 128.438C73.9961 129.012 73.791 129.475 73.3809 129.826C72.9707 130.178 72.4512 130.398 71.8223 130.488V130.523C72.6035 130.602 73.2051 130.818 73.627 131.174C74.0488 131.529 74.2598 131.992 74.2598 132.562C74.2598 133.062 74.123 133.506 73.8496 133.893C73.5762 134.275 73.1719 134.576 72.6367 134.795C72.1016 135.01 71.4395 135.117 70.6504 135.117C70.002 135.117 69.4258 135.078 68.9219 135C68.4219 134.918 67.9883 134.803 67.6211 134.654V133.131C67.8711 133.248 68.1504 133.35 68.459 133.436C68.7715 133.518 69.0879 133.582 69.4082 133.629C69.7285 133.672 70.0254 133.693 70.2988 133.693C71.0566 133.693 71.6055 133.584 71.9453 133.365C72.2891 133.146 72.4609 132.836 72.4609 132.434C72.4609 132.023 72.2129 131.725 71.7168 131.537C71.2207 131.35 70.5527 131.256 69.7129 131.256H68.9102V129.838H69.6309C70.3105 129.838 70.8379 129.795 71.2129 129.709C71.5918 129.619 71.8555 129.492 72.0039 129.328C72.1562 129.16 72.2324 128.959 72.2324 128.725C72.2324 128.432 72.1016 128.199 71.8398 128.027C71.5781 127.852 71.1895 127.764 70.6738 127.764C70.2285 127.764 69.8125 127.828 69.4258 127.957C69.0391 128.082 68.6777 128.25 68.3418 128.461L67.5508 127.248C67.8438 127.057 68.1562 126.891 68.4883 126.75C68.8242 126.609 69.1914 126.502 69.5898 126.428C69.9883 126.35 70.4336 126.311 70.9258 126.311C71.5703 126.311 72.1211 126.402 72.5781 126.586C73.0352 126.77 73.3848 127.021 73.627 127.342C73.873 127.658 73.9961 128.023 73.9961 128.438ZM78.4023 128.314C79.2812 128.314 79.9551 128.506 80.4238 128.889C80.8926 129.271 81.127 129.854 81.127 130.635V135H79.8789L79.5332 134.109H79.4863C79.2988 134.344 79.1074 134.535 78.9121 134.684C78.7168 134.832 78.4922 134.941 78.2383 135.012C77.9844 135.082 77.6758 135.117 77.3125 135.117C76.9258 135.117 76.5781 135.043 76.2695 134.895C75.9648 134.746 75.7246 134.52 75.5488 134.215C75.373 133.906 75.2852 133.516 75.2852 133.043C75.2852 132.348 75.5293 131.836 76.0176 131.508C76.5059 131.176 77.2383 130.992 78.2148 130.957L79.3516 130.922V130.635C79.3516 130.291 79.2617 130.039 79.082 129.879C78.9023 129.719 78.6523 129.639 78.332 129.639C78.0156 129.639 77.7051 129.684 77.4004 129.773C77.0957 129.863 76.791 129.977 76.4863 130.113L75.8945 128.906C76.2422 128.723 76.6309 128.578 77.0605 128.473C77.4941 128.367 77.9414 128.314 78.4023 128.314ZM79.3516 131.965L78.6602 131.988C78.082 132.004 77.6797 132.107 77.4531 132.299C77.2305 132.49 77.1191 132.742 77.1191 133.055C77.1191 133.328 77.1992 133.523 77.3594 133.641C77.5195 133.754 77.7285 133.811 77.9863 133.811C78.3691 133.811 78.6914 133.697 78.9531 133.471C79.2188 133.244 79.3516 132.922 79.3516 132.504V131.965ZM87.4961 128.449V129.791H84.7598V135H82.9727V128.449H87.4961ZM92.3594 128.326C93.0977 128.326 93.6934 128.613 94.1465 129.188C94.6035 129.762 94.832 130.604 94.832 131.713C94.832 132.455 94.7246 133.08 94.5098 133.588C94.2949 134.092 93.998 134.473 93.6191 134.73C93.2402 134.988 92.8047 135.117 92.3125 135.117C91.9961 135.117 91.7246 135.078 91.498 135C91.2715 134.918 91.0781 134.814 90.918 134.689C90.7578 134.561 90.6191 134.424 90.502 134.279H90.4082C90.4395 134.436 90.4629 134.596 90.4785 134.76C90.4941 134.924 90.502 135.084 90.502 135.24V137.883H88.7148V128.449H90.168L90.4199 129.299H90.502C90.6191 129.123 90.7617 128.961 90.9297 128.812C91.0977 128.664 91.2988 128.547 91.5332 128.461C91.7715 128.371 92.0469 128.326 92.3594 128.326ZM91.7852 129.756C91.4727 129.756 91.2246 129.82 91.041 129.949C90.8574 130.078 90.7227 130.271 90.6367 130.529C90.5547 130.787 90.5098 131.113 90.502 131.508V131.701C90.502 132.123 90.541 132.48 90.6191 132.773C90.7012 133.066 90.8359 133.289 91.0234 133.441C91.2148 133.594 91.4766 133.67 91.8086 133.67C92.082 133.67 92.3066 133.594 92.4824 133.441C92.6582 133.289 92.7891 133.066 92.875 132.773C92.9648 132.477 93.0098 132.115 93.0098 131.689C93.0098 131.049 92.9102 130.566 92.7109 130.242C92.5117 129.918 92.2031 129.756 91.7852 129.756ZM95.3711 128.449H97.3281L98.5645 132.135C98.6035 132.252 98.6367 132.371 98.6641 132.492C98.6914 132.613 98.7148 132.738 98.7344 132.867C98.7539 132.996 98.7695 133.131 98.7812 133.271H98.8164C98.8398 133.061 98.8711 132.863 98.9102 132.68C98.9531 132.496 99.0059 132.314 99.0684 132.135L100.281 128.449H102.197L99.4258 135.838C99.2578 136.291 99.0391 136.668 98.7695 136.969C98.5 137.273 98.1895 137.502 97.8379 137.654C97.4902 137.807 97.1074 137.883 96.6895 137.883C96.4863 137.883 96.3105 137.871 96.1621 137.848C96.0137 137.828 95.8867 137.807 95.7812 137.783V136.365C95.8633 136.385 95.9668 136.402 96.0918 136.418C96.2168 136.434 96.3477 136.441 96.4844 136.441C96.7344 136.441 96.9492 136.389 97.1289 136.283C97.3086 136.178 97.459 136.035 97.5801 135.855C97.7012 135.68 97.7969 135.486 97.8672 135.275L97.9727 134.953L95.3711 128.449ZM105.525 128.326C105.998 128.326 106.439 128.389 106.85 128.514C107.26 128.635 107.592 128.824 107.846 129.082C108.1 129.336 108.227 129.664 108.227 130.066C108.227 130.461 108.107 130.775 107.869 131.01C107.631 131.24 107.314 131.406 106.92 131.508V131.566C107.197 131.633 107.447 131.723 107.67 131.836C107.896 131.949 108.076 132.105 108.209 132.305C108.342 132.504 108.408 132.766 108.408 133.09C108.408 133.453 108.293 133.789 108.062 134.098C107.832 134.402 107.479 134.648 107.002 134.836C106.529 135.023 105.922 135.117 105.18 135.117C104.828 135.117 104.496 135.102 104.184 135.07C103.875 135.039 103.592 134.994 103.334 134.936C103.076 134.873 102.852 134.799 102.66 134.713V133.236C102.93 133.361 103.262 133.477 103.656 133.582C104.055 133.688 104.479 133.74 104.928 133.74C105.252 133.74 105.545 133.717 105.807 133.67C106.072 133.623 106.281 133.545 106.434 133.436C106.59 133.322 106.668 133.172 106.668 132.984C106.668 132.809 106.6 132.664 106.463 132.551C106.33 132.434 106.125 132.348 105.848 132.293C105.574 132.234 105.227 132.205 104.805 132.205H104.113V130.969H104.77C105.363 130.969 105.822 130.92 106.146 130.822C106.471 130.725 106.633 130.545 106.633 130.283C106.633 130.072 106.529 129.914 106.322 129.809C106.115 129.703 105.773 129.65 105.297 129.65C104.988 129.65 104.648 129.688 104.277 129.762C103.906 129.832 103.559 129.934 103.234 130.066L102.707 128.818C103.086 128.674 103.496 128.557 103.938 128.467C104.383 128.373 104.912 128.326 105.525 128.326ZM111.537 128.449V131.039C111.537 131.172 111.531 131.34 111.52 131.543C111.512 131.742 111.5 131.945 111.484 132.152C111.469 132.359 111.453 132.545 111.438 132.709C111.422 132.873 111.41 132.984 111.402 133.043L114.426 128.449H116.576V135H114.848V132.387C114.848 132.172 114.855 131.936 114.871 131.678C114.887 131.416 114.904 131.17 114.924 130.939C114.943 130.709 114.957 130.535 114.965 130.418L111.953 135H109.809V128.449H111.537ZM123.877 129.791H121.732V135H119.945V129.791H117.795V128.449H123.877V129.791ZM126.889 130.98H128.148C128.82 130.98 129.375 131.051 129.812 131.191C130.25 131.332 130.576 131.547 130.791 131.836C131.006 132.121 131.113 132.48 131.113 132.914C131.113 133.336 131.016 133.703 130.82 134.016C130.625 134.328 130.314 134.57 129.889 134.742C129.463 134.914 128.906 135 128.219 135H125.102V128.449H126.889V130.98ZM129.326 132.938C129.326 132.684 129.225 132.5 129.021 132.387C128.818 132.273 128.516 132.217 128.113 132.217H126.889V133.764H128.137C128.484 133.764 128.77 133.701 128.992 133.576C129.215 133.447 129.326 133.234 129.326 132.938ZM140.377 125.883V128.414C141.135 128.477 141.773 128.654 142.293 128.947C142.812 129.236 143.207 129.619 143.477 130.096C143.746 130.568 143.881 131.111 143.881 131.725C143.881 132.334 143.75 132.877 143.488 133.354C143.23 133.83 142.842 134.215 142.322 134.508C141.807 134.801 141.158 134.98 140.377 135.047V137.883H138.719V135.047C137.965 134.977 137.326 134.795 136.803 134.502C136.279 134.205 135.879 133.82 135.602 133.348C135.328 132.871 135.191 132.33 135.191 131.725C135.191 131.1 135.318 130.549 135.572 130.072C135.826 129.592 136.213 129.209 136.732 128.924C137.256 128.635 137.918 128.465 138.719 128.414V125.883H140.377ZM138.719 129.756C138.371 129.803 138.07 129.916 137.816 130.096C137.566 130.275 137.373 130.506 137.236 130.787C137.1 131.064 137.031 131.377 137.031 131.725C137.031 132.08 137.096 132.398 137.225 132.68C137.357 132.957 137.549 133.184 137.799 133.359C138.053 133.535 138.359 133.646 138.719 133.693V129.756ZM140.377 129.779V133.693C140.732 133.646 141.033 133.535 141.279 133.359C141.529 133.184 141.719 132.957 141.848 132.68C141.98 132.398 142.047 132.08 142.047 131.725C142.047 131.201 141.896 130.764 141.596 130.412C141.299 130.057 140.893 129.846 140.377 129.779ZM151.316 131.713C151.316 132.26 151.242 132.744 151.094 133.166C150.949 133.588 150.736 133.945 150.455 134.238C150.178 134.527 149.842 134.746 149.447 134.895C149.057 135.043 148.615 135.117 148.123 135.117C147.662 135.117 147.238 135.043 146.852 134.895C146.469 134.746 146.135 134.527 145.85 134.238C145.568 133.945 145.35 133.588 145.193 133.166C145.041 132.744 144.965 132.26 144.965 131.713C144.965 130.986 145.094 130.371 145.352 129.867C145.609 129.363 145.977 128.98 146.453 128.719C146.93 128.457 147.498 128.326 148.158 128.326C148.771 128.326 149.314 128.457 149.787 128.719C150.264 128.98 150.637 129.363 150.906 129.867C151.18 130.371 151.316 130.986 151.316 131.713ZM146.787 131.713C146.787 132.143 146.834 132.504 146.928 132.797C147.021 133.09 147.168 133.311 147.367 133.459C147.566 133.607 147.826 133.682 148.146 133.682C148.463 133.682 148.719 133.607 148.914 133.459C149.113 133.311 149.258 133.09 149.348 132.797C149.441 132.504 149.488 132.143 149.488 131.713C149.488 131.279 149.441 130.92 149.348 130.635C149.258 130.346 149.113 130.129 148.914 129.984C148.715 129.84 148.455 129.768 148.135 129.768C147.662 129.768 147.318 129.93 147.104 130.254C146.893 130.578 146.787 131.064 146.787 131.713ZM158.213 129.791H156.068V135H154.281V129.791H152.131V128.449H158.213V129.791ZM165.391 131.713C165.391 132.26 165.316 132.744 165.168 133.166C165.023 133.588 164.811 133.945 164.529 134.238C164.252 134.527 163.916 134.746 163.521 134.895C163.131 135.043 162.689 135.117 162.197 135.117C161.736 135.117 161.312 135.043 160.926 134.895C160.543 134.746 160.209 134.527 159.924 134.238C159.643 133.945 159.424 133.588 159.268 133.166C159.115 132.744 159.039 132.26 159.039 131.713C159.039 130.986 159.168 130.371 159.426 129.867C159.684 129.363 160.051 128.98 160.527 128.719C161.004 128.457 161.572 128.326 162.232 128.326C162.846 128.326 163.389 128.457 163.861 128.719C164.338 128.98 164.711 129.363 164.98 129.867C165.254 130.371 165.391 130.986 165.391 131.713ZM160.861 131.713C160.861 132.143 160.908 132.504 161.002 132.797C161.096 133.09 161.242 133.311 161.441 133.459C161.641 133.607 161.9 133.682 162.221 133.682C162.537 133.682 162.793 133.607 162.988 133.459C163.188 133.311 163.332 133.09 163.422 132.797C163.516 132.504 163.562 132.143 163.562 131.713C163.562 131.279 163.516 130.92 163.422 130.635C163.332 130.346 163.188 130.129 162.988 129.984C162.789 129.84 162.529 129.768 162.209 129.768C161.736 129.768 161.393 129.93 161.178 130.254C160.967 130.578 160.861 131.064 160.861 131.713Z" fill="#A5A8AD"/>
<rect x="0.5" y="0.5" width="232" height="161" rx="3.5" stroke="#273043" stroke-opacity="0.35" stroke-dasharray="6 6"/>
</svg>
