<svg width="28" height="28" viewBox="0 0 28 28" fill="none" xmlns="http://www.w3.org/2000/svg">
<circle cx="14" cy="14" r="14" fill="#FF1E1E"/>
<path d="M20.1795 11.9195H18.8043V11.06C18.8043 10.7506 18.9074 10.4583 19.0793 10.2177C19.1653 10.0973 19.1653 9.90825 19.045 9.8051L18.5808 9.28939C18.4605 9.15187 18.237 9.13468 18.0995 9.25501C18.0823 9.2722 18.0651 9.28939 18.0479 9.30658C17.6525 9.8051 17.4291 10.424 17.4291 11.06V11.9195H15.2287L14.0254 9.1003C13.8707 8.72211 13.4925 8.48145 13.0799 8.48145H10.2091C9.64183 8.48145 9.17769 8.94559 9.17769 9.51287V12.6587C8.9886 12.504 8.73074 12.5212 8.55884 12.6931L7.88841 13.3635C7.69932 13.5526 7.69932 13.8448 7.88841 14.0339L7.99156 14.1371C7.88841 14.3262 7.80246 14.5325 7.7337 14.7559H7.57899C7.32113 14.7559 7.09766 14.9622 7.09766 15.2373V16.1827C7.09766 16.4406 7.30394 16.6641 7.57899 16.6641H7.7337C7.80246 16.8703 7.88841 17.0766 7.99156 17.2829L7.88841 17.3861C7.69932 17.5752 7.69932 17.8674 7.88841 18.0565L8.55884 18.7269C8.74793 18.916 9.04017 18.916 9.22926 18.7269L9.3324 18.6238C9.5215 18.7269 9.72778 18.8129 9.95126 18.8816V19.0363C9.95126 19.2942 10.1575 19.5177 10.4326 19.5177H11.3781C11.6359 19.5177 11.8594 19.3114 11.8594 19.0363V18.8816C12.0657 18.8129 12.272 18.7269 12.4782 18.6238L12.5814 18.7269C12.7705 18.916 13.0627 18.916 13.2518 18.7269L13.9222 18.0565C14.1113 17.8674 14.1113 17.5752 13.9222 17.3861L13.8191 17.2829C13.9222 17.0938 14.0082 16.8875 14.0769 16.6641H14.2317C14.4895 16.6641 14.713 16.4578 14.713 16.1827V16.0452H16.4492C17.1712 15.0482 18.5121 14.7387 19.6122 15.2716L20.6952 14.1715C20.8156 14.0511 20.9015 13.862 20.9015 13.6901V12.6071C20.8671 12.2289 20.5577 11.9195 20.1795 11.9195ZM10.8967 17.4204C9.95126 17.4204 9.17769 16.6469 9.17769 15.7014C9.17769 14.7559 9.95126 13.9824 10.8967 13.9824C11.8422 13.9824 12.6158 14.7559 12.6158 15.7014C12.6158 16.6469 11.8422 17.4204 10.8967 17.4204ZM11.3781 11.9195H10.5529V9.85667H12.8564L13.7503 11.9195H11.3781Z" fill="white"/>
<path d="M18.4603 15.7012C17.4117 15.7012 16.5693 16.5435 16.5693 17.5921C16.5693 18.6407 17.4117 19.4831 18.4603 19.4831C19.5089 19.4831 20.3512 18.6407 20.3512 17.5921C20.3512 16.5435 19.5089 15.7012 18.4603 15.7012ZM18.4603 18.1078C18.168 18.1078 17.9446 17.8843 17.9446 17.5921C17.9446 17.2999 18.168 17.0764 18.4603 17.0764C18.7525 17.0764 18.976 17.2999 18.976 17.5921C18.976 17.8843 18.7525 18.1078 18.4603 18.1078Z" fill="white"/>
</svg>
