<svg width="32" height="32" viewBox="0 0 32 32" fill="none" xmlns="http://www.w3.org/2000/svg">
<circle cx="16" cy="16" r="16" fill="#E6FFD0"/>
<path fill-rule="evenodd" clip-rule="evenodd" d="M19.682 12.9308V13.953C20.8302 14.3114 21.6668 15.3509 21.6668 16.5924V19.8837C21.6668 21.4206 20.3926 22.6668 18.8216 22.6668H13.1794C11.6077 22.6668 10.3335 21.4206 10.3335 19.8837V16.5924C10.3335 15.3509 11.1708 14.3114 12.3184 13.953V12.9308C12.3251 10.9433 13.9713 9.33345 15.99 9.33345C18.0358 9.33345 19.682 10.9433 19.682 12.9308ZM16.0036 10.4928C17.3787 10.4928 18.4965 11.5859 18.4965 12.9308V13.8093H13.5038V12.9175C13.5106 11.5793 14.6284 10.4928 16.0036 10.4928ZM16.5929 18.9701C16.5929 19.2947 16.3287 19.5531 15.9968 19.5531C15.6716 19.5531 15.4074 19.2947 15.4074 18.9701V17.4993C15.4074 17.1813 15.6716 16.923 15.9968 16.923C16.3287 16.923 16.5929 17.1813 16.5929 17.4993V18.9701Z" fill="#689F3A"/>
</svg>
