<svg width="20" height="20" viewBox="0 0 20 20" fill="none" xmlns="http://www.w3.org/2000/svg">
<path fill-rule="evenodd" clip-rule="evenodd" d="M8.24547 9.35866C7.88089 9.35866 7.59261 9.64199 7.59261 10.0003C7.59261 10.3503 7.88089 10.642 8.24547 10.642H13.3327V14.6253C13.3327 16.667 11.6454 18.3337 9.55967 18.3337H5.43055C3.35327 18.3337 1.66602 16.6753 1.66602 14.6337V5.37533C1.66602 3.32533 3.36175 1.66699 5.43903 1.66699H9.57663C11.6454 1.66699 13.3327 3.32533 13.3327 5.36699V9.35866H8.24547ZM16.3578 7.11716L18.7912 9.54216C18.9162 9.66716 18.9828 9.82549 18.9828 10.0005C18.9828 10.1672 18.9162 10.3338 18.7912 10.4505L16.3578 12.8755C16.2328 13.0005 16.0662 13.0672 15.9078 13.0672C15.7412 13.0672 15.5745 13.0005 15.4495 12.8755C15.1995 12.6255 15.1995 12.2172 15.4495 11.9672L16.7828 10.6422H13.3328V9.35883H16.7828L15.4495 8.03383C15.1995 7.78383 15.1995 7.37549 15.4495 7.12549C15.6995 6.86716 16.1078 6.86716 16.3578 7.11716Z" fill="#B80B0B"/>
</svg>
