<svg width="37" height="37" viewBox="0 0 37 37" fill="none" xmlns="http://www.w3.org/2000/svg">
<rect x="0.5" y="0.5" width="36" height="36" rx="18" fill="#FF8A1E"/>
<rect x="6.5" y="6.5" width="24" height="24" rx="12" fill="#FF8A1E"/>
<path d="M13.5 21.5V21.51M23.5 23.5C23.5 24.0304 23.7107 24.5391 24.0858 24.9142C24.4609 25.2893 24.9696 25.5 25.5 25.5C26.0304 25.5 26.5391 25.2893 26.9142 24.9142C27.2893 24.5391 27.5 24.0304 27.5 23.5C27.5 22.9696 27.2893 22.4609 26.9142 22.0858C26.5391 21.7107 26.0304 21.5 25.5 21.5C24.9696 21.5 24.4609 21.7107 24.0858 22.0858C23.7107 22.4609 23.5 22.9696 23.5 23.5ZM23.5 23.5H17M26.5 21.7V17.5C26.5 17.2348 26.3946 16.9804 26.2071 16.7929C26.0196 16.6054 25.7652 16.5 25.5 16.5H19.5L17.5 11.5L11.5 11.5V18M24.5 11.5H23.5C23.2348 11.5 22.9804 11.6054 22.7929 11.7929C22.6054 11.9804 22.5 12.2348 22.5 12.5V16.5M9.5 21.5C9.5 22.5609 9.92143 23.5783 10.6716 24.3284C11.4217 25.0786 12.4391 25.5 13.5 25.5C14.5609 25.5 15.5783 25.0786 16.3284 24.3284C17.0786 23.5783 17.5 22.5609 17.5 21.5C17.5 20.4391 17.0786 19.4217 16.3284 18.6716C15.5783 17.9214 14.5609 17.5 13.5 17.5C12.4391 17.5 11.4217 17.9214 10.6716 18.6716C9.92143 19.4217 9.5 20.4391 9.5 21.5Z" stroke="white" stroke-width="2" stroke-linecap="round" stroke-linejoin="round"/>
</svg>
