<svg width="32" height="32" viewBox="0 0 32 32" fill="none" xmlns="http://www.w3.org/2000/svg">
<rect width="32" height="32" rx="16" fill="#689F3A"/>
<path fill-rule="evenodd" clip-rule="evenodd" d="M10.3335 14.8786C10.3335 11.812 12.8961 9.33345 15.9958 9.33345C19.1042 9.33345 21.6668 11.812 21.6668 14.8786C21.6668 16.4239 21.1048 17.8585 20.1798 19.0745C19.1594 20.4158 17.9016 21.5844 16.4859 22.5017C16.1618 22.7137 15.8694 22.7297 15.5138 22.5017C14.09 21.5844 12.8322 20.4158 11.8205 19.0745C10.8948 17.8585 10.3335 16.4239 10.3335 14.8786ZM14.1296 15.0513C14.1296 16.0786 14.9679 16.8866 15.9958 16.8866C17.0243 16.8866 17.8707 16.0786 17.8707 15.0513C17.8707 14.032 17.0243 13.1847 15.9958 13.1847C14.9679 13.1847 14.1296 14.032 14.1296 15.0513Z" fill="white"/>
</svg>
