<svg width="20" height="21" viewBox="0 0 20 21" fill="none" xmlns="http://www.w3.org/2000/svg">
<path fill-rule="evenodd" clip-rule="evenodd" d="M3.75 6.375C3.75 4.40609 3.77108 3.75 6.375 3.75C8.97892 3.75 9 4.40609 9 6.375C9 8.34391 9.0083 9 6.375 9C3.7417 9 3.75 8.34391 3.75 6.375Z" stroke="#6E737B" stroke-width="1.5" stroke-linecap="round" stroke-linejoin="round"/>
<path fill-rule="evenodd" clip-rule="evenodd" d="M12 6.375C12 4.40609 12.0211 3.75 14.625 3.75C17.2289 3.75 17.25 4.40609 17.25 6.375C17.25 8.34391 17.2583 9 14.625 9C11.9917 9 12 8.34391 12 6.375Z" stroke="#6E737B" stroke-width="1.5" stroke-linecap="round" stroke-linejoin="round"/>
<path fill-rule="evenodd" clip-rule="evenodd" d="M3.75 14.625C3.75 12.6561 3.77108 12 6.375 12C8.97892 12 9 12.6561 9 14.625C9 16.5939 9.0083 17.25 6.375 17.25C3.7417 17.25 3.75 16.5939 3.75 14.625Z" stroke="#6E737B" stroke-width="1.5" stroke-linecap="round" stroke-linejoin="round"/>
<path fill-rule="evenodd" clip-rule="evenodd" d="M12 14.625C12 12.6561 12.0211 12 14.625 12C17.2289 12 17.25 12.6561 17.25 14.625C17.25 16.5939 17.2583 17.25 14.625 17.25C11.9917 17.25 12 16.5939 12 14.625Z" stroke="#6E737B" stroke-width="1.5" stroke-linecap="round" stroke-linejoin="round"/>
</svg>
