<svg width="21" height="21" viewBox="0 0 21 21" fill="none" xmlns="http://www.w3.org/2000/svg">
<mask id="mask0_2191_12103" style="mask-type:luminance" maskUnits="userSpaceOnUse" x="3" y="3" width="16" height="16">
<path d="M19 3H3.25V18.75H19V3Z" fill="white"/>
</mask>
<g mask="url(#mask0_2191_12103)">
<mask id="mask1_2191_12103" style="mask-type:luminance" maskUnits="userSpaceOnUse" x="3" y="3" width="16" height="16">
<path d="M3.25 3H19V18.75H3.25V3Z" fill="white"/>
</mask>
<g mask="url(#mask1_2191_12103)">
<path d="M14.2627 18.1348H7.9873C7.34171 18.1348 6.81836 17.6114 6.81836 16.9658V4.78418C6.81836 4.13859 7.34171 3.61524 7.9873 3.61524H14.2627C14.9083 3.61524 15.4316 4.13859 15.4316 4.78418V16.9658C15.4316 17.6114 14.9083 18.1348 14.2627 18.1348Z" stroke="#6E737B" stroke-width="1.4" stroke-miterlimit="10" stroke-linecap="round" stroke-linejoin="round"/>
<path d="M9.95605 15.6246H12.2939" stroke="#6E737B" stroke-width="1.4" stroke-miterlimit="10" stroke-linecap="round" stroke-linejoin="round"/>
<path d="M11.8018 5.33789H10.4482C9.80265 5.33789 9.2793 4.81454 9.2793 4.16895V3.61523H12.9707V4.16895C12.9707 4.81454 12.4474 5.33789 11.8018 5.33789Z" fill="#6E737B"/>
</g>
</g>
</svg>
