<svg width="21" height="21" viewBox="0 0 21 21" fill="none" xmlns="http://www.w3.org/2000/svg">
<path fill-rule="evenodd" clip-rule="evenodd" d="M4.5 6.375C4.5 4.40609 4.52108 3.75 7.125 3.75C9.72892 3.75 9.75 4.40609 9.75 6.375C9.75 8.34391 9.7583 9 7.125 9C4.4917 9 4.5 8.34391 4.5 6.375Z" stroke="#6E737B" stroke-width="1.5" stroke-linecap="round" stroke-linejoin="round"/>
<path fill-rule="evenodd" clip-rule="evenodd" d="M12.75 6.375C12.75 4.40609 12.7711 3.75 15.375 3.75C17.9789 3.75 18 4.40609 18 6.375C18 8.34391 18.0083 9 15.375 9C12.7417 9 12.75 8.34391 12.75 6.375Z" stroke="#6E737B" stroke-width="1.5" stroke-linecap="round" stroke-linejoin="round"/>
<path fill-rule="evenodd" clip-rule="evenodd" d="M4.5 14.625C4.5 12.6561 4.52108 12 7.125 12C9.72892 12 9.75 12.6561 9.75 14.625C9.75 16.5939 9.7583 17.25 7.125 17.25C4.4917 17.25 4.5 16.5939 4.5 14.625Z" stroke="#6E737B" stroke-width="1.5" stroke-linecap="round" stroke-linejoin="round"/>
<path fill-rule="evenodd" clip-rule="evenodd" d="M12.75 14.625C12.75 12.6561 12.7711 12 15.375 12C17.9789 12 18 12.6561 18 14.625C18 16.5939 18.0083 17.25 15.375 17.25C12.7417 17.25 12.75 16.5939 12.75 14.625Z" stroke="#6E737B" stroke-width="1.5" stroke-linecap="round" stroke-linejoin="round"/>
</svg>
