<svg width="28" height="28" viewBox="0 0 28 28" fill="none" xmlns="http://www.w3.org/2000/svg">
<circle cx="14" cy="14" r="14" fill="#F1F7FF"/>
<path d="M10.6667 16V16.0067M17.3333 17.3333C17.3333 17.687 17.4738 18.0261 17.7239 18.2761C17.9739 18.5262 18.313 18.6667 18.6667 18.6667C19.0203 18.6667 19.3594 18.5262 19.6095 18.2761C19.8595 18.0261 20 17.687 20 17.3333C20 16.9797 19.8595 16.6406 19.6095 16.3905C19.3594 16.1405 19.0203 16 18.6667 16C18.313 16 17.9739 16.1405 17.7239 16.3905C17.4738 16.6406 17.3333 16.9797 17.3333 17.3333ZM17.3333 17.3333H13M19.3333 16.1333V13.3333C19.3333 13.1565 19.2631 12.987 19.1381 12.8619C19.013 12.7369 18.8435 12.6667 18.6667 12.6667H14.6667L13.3333 9.33333H9.33333V13.6667M18 9.33333H17.3333C17.1565 9.33333 16.987 9.40357 16.8619 9.52859C16.7369 9.65362 16.6667 9.82319 16.6667 10V12.6667M8 16C8 16.7072 8.28095 17.3855 8.78105 17.8856C9.28115 18.3857 9.95942 18.6667 10.6667 18.6667C11.3739 18.6667 12.0522 18.3857 12.5523 17.8856C13.0524 17.3855 13.3333 16.7072 13.3333 16C13.3333 15.2928 13.0524 14.6145 12.5523 14.1144C12.0522 13.6143 11.3739 13.3333 10.6667 13.3333C9.95942 13.3333 9.28115 13.6143 8.78105 14.1144C8.28095 14.6145 8 15.2928 8 16Z" stroke="#1358BF" stroke-width="1.5" stroke-linecap="round" stroke-linejoin="round"/>
</svg>
