<svg width="28" height="28" viewBox="0 0 28 28" fill="none" xmlns="http://www.w3.org/2000/svg">
<circle cx="14" cy="14" r="14" fill="#FFF5DB"/>
<path fill-rule="evenodd" clip-rule="evenodd" d="M12.0001 10.6667C12.0001 9.5621 12.8955 8.66667 14.0001 8.66667C15.1047 8.66667 16.0001 9.5621 16.0001 10.6667C16.0001 11.7712 15.1047 12.6667 14.0001 12.6667C12.8955 12.6667 12.0001 11.7712 12.0001 10.6667ZM14.0001 7.33334C12.1591 7.33334 10.6667 8.82572 10.6667 10.6667C10.6667 12.5076 12.1591 14 14.0001 14C15.841 14 17.3334 12.5076 17.3334 10.6667C17.3334 8.82572 15.841 7.33334 14.0001 7.33334ZM14.2276 19.3333H10.0554C10.3728 17.4415 12.0181 16 14.0001 16C14.175 16 14.3473 16.0112 14.5162 16.033C14.7676 15.5887 15.1015 15.1973 15.4971 14.8796C15.0221 14.741 14.5198 14.6667 14.0001 14.6667C11.0546 14.6667 8.66675 17.0545 8.66675 20C8.66675 20.3682 8.96522 20.6667 9.33341 20.6667H15.0186C14.6742 20.2819 14.4032 19.8302 14.2276 19.3333Z" fill="#F59300"/>
<g clip-path="url(#clip0_2191_13333)">
<path d="M18 17V18M18 18V19M18 18H19M18 18H17M21 18C21 19.6569 19.6569 21 18 21C16.3431 21 15 19.6569 15 18C15 16.3431 16.3431 15 18 15C19.6569 15 21 16.3431 21 18Z" stroke="#F59300" stroke-width="1.33333" stroke-linecap="round" stroke-linejoin="round"/>
</g>
<defs>
<clipPath id="clip0_2191_13333">
<rect width="8" height="8" fill="white" transform="translate(14 14)"/>
</clipPath>
</defs>
</svg>
