<svg width="24" height="25" viewBox="0 0 24 25" fill="none" xmlns="http://www.w3.org/2000/svg">
<g clip-path="url(#clip0_665_10266)">
<path fill-rule="evenodd" clip-rule="evenodd" d="M9 7.5C9 5.84315 10.3431 4.5 12 4.5C13.6569 4.5 15 5.84315 15 7.5C15 9.15685 13.6569 10.5 12 10.5C10.3431 10.5 9 9.15685 9 7.5ZM12 2.5C9.23858 2.5 7 4.73858 7 7.5C7 10.2614 9.23858 12.5 12 12.5C14.7614 12.5 17 10.2614 17 7.5C17 4.73858 14.7614 2.5 12 2.5ZM12.3414 20.5H6.08296C6.55904 17.6623 9.027 15.5 12 15.5C12.2624 15.5 12.5209 15.5168 12.7744 15.5495C13.1514 14.8831 13.6523 14.2961 14.2456 13.8195C13.5332 13.6115 12.7796 13.5 12 13.5C7.58172 13.5 4 17.0817 4 21.5C4 22.0523 4.44772 22.5 5 22.5H13.5278C13.0113 21.9229 12.6048 21.2452 12.3414 20.5Z" fill="#F59300"/>
<path d="M18 17V18.5M18 18.5V20M18 18.5H19.5M18 18.5H16.5M22.5 18.5C22.5 20.9853 20.4853 23 18 23C15.5147 23 13.5 20.9853 13.5 18.5C13.5 16.0147 15.5147 14 18 14C20.4853 14 22.5 16.0147 22.5 18.5Z" stroke="#F59300" stroke-width="2" stroke-linecap="round" stroke-linejoin="round"/>
</g>
<defs>
<clipPath id="clip0_665_10266">
<rect width="24" height="24" fill="white" transform="translate(0 0.5)"/>
</clipPath>
</defs>
</svg>
