<svg width="48" height="49" viewBox="0 0 48 49" fill="none" xmlns="http://www.w3.org/2000/svg">
<circle cx="24" cy="24.5" r="24" fill="#FFF3D3"/>
<path fill-rule="evenodd" clip-rule="evenodd" d="M15.667 23.9993C15.667 19.4002 19.4003 15.666 24.0003 15.666C28.6087 15.666 32.3337 19.4002 32.3337 23.9993C32.3337 28.6002 28.6087 32.3327 24.0003 32.3327C19.4003 32.3327 15.667 28.6002 15.667 23.9993ZM23.267 20.841C23.267 20.4418 23.6003 20.1077 24.0003 20.1077C24.4003 20.1077 24.7253 20.4418 24.7253 20.841V24.5243C24.7253 24.9252 24.4003 25.2493 24.0003 25.2493C23.6003 25.2493 23.267 24.9252 23.267 24.5243V20.841ZM24.0087 27.9002C23.6003 27.9002 23.2753 27.5668 23.2753 27.1668C23.2753 26.7668 23.6003 26.4418 24.0003 26.4418C24.4087 26.4418 24.7337 26.7668 24.7337 27.1668C24.7337 27.5668 24.4087 27.9002 24.0087 27.9002Z" fill="#FFB800"/>
</svg>
