<svg width="32" height="32" viewBox="0 0 32 32" fill="none" xmlns="http://www.w3.org/2000/svg">
<circle cx="16" cy="16" r="16" fill="#E6FFD0"/>
<path fill-rule="evenodd" clip-rule="evenodd" d="M14.2509 21.3521L20.1085 13.7771C20.4269 13.3686 20.5401 12.8963 20.4339 12.4154C20.342 11.9783 20.0731 11.5626 19.6699 11.2473L18.6866 10.4662C17.8306 9.78535 16.7694 9.85701 16.161 10.6382L15.5031 11.4917C15.4182 11.5985 15.4394 11.7561 15.5455 11.8421C15.5455 11.8421 17.208 13.1751 17.2434 13.2038C17.3566 13.3113 17.4415 13.4546 17.4627 13.6266C17.4981 13.9634 17.2646 14.2787 16.918 14.3217C16.7553 14.3432 16.5996 14.2931 16.4864 14.1999L14.7391 12.8096C14.6542 12.7458 14.5268 12.7594 14.4561 12.8454L10.3034 18.2203C10.0346 18.5571 9.94263 18.9943 10.0346 19.4171L10.5652 21.7175C10.5935 21.8394 10.6996 21.9254 10.8269 21.9254L13.1615 21.8967C13.5859 21.8895 13.9821 21.696 14.2509 21.3521ZM17.5198 20.6356H21.3265C21.6979 20.6356 22 20.9416 22 21.3179C22 21.6948 21.6979 22.0001 21.3265 22.0001H17.5198C17.1484 22.0001 16.8463 21.6948 16.8463 21.3179C16.8463 20.9416 17.1484 20.6356 17.5198 20.6356Z" fill="#689F3A"/>
</svg>
