<svg width="20" height="21" viewBox="0 0 20 21" fill="none" xmlns="http://www.w3.org/2000/svg">
    <mask id="path-1-inside-1_1071_3257" fill="white">
        <path d="M17.071 3.42899C15.1823 1.54016 12.671 0.5 9.9999 0.5C7.32876 0.5 4.81763 1.5402 2.92891 3.42899C1.0402 5.31774 0 7.82896 0 10.5001C0 13.1712 1.04016 15.6824 2.92891 17.5712C4.81763 19.4599 7.3288 20.5 9.9999 20.5C12.671 20.5 15.1822 19.4599 17.071 17.5711C18.9598 15.6824 20 13.1712 20 10.5001C20 7.82892 18.9598 5.31774 17.071 3.42899ZM13.8953 3.37918C14.0385 3.23875 14.184 3.09594 14.3196 2.95516C14.8838 3.27946 15.4081 3.66551 15.8839 4.10356C15.8816 4.10676 15.8791 4.1104 15.877 4.11301C15.7908 4.10465 15.6743 4.06649 15.5517 4.02622C15.3142 3.94837 15.0186 3.85157 14.6759 3.87899C14.3419 3.90583 14.0617 4.04383 13.8365 4.15469C13.7322 4.20602 13.5589 4.29137 13.4993 4.29169C13.4384 4.26247 13.3121 4.10079 13.2619 4.03618C13.4178 3.84754 13.6602 3.60977 13.8953 3.37918ZM7.25603 2.24828C7.41118 2.722 7.58841 3.16903 7.76193 3.59442C7.9045 3.94391 8.06611 4.33997 8.03306 4.66466C8.01962 4.79634 7.99665 4.86048 7.98529 4.88548C7.9272 4.90411 7.78845 4.91575 7.69368 4.92364C7.39591 4.94848 6.9881 4.98251 6.61071 5.24751C6.53661 5.2995 6.47017 5.35145 6.40583 5.40169C6.29743 5.48634 6.18536 5.57392 6.11489 5.59364C6.04528 5.61313 5.90583 5.59724 5.77106 5.58188C5.67177 5.57059 5.55923 5.55774 5.44063 5.55384C5.077 5.54157 4.1879 5.6963 3.76376 6.25024C3.54497 6.53591 3.48208 6.88157 3.58665 7.22372C3.66422 7.47743 3.82743 7.65044 3.96094 7.7729C4.54466 8.30806 5.34462 8.68693 6.15579 8.81244C6.26899 8.82998 6.37681 8.84314 6.48106 8.85591C7.04388 8.92478 7.20251 8.97068 7.34739 9.23177C7.3915 9.31126 7.43091 9.41572 7.47271 9.52638C7.52493 9.66478 7.58415 9.82158 7.67032 9.97966C7.9481 10.4891 8.4272 10.7881 8.9197 10.7595C9.28626 10.7385 9.54751 10.5538 9.73834 10.419C9.80494 10.3719 9.87384 10.3232 9.91435 10.3063C9.99154 10.2742 10.1772 10.3081 10.4027 10.4584C10.6229 10.6052 10.7738 10.776 10.8277 10.9393C10.8667 11.0575 10.8411 11.192 10.7897 11.2355L9.59517 12.2558C9.28818 12.518 8.71673 13.0061 8.69904 13.7428C8.69396 13.9548 8.73494 14.1456 8.77107 14.314C8.7781 14.3467 8.78658 14.3862 8.79404 14.4244C8.68208 14.4518 8.54529 14.4869 8.4024 14.559C7.67712 14.9252 7.61193 15.7604 7.57298 16.2594C7.56157 16.4052 7.53247 16.5184 7.50325 16.5956C7.48704 16.5651 7.472 16.529 7.46169 16.4888C7.43368 16.3794 7.41943 16.2471 7.40431 16.1069C7.37966 15.8783 7.35169 15.6192 7.2554 15.3523C7.13142 15.0086 6.92571 14.7385 6.74419 14.5003C6.58614 14.2929 6.44966 14.1137 6.41048 13.9482C6.38106 13.8237 6.39505 13.6477 6.40981 13.4613C6.43228 13.1786 6.45778 12.8581 6.36306 12.5136C6.22833 12.0235 5.91235 11.6919 5.6336 11.3995C5.47591 11.234 5.32696 11.0778 5.24766 10.9263C5.16845 10.7752 5.17419 10.6134 5.19114 10.3404C5.20735 10.0789 5.22755 9.75349 5.11145 9.41334C4.98567 9.0449 4.70024 8.84056 4.50895 8.70357C4.00669 8.344 3.53626 7.93454 3.11071 7.4865C2.8986 7.26314 2.69219 7.02243 2.61864 6.77521C2.59622 6.69985 2.58067 6.64298 2.56856 6.59845C2.52438 6.43677 2.48661 6.33575 2.42282 6.23806C3.47528 4.37423 5.1952 2.93539 7.25603 2.24828ZM9.9999 19.1957C5.20513 19.1957 1.30434 15.2948 1.30434 10.5001C1.30434 9.57623 1.44969 8.68576 1.71782 7.84978C1.85703 8.049 2.01422 8.22611 2.165 8.38482C2.64731 8.89259 3.18047 9.3567 3.75208 9.76591C3.79446 9.79627 3.85481 9.83947 3.88626 9.86775C3.90774 9.96381 3.89911 10.1021 3.88938 10.2597C3.86868 10.5935 3.84028 11.0508 4.09243 11.5319C4.25669 11.8453 4.48665 12.0866 4.68954 12.2995C4.88712 12.5068 5.05774 12.6858 5.10544 12.8594C5.13942 12.9831 5.12497 13.1652 5.10962 13.358C5.08852 13.6236 5.06458 13.9246 5.14118 14.2485C5.24415 14.6838 5.48989 15.0063 5.70669 15.2909C5.84337 15.4703 5.97247 15.6398 6.02849 15.7949C6.07165 15.9146 6.08911 16.076 6.10751 16.2469C6.12599 16.4182 6.14696 16.6123 6.19813 16.8123C6.35149 17.4113 6.84872 17.9862 7.51966 17.9861C7.5554 17.9861 7.59177 17.9845 7.62849 17.9811C8.32326 17.9176 8.80033 17.2969 8.87345 16.3609C8.88529 16.2094 8.91646 15.8101 8.99373 15.722C9.01763 15.7125 9.07587 15.6982 9.11908 15.6877C9.30287 15.6427 9.58056 15.5746 9.81002 15.3396C10.2326 14.9068 10.1161 14.3642 10.0465 14.04C10.0255 13.9424 10.0017 13.8317 10.0031 13.774C10.0068 13.6195 10.3233 13.3492 10.4424 13.2475L11.6344 12.2293C12.0985 11.8368 12.2721 11.1541 12.0664 10.5306C11.9195 10.0854 11.5945 9.68513 11.1262 9.37294C10.5485 8.98791 9.92396 8.88919 9.41291 9.10212C9.23912 9.17451 9.09861 9.2738 8.98568 9.35361C8.9515 9.37779 8.90646 9.40963 8.86982 9.43287C8.85298 9.41412 8.83357 9.38818 8.81556 9.35513C8.77259 9.2763 8.734 9.17396 8.6931 9.0656C8.63927 8.92302 8.57826 8.76138 8.48798 8.59869C8.0049 7.72818 7.21575 7.63161 6.63958 7.56114C6.5411 7.54911 6.44806 7.53771 6.35528 7.52337C5.87024 7.44833 5.37681 7.23536 4.99802 6.94232C5.13684 6.89239 5.30653 6.85392 5.39786 6.85747C5.46395 6.85966 5.54141 6.86849 5.62352 6.87782C5.8588 6.90466 6.15149 6.93798 6.46696 6.84954C6.78544 6.76028 7.02025 6.57689 7.20888 6.42954C7.26271 6.38751 7.31353 6.34778 7.3604 6.31489C7.44868 6.25294 7.62044 6.2386 7.80228 6.22341C8.25513 6.1856 9.19744 6.10696 9.33084 4.79669C9.39685 4.1484 9.16005 3.56801 8.96978 3.10164C8.81154 2.71368 8.65798 2.3286 8.524 1.93012C9.00388 1.84785 9.49689 1.80438 9.99998 1.80438C11.0794 1.80438 12.1133 2.0027 13.0679 2.36375C13.0393 2.39188 13.0106 2.41996 12.9821 2.44797C12.6922 2.73227 12.3924 3.02629 12.1861 3.29336C12.0989 3.40629 11.9529 3.59524 11.9099 3.86735C11.837 4.32899 12.113 4.68364 12.2309 4.83505C12.4061 5.06016 12.6994 5.43696 13.1838 5.55778C13.292 5.58474 13.3964 5.5963 13.4967 5.5963C13.8617 5.5963 14.1721 5.44345 14.4128 5.32489C14.5514 5.25665 14.6947 5.18606 14.7804 5.17919C14.862 5.17251 15.006 5.21997 15.1455 5.26567C15.3491 5.33247 15.5799 5.40809 15.8519 5.41798C15.8683 5.4186 15.8845 5.41888 15.9007 5.41888C16.2384 5.41884 16.5382 5.29028 16.7758 5.05669C17.3532 5.77403 17.8193 6.58442 18.1475 7.46169C18.101 7.4629 18.0537 7.46357 18.0114 7.46407C17.8836 7.46568 17.7387 7.46751 17.5808 7.47962C17.2166 7.50763 16.9313 7.40189 16.57 7.26798C16.3219 7.17607 16.0408 7.07185 15.7111 7.00634C14.8228 6.82982 13.9115 7.31411 13.3896 8.24021C13.2376 8.5099 12.5108 9.89845 13.1293 10.7504C13.3612 11.0697 13.6714 11.2557 13.9207 11.4051C14.2553 11.6056 14.6011 11.8129 14.993 11.971C15.0764 12.0047 15.159 12.0352 15.2389 12.0647C15.4765 12.1524 15.7223 12.2431 15.8102 12.3635C15.8595 12.4309 15.9109 12.5828 15.8758 12.9231C15.8524 13.1507 15.7613 13.3991 15.6648 13.6621C15.4273 14.3099 15.1018 15.1974 15.8644 16.0686C16.0008 16.2245 16.1549 16.3566 16.3221 16.464C14.7355 18.1449 12.4882 19.1957 9.9999 19.1957ZM16.8458 15.2096C16.6224 14.9544 16.6523 14.7576 16.8894 14.1111C17.0036 13.7996 17.133 13.4467 17.1732 13.0568C17.2363 12.4443 17.135 11.9658 16.8633 11.594C16.5432 11.1559 16.0704 10.9813 15.6905 10.8411C15.6163 10.8137 15.5463 10.7878 15.4808 10.7615C15.1838 10.6416 14.8959 10.4691 14.5911 10.2864C14.4348 10.1927 14.2734 10.096 14.1941 9.9965C14.1479 9.83627 14.2821 9.31306 14.5258 8.88056C14.7225 8.53146 15.0865 8.21193 15.4567 8.28564C15.6847 8.33095 15.8944 8.40869 16.1166 8.49103C16.5454 8.64994 17.0313 8.8299 17.6808 8.78013C17.7969 8.77119 17.9143 8.7697 18.0278 8.7683C18.189 8.7663 18.3533 8.76415 18.5166 8.74044C18.6339 9.30892 18.6956 9.8974 18.6956 10.5001C18.6956 12.3305 18.1267 14.0301 17.1571 15.4326C17.0405 15.3859 16.9352 15.3117 16.8458 15.2096Z"/>
    </mask>
    <path d="M17.071 3.42899C15.1823 1.54016 12.671 0.5 9.9999 0.5C7.32876 0.5 4.81763 1.5402 2.92891 3.42899C1.0402 5.31774 0 7.82896 0 10.5001C0 13.1712 1.04016 15.6824 2.92891 17.5712C4.81763 19.4599 7.3288 20.5 9.9999 20.5C12.671 20.5 15.1822 19.4599 17.071 17.5711C18.9598 15.6824 20 13.1712 20 10.5001C20 7.82892 18.9598 5.31774 17.071 3.42899ZM13.8953 3.37918C14.0385 3.23875 14.184 3.09594 14.3196 2.95516C14.8838 3.27946 15.4081 3.66551 15.8839 4.10356C15.8816 4.10676 15.8791 4.1104 15.877 4.11301C15.7908 4.10465 15.6743 4.06649 15.5517 4.02622C15.3142 3.94837 15.0186 3.85157 14.6759 3.87899C14.3419 3.90583 14.0617 4.04383 13.8365 4.15469C13.7322 4.20602 13.5589 4.29137 13.4993 4.29169C13.4384 4.26247 13.3121 4.10079 13.2619 4.03618C13.4178 3.84754 13.6602 3.60977 13.8953 3.37918ZM7.25603 2.24828C7.41118 2.722 7.58841 3.16903 7.76193 3.59442C7.9045 3.94391 8.06611 4.33997 8.03306 4.66466C8.01962 4.79634 7.99665 4.86048 7.98529 4.88548C7.9272 4.90411 7.78845 4.91575 7.69368 4.92364C7.39591 4.94848 6.9881 4.98251 6.61071 5.24751C6.53661 5.2995 6.47017 5.35145 6.40583 5.40169C6.29743 5.48634 6.18536 5.57392 6.11489 5.59364C6.04528 5.61313 5.90583 5.59724 5.77106 5.58188C5.67177 5.57059 5.55923 5.55774 5.44063 5.55384C5.077 5.54157 4.1879 5.6963 3.76376 6.25024C3.54497 6.53591 3.48208 6.88157 3.58665 7.22372C3.66422 7.47743 3.82743 7.65044 3.96094 7.7729C4.54466 8.30806 5.34462 8.68693 6.15579 8.81244C6.26899 8.82998 6.37681 8.84314 6.48106 8.85591C7.04388 8.92478 7.20251 8.97068 7.34739 9.23177C7.3915 9.31126 7.43091 9.41572 7.47271 9.52638C7.52493 9.66478 7.58415 9.82158 7.67032 9.97966C7.9481 10.4891 8.4272 10.7881 8.9197 10.7595C9.28626 10.7385 9.54751 10.5538 9.73834 10.419C9.80494 10.3719 9.87384 10.3232 9.91435 10.3063C9.99154 10.2742 10.1772 10.3081 10.4027 10.4584C10.6229 10.6052 10.7738 10.776 10.8277 10.9393C10.8667 11.0575 10.8411 11.192 10.7897 11.2355L9.59517 12.2558C9.28818 12.518 8.71673 13.0061 8.69904 13.7428C8.69396 13.9548 8.73494 14.1456 8.77107 14.314C8.7781 14.3467 8.78658 14.3862 8.79404 14.4244C8.68208 14.4518 8.54529 14.4869 8.4024 14.559C7.67712 14.9252 7.61193 15.7604 7.57298 16.2594C7.56157 16.4052 7.53247 16.5184 7.50325 16.5956C7.48704 16.5651 7.472 16.529 7.46169 16.4888C7.43368 16.3794 7.41943 16.2471 7.40431 16.1069C7.37966 15.8783 7.35169 15.6192 7.2554 15.3523C7.13142 15.0086 6.92571 14.7385 6.74419 14.5003C6.58614 14.2929 6.44966 14.1137 6.41048 13.9482C6.38106 13.8237 6.39505 13.6477 6.40981 13.4613C6.43228 13.1786 6.45778 12.8581 6.36306 12.5136C6.22833 12.0235 5.91235 11.6919 5.6336 11.3995C5.47591 11.234 5.32696 11.0778 5.24766 10.9263C5.16845 10.7752 5.17419 10.6134 5.19114 10.3404C5.20735 10.0789 5.22755 9.75349 5.11145 9.41334C4.98567 9.0449 4.70024 8.84056 4.50895 8.70357C4.00669 8.344 3.53626 7.93454 3.11071 7.4865C2.8986 7.26314 2.69219 7.02243 2.61864 6.77521C2.59622 6.69985 2.58067 6.64298 2.56856 6.59845C2.52438 6.43677 2.48661 6.33575 2.42282 6.23806C3.47528 4.37423 5.1952 2.93539 7.25603 2.24828ZM9.9999 19.1957C5.20513 19.1957 1.30434 15.2948 1.30434 10.5001C1.30434 9.57623 1.44969 8.68576 1.71782 7.84978C1.85703 8.049 2.01422 8.22611 2.165 8.38482C2.64731 8.89259 3.18047 9.3567 3.75208 9.76591C3.79446 9.79627 3.85481 9.83947 3.88626 9.86775C3.90774 9.96381 3.89911 10.1021 3.88938 10.2597C3.86868 10.5935 3.84028 11.0508 4.09243 11.5319C4.25669 11.8453 4.48665 12.0866 4.68954 12.2995C4.88712 12.5068 5.05774 12.6858 5.10544 12.8594C5.13942 12.9831 5.12497 13.1652 5.10962 13.358C5.08852 13.6236 5.06458 13.9246 5.14118 14.2485C5.24415 14.6838 5.48989 15.0063 5.70669 15.2909C5.84337 15.4703 5.97247 15.6398 6.02849 15.7949C6.07165 15.9146 6.08911 16.076 6.10751 16.2469C6.12599 16.4182 6.14696 16.6123 6.19813 16.8123C6.35149 17.4113 6.84872 17.9862 7.51966 17.9861C7.5554 17.9861 7.59177 17.9845 7.62849 17.9811C8.32326 17.9176 8.80033 17.2969 8.87345 16.3609C8.88529 16.2094 8.91646 15.8101 8.99373 15.722C9.01763 15.7125 9.07587 15.6982 9.11908 15.6877C9.30287 15.6427 9.58056 15.5746 9.81002 15.3396C10.2326 14.9068 10.1161 14.3642 10.0465 14.04C10.0255 13.9424 10.0017 13.8317 10.0031 13.774C10.0068 13.6195 10.3233 13.3492 10.4424 13.2475L11.6344 12.2293C12.0985 11.8368 12.2721 11.1541 12.0664 10.5306C11.9195 10.0854 11.5945 9.68513 11.1262 9.37294C10.5485 8.98791 9.92396 8.88919 9.41291 9.10212C9.23912 9.17451 9.09861 9.2738 8.98568 9.35361C8.9515 9.37779 8.90646 9.40963 8.86982 9.43287C8.85298 9.41412 8.83357 9.38818 8.81556 9.35513C8.77259 9.2763 8.734 9.17396 8.6931 9.0656C8.63927 8.92302 8.57826 8.76138 8.48798 8.59869C8.0049 7.72818 7.21575 7.63161 6.63958 7.56114C6.5411 7.54911 6.44806 7.53771 6.35528 7.52337C5.87024 7.44833 5.37681 7.23536 4.99802 6.94232C5.13684 6.89239 5.30653 6.85392 5.39786 6.85747C5.46395 6.85966 5.54141 6.86849 5.62352 6.87782C5.8588 6.90466 6.15149 6.93798 6.46696 6.84954C6.78544 6.76028 7.02025 6.57689 7.20888 6.42954C7.26271 6.38751 7.31353 6.34778 7.3604 6.31489C7.44868 6.25294 7.62044 6.2386 7.80228 6.22341C8.25513 6.1856 9.19744 6.10696 9.33084 4.79669C9.39685 4.1484 9.16005 3.56801 8.96978 3.10164C8.81154 2.71368 8.65798 2.3286 8.524 1.93012C9.00388 1.84785 9.49689 1.80438 9.99998 1.80438C11.0794 1.80438 12.1133 2.0027 13.0679 2.36375C13.0393 2.39188 13.0106 2.41996 12.9821 2.44797C12.6922 2.73227 12.3924 3.02629 12.1861 3.29336C12.0989 3.40629 11.9529 3.59524 11.9099 3.86735C11.837 4.32899 12.113 4.68364 12.2309 4.83505C12.4061 5.06016 12.6994 5.43696 13.1838 5.55778C13.292 5.58474 13.3964 5.5963 13.4967 5.5963C13.8617 5.5963 14.1721 5.44345 14.4128 5.32489C14.5514 5.25665 14.6947 5.18606 14.7804 5.17919C14.862 5.17251 15.006 5.21997 15.1455 5.26567C15.3491 5.33247 15.5799 5.40809 15.8519 5.41798C15.8683 5.4186 15.8845 5.41888 15.9007 5.41888C16.2384 5.41884 16.5382 5.29028 16.7758 5.05669C17.3532 5.77403 17.8193 6.58442 18.1475 7.46169C18.101 7.4629 18.0537 7.46357 18.0114 7.46407C17.8836 7.46568 17.7387 7.46751 17.5808 7.47962C17.2166 7.50763 16.9313 7.40189 16.57 7.26798C16.3219 7.17607 16.0408 7.07185 15.7111 7.00634C14.8228 6.82982 13.9115 7.31411 13.3896 8.24021C13.2376 8.5099 12.5108 9.89845 13.1293 10.7504C13.3612 11.0697 13.6714 11.2557 13.9207 11.4051C14.2553 11.6056 14.6011 11.8129 14.993 11.971C15.0764 12.0047 15.159 12.0352 15.2389 12.0647C15.4765 12.1524 15.7223 12.2431 15.8102 12.3635C15.8595 12.4309 15.9109 12.5828 15.8758 12.9231C15.8524 13.1507 15.7613 13.3991 15.6648 13.6621C15.4273 14.3099 15.1018 15.1974 15.8644 16.0686C16.0008 16.2245 16.1549 16.3566 16.3221 16.464C14.7355 18.1449 12.4882 19.1957 9.9999 19.1957ZM16.8458 15.2096C16.6224 14.9544 16.6523 14.7576 16.8894 14.1111C17.0036 13.7996 17.133 13.4467 17.1732 13.0568C17.2363 12.4443 17.135 11.9658 16.8633 11.594C16.5432 11.1559 16.0704 10.9813 15.6905 10.8411C15.6163 10.8137 15.5463 10.7878 15.4808 10.7615C15.1838 10.6416 14.8959 10.4691 14.5911 10.2864C14.4348 10.1927 14.2734 10.096 14.1941 9.9965C14.1479 9.83627 14.2821 9.31306 14.5258 8.88056C14.7225 8.53146 15.0865 8.21193 15.4567 8.28564C15.6847 8.33095 15.8944 8.40869 16.1166 8.49103C16.5454 8.64994 17.0313 8.8299 17.6808 8.78013C17.7969 8.77119 17.9143 8.7697 18.0278 8.7683C18.189 8.7663 18.3533 8.76415 18.5166 8.74044C18.6339 9.30892 18.6956 9.8974 18.6956 10.5001C18.6956 12.3305 18.1267 14.0301 17.1571 15.4326C17.0405 15.3859 16.9352 15.3117 16.8458 15.2096Z" fill="black" stroke="#1358BF" stroke-width="2" mask="url(#path-1-inside-1_1071_3257)"/>
</svg>
