<svg width="16" height="16" viewBox="0 0 16 16" fill="none" xmlns="http://www.w3.org/2000/svg">
<path d="M7.60918 2.33301C6.1034 2.41944 4.69132 3.00457 3.56421 4.00907L5.30733 5.7522C5.96332 5.20608 6.75983 4.87605 7.60918 4.79845V2.33301Z" fill="white"/>
<path d="M4.7548 6.30462L3.0117 4.56152C2.00633 5.68832 1.42048 7.10051 1.3335 8.60665H3.79904C3.87717 7.75715 4.2079 6.96056 4.7548 6.30462Z" fill="white"/>
<path d="M12.2006 8.60665H14.6662C14.5792 7.10051 13.9934 5.68832 12.988 4.56152L11.2449 6.30462C11.7918 6.96053 12.1225 7.75715 12.2006 8.60665Z" fill="white"/>
<path d="M12.2003 9.3877C12.1456 9.98934 11.9739 10.4912 11.7708 10.8937C11.9689 11.1992 12.134 11.4574 12.2432 11.6288C12.5403 12.0958 12.4745 12.6952 12.0832 13.0866C11.9881 13.1816 11.8796 13.2582 11.762 13.3148L12.1679 13.7208C12.2443 13.7972 12.3445 13.8354 12.4446 13.8354C12.5448 13.8354 12.6449 13.7972 12.7213 13.7208C13.8912 12.551 14.5733 11.0246 14.6667 9.3877H12.2003Z" fill="white"/>
<path d="M3.79966 9.3877H1.33325C1.42661 11.0246 2.10877 12.551 3.27864 13.7208C3.35505 13.7972 3.45518 13.8354 3.55531 13.8354C3.65544 13.8354 3.75559 13.7972 3.832 13.7208L5.01721 12.5355C5.16999 12.3827 5.16999 12.1349 5.01721 11.9821C4.70791 11.6728 3.92882 10.8069 3.79966 9.3877Z" fill="white"/>
<path d="M12.4356 4.00907C11.3085 3.00454 9.89641 2.41944 8.39062 2.33301V4.79845C9.23995 4.87605 10.0365 5.20608 10.6925 5.7522L12.4356 4.00907Z" fill="white"/>
<path d="M8.86795 8.13627C8.38938 7.6577 7.61069 7.6577 7.13212 8.13627C6.65355 8.61484 6.65355 9.39353 7.13212 9.8721C7.7367 10.4767 10.7079 12.3738 11.0447 12.5881C11.1992 12.6864 11.4012 12.6643 11.5307 12.5348C11.6601 12.4054 11.6823 12.2034 11.584 12.0489C11.3697 11.7121 9.47253 8.74083 8.86795 8.13627Z" fill="white"/>
</svg>
