<svg width="28" height="28" viewBox="0 0 28 28" fill="none" xmlns="http://www.w3.org/2000/svg">
<circle cx="14" cy="14" r="14" fill="#FFEEDF"/>
<path d="M13.5313 7.09863C11.7244 7.20235 10.03 7.90449 8.67749 9.10987L10.7692 11.2016C11.5564 10.5462 12.5121 10.1502 13.5313 10.0571V7.09863Z" fill="#FF8A1E"/>
<path d="M10.1052 11.8646L8.01355 9.77295C6.80714 11.1251 6.10413 12.8197 5.99976 14.627H8.95834C9.05209 13.6076 9.44895 12.6517 10.1052 11.8646Z" fill="#FF8A1E"/>
<path d="M19.0399 14.627H21.9985C21.8942 12.8197 21.1912 11.1251 19.9847 9.77295L17.8931 11.8646C18.5493 12.6517 18.9462 13.6076 19.0399 14.627Z" fill="#FF8A1E"/>
<path d="M19.0407 15.564C18.9749 16.2859 18.7689 16.8881 18.5252 17.3711C18.763 17.7377 18.9611 18.0475 19.0921 18.2532C19.4486 18.8136 19.3697 19.5329 18.9001 20.0025C18.786 20.1166 18.6558 20.2084 18.5146 20.2764L19.0018 20.7635C19.0935 20.8552 19.2137 20.9011 19.3338 20.9011C19.454 20.9011 19.5742 20.8552 19.6658 20.7635C21.0696 19.3598 21.8882 17.5282 22.0003 15.564H19.0407Z" fill="#FF8A1E"/>
<path d="M8.95937 15.564H5.99976C6.11178 17.5282 6.93036 19.3598 8.33417 20.7636C8.42585 20.8552 8.54601 20.9011 8.66616 20.9011C8.78631 20.9011 8.9065 20.8552 8.99818 20.7636L10.4204 19.3412C10.6037 19.1579 10.6037 18.8606 10.4204 18.6772C10.0493 18.3061 9.11437 17.267 8.95937 15.564Z" fill="#FF8A1E"/>
<path d="M19.3216 9.10987C17.9691 7.90446 16.2747 7.20235 14.4678 7.09863V10.0571C15.4869 10.1502 16.4428 10.5462 17.2299 11.2016L19.3216 9.10987Z" fill="#FF8A1E"/>
<path d="M15.0412 14.062C14.467 13.4878 13.5326 13.4878 12.9583 14.062C12.384 14.6363 12.384 15.5707 12.9583 16.145C13.6838 16.8705 17.2492 19.147 17.6533 19.4042C17.8387 19.5221 18.0811 19.4955 18.2364 19.3402C18.3918 19.1848 18.4184 18.9424 18.3004 18.7571C18.0432 18.3529 15.7667 14.7875 15.0412 14.062Z" fill="#FF8A1E"/>
</svg>
