<svg width="24" height="24" viewBox="0 0 24 24" fill="none" xmlns="http://www.w3.org/2000/svg">
<g filter="url(#filter0_b_1893_11947)">
<circle cx="12" cy="12" r="12" fill="url(#paint0_linear_1893_11947)"/>
<circle cx="12" cy="12" r="11.5" stroke="url(#paint1_linear_1893_11947)" stroke-opacity="0.4"/>
<circle cx="12" cy="12" r="11.5" stroke="url(#paint2_linear_1893_11947)" stroke-opacity="0.4"/>
</g>
<path d="M12.6505 6.07509L14.1349 9.05794C14.2442 9.27405 14.4529 9.42413 14.6936 9.45748L18.0277 9.94306C18.2224 9.97041 18.3991 10.0731 18.5185 10.2299C18.6365 10.3846 18.6872 10.5807 18.6585 10.7735C18.6352 10.9336 18.5598 11.0816 18.4445 11.195L16.0286 13.5369C15.8519 13.7003 15.7719 13.9424 15.8146 14.1792L16.4093 17.4716C16.4727 17.8691 16.2093 18.2439 15.8146 18.3193C15.6519 18.3453 15.4852 18.318 15.3385 18.2433L12.3645 16.6938C12.1438 16.5824 11.883 16.5824 11.6623 16.6938L8.68836 18.2433C8.32295 18.4374 7.87018 18.3053 7.66681 17.9451C7.59146 17.8017 7.56478 17.6383 7.58946 17.4789L8.18425 14.1859C8.22693 13.9498 8.14624 13.7063 7.9702 13.5429L5.55435 11.2024C5.26696 10.9249 5.25829 10.468 5.53501 10.1805C5.54102 10.1745 5.54768 10.1678 5.55435 10.1612C5.66904 10.0444 5.81974 9.97041 5.98244 9.95106L9.31649 9.46482C9.55654 9.4308 9.76526 9.28206 9.87528 9.06461L11.3063 6.07509C11.4336 5.81896 11.6977 5.65955 11.9844 5.66622H12.0738C12.3225 5.69623 12.5392 5.85031 12.6505 6.07509Z" fill="#FFC700"/>
<path d="M11.9943 16.6108C11.8652 16.6148 11.7394 16.6495 11.6263 16.7115L8.66682 18.2574C8.30471 18.4303 7.87138 18.2961 7.66836 17.9499C7.59315 17.8084 7.56586 17.6463 7.59115 17.4875L8.18224 14.2015C8.22217 13.9626 8.1423 13.7197 7.96857 13.5516L5.55163 11.2117C5.26474 10.9308 5.25942 10.4697 5.54032 10.1822C5.54431 10.1782 5.54764 10.1748 5.55163 10.1715C5.66612 10.0581 5.81389 9.98333 5.97298 9.95997L9.30983 9.4689C9.55146 9.43821 9.76113 9.28742 9.86763 9.06858L11.3181 6.04143C11.4558 5.79723 11.7201 5.65177 11.9997 5.66712C11.9943 5.86528 11.9943 16.476 11.9943 16.6108Z" fill="#FFC700"/>
<defs>
<filter id="filter0_b_1893_11947" x="-9" y="-9" width="42" height="42" filterUnits="userSpaceOnUse" color-interpolation-filters="sRGB">
<feFlood flood-opacity="0" result="BackgroundImageFix"/>
<feGaussianBlur in="BackgroundImageFix" stdDeviation="4.5"/>
<feComposite in2="SourceAlpha" operator="in" result="effect1_backgroundBlur_1893_11947"/>
<feBlend mode="normal" in="SourceGraphic" in2="effect1_backgroundBlur_1893_11947" result="shape"/>
</filter>
<linearGradient id="paint0_linear_1893_11947" x1="12" y1="0" x2="12" y2="24" gradientUnits="userSpaceOnUse">
<stop stop-color="white"/>
<stop offset="1" stop-color="white"/>
</linearGradient>
<linearGradient id="paint1_linear_1893_11947" x1="21" y1="28.125" x2="14.25" y2="19.125" gradientUnits="userSpaceOnUse">
<stop stop-color="white"/>
<stop offset="1" stop-color="white" stop-opacity="0"/>
</linearGradient>
<linearGradient id="paint2_linear_1893_11947" x1="-1.875" y1="2.47965e-08" x2="5.625" y2="13.875" gradientUnits="userSpaceOnUse">
<stop stop-color="white"/>
<stop offset="1" stop-color="white" stop-opacity="0"/>
</linearGradient>
</defs>
</svg>
