<svg width="57" height="57" viewBox="0 0 57 57" fill="none" xmlns="http://www.w3.org/2000/svg">
<circle cx="28.5" cy="29" r="28" fill="#FFF5DB"/>
<path d="M40.8291 27.8488H40.6291V28.0488V29.9422V30.1422H40.8291H42.7224H42.9224V29.9422V28.0488V27.8488H42.7224H40.8291Z" fill="#FFB800" stroke="#FFB800" stroke-width="0.4"/>
<path d="M14.2778 27.8488H14.0778V28.0488V29.9422V30.1422H14.2778H16.1712H16.3712V29.9422V28.0488V27.8488H16.1712H14.2778Z" fill="#FFB800" stroke="#FFB800" stroke-width="0.4"/>
<path d="M18.0732 27.8488H17.8732V28.0488V29.9421V30.1421H18.0732H20.8047C20.8889 30.7258 21.0397 31.298 21.2541 31.8474L18.0705 33.6981L17.898 33.7984L17.9979 33.9712L18.949 35.6156L19.049 35.7886L19.2221 35.6887L22.4135 33.8468C22.7813 34.3086 23.2001 34.7274 23.6619 35.0952L21.82 38.2866L21.7201 38.4597L21.8931 38.5597L23.5376 39.5108L23.7106 39.6109L23.8108 39.4379L25.6528 36.2547C26.2021 36.469 26.7741 36.6198 27.3577 36.704V39.4355V39.6355H27.5577H29.451H29.651V39.4355V36.6951C30.2346 36.6109 30.8066 36.4602 31.356 36.2459L33.1979 39.429L33.2981 39.602L33.4712 39.5019L35.1156 38.5508L35.2886 38.4508L35.1887 38.2777L33.3468 35.0863C33.8086 34.7185 34.2274 34.2997 34.5952 33.838L37.7866 35.6798L37.9597 35.7797L38.0597 35.6067L39.0108 33.9623L39.1109 33.7892L38.9379 33.689L35.7547 31.8471C35.969 31.2978 36.1198 30.7257 36.204 30.1421H38.9355H39.1355V29.9421V28.0488V27.8488H38.9355H36.1951C36.1109 27.2652 35.9602 26.6932 35.7459 26.1439L38.929 24.3019L39.102 24.2018L39.0019 24.0287L38.0508 22.3842L37.9508 22.2113L37.7777 22.3111L34.5863 24.153C34.2185 23.6912 33.7997 23.2724 33.338 22.9046L35.1798 19.7132L35.2798 19.5399L35.1064 19.4399L33.4709 18.4977L33.2979 18.3981L33.1979 18.5708L31.356 21.754C30.8066 21.5397 30.2346 21.3889 29.651 21.3047V18.5732V18.3732H29.451H27.5488H27.3488V18.5732V21.3047C26.7652 21.3889 26.1932 21.5397 25.6439 21.754L23.8019 18.5708L23.7015 18.3974L23.5283 18.4981L21.8927 19.4492L21.7204 19.5494L21.82 19.7221L23.6619 22.9135C23.2001 23.2813 22.7813 23.7001 22.4135 24.1619L19.2221 22.32L19.0494 22.2204L18.9492 22.3927L17.9981 24.0283L17.8974 24.2015L18.0708 24.3019L21.254 26.1439C21.0397 26.6932 20.8889 27.2652 20.8047 27.8488H18.0732ZM23.011 28.9996C23.0111 27.9141 23.333 26.853 23.9361 25.9504C24.5392 25.0478 25.3964 24.3443 26.3994 23.9288C27.4024 23.5134 28.506 23.4047 29.5707 23.6165C30.6355 23.8283 31.6135 24.351 32.3811 25.1187C33.1488 25.8863 33.6715 26.8643 33.8833 27.9291C34.0951 28.9938 33.9864 30.0975 33.571 31.1004C33.1555 32.1034 32.452 32.9606 31.5494 33.5638C30.6468 34.1668 29.5857 34.4887 28.5002 34.4888C27.0451 34.4865 25.6502 33.9075 24.6213 32.8785C23.5923 31.8496 23.0133 30.4547 23.011 28.9996Z" fill="#FFB800" stroke="#FFB800" stroke-width="0.4"/>
<path d="M27.5488 41.1291H27.3488V41.3291V43.2224V43.4224H27.5488H29.4422H29.6422V43.2224V41.3291V41.1291H29.4422H27.5488Z" fill="#FFB800" stroke="#FFB800" stroke-width="0.4"/>
<path d="M27.5488 14.5778H27.3488V14.7778V16.6712V16.8712H27.5488H29.4422H29.6422V16.6712V14.7778V14.5778H29.4422H27.5488Z" fill="#FFB800" stroke="#FFB800" stroke-width="0.4"/>
</svg>
