<svg width="24" height="25" viewBox="0 0 24 25" fill="none" xmlns="http://www.w3.org/2000/svg">
<path d="M21.2466 11.5871H21.0466V11.7871V13.2071V13.4071H21.2466H22.6666H22.8666V13.2071V11.7871V11.5871H22.6666H21.2466Z" fill="#FFB800" stroke="#FFB800" stroke-width="0.4"/>
<path d="M1.3335 11.5871H1.1335V11.7871V13.2071V13.4071H1.3335H2.7535H2.9535V13.2071V11.7871V11.5871H2.7535H1.3335Z" fill="#FFB800" stroke="#FFB800" stroke-width="0.4"/>
<path d="M4.18018 11.5864H3.98018V11.7864V13.2064V13.4064H4.18018H6.18563C6.2483 13.8189 6.35497 14.2236 6.50381 14.6135L4.15299 15.9801L3.98047 16.0804L4.08038 16.2532L4.79371 17.4865L4.89375 17.6595L5.06681 17.5596L7.42322 16.1996C7.68585 16.5245 7.98205 16.8207 8.3069 17.0833L6.94695 19.4397L6.84708 19.6128L7.02004 19.7128L8.25338 20.4262L8.42647 20.5263L8.52662 20.3532L9.88668 18.0028C10.2765 18.1516 10.681 18.2582 11.0935 18.3209V20.3264V20.5264H11.2935H12.7135H12.9135V20.3264V18.3142C13.326 18.2516 13.7306 18.145 14.1203 17.9962L15.4804 20.3465L15.5806 20.5196L15.7536 20.4195L16.987 19.7062L17.1599 19.6061L17.0601 19.4331L15.7001 17.0766C16.025 16.814 16.3212 16.5178 16.5838 16.193L18.9402 17.5529L19.1133 17.6528L19.2133 17.4798L19.9266 16.2465L20.0268 16.0734L19.8537 15.9732L17.5033 14.6132C17.6521 14.2234 17.7587 13.8188 17.8214 13.4064H19.8268H20.0268V13.2064V11.7864V11.5864H19.8268H17.8147C17.7521 11.1739 17.6454 10.7693 17.4967 10.3795L19.847 9.01946L20.0201 8.91931L19.92 8.74622L19.2066 7.51289L19.1066 7.33992L18.9335 7.4398L16.5771 8.79975C16.3145 8.4749 16.0183 8.17869 15.6935 7.91606L17.0534 5.55966L17.1534 5.3863L16.98 5.28639L15.7533 4.57972L15.5804 4.48008L15.4804 4.65285L14.1203 7.00319C13.7306 6.85442 13.326 6.74779 12.9135 6.68514V4.67969V4.47969H12.7135H11.2868H11.0868V4.67969V6.68514C10.6744 6.74779 10.2698 6.85442 9.88001 7.00319L8.51995 4.65285L8.41956 4.47937L8.2463 4.58013L7.01964 5.29346L6.84731 5.39367L6.94695 5.56633L8.3069 7.92273C7.98205 8.18536 7.68585 8.48157 7.42322 8.80641L5.06681 7.44647L4.89416 7.34682L4.79395 7.51915L4.08062 8.74581L3.97986 8.91908L4.15334 9.01946L6.50368 10.3795C6.35491 10.7693 6.24828 11.1739 6.18563 11.5864H4.18018ZM7.93351 12.4995C7.93354 11.6953 8.17204 10.9091 8.61887 10.2404C9.06572 9.57161 9.70084 9.05037 10.4439 8.74258C11.187 8.43478 12.0047 8.35425 12.7935 8.51116C13.5824 8.66807 14.307 9.05539 14.8757 9.62412C15.4445 10.1929 15.8318 10.9175 15.9887 11.7063C16.1456 12.4952 16.0651 13.3128 15.7573 14.0559C15.4495 14.799 14.9283 15.4341 14.2595 15.881C13.5908 16.3278 12.8047 16.5663 12.0005 16.5664C10.9224 16.5647 9.8889 16.1357 9.12656 15.3733C8.36425 14.611 7.93523 13.5776 7.93351 12.4995Z" fill="#FFB800" stroke="#FFB800" stroke-width="0.4"/>
<path d="M11.2866 21.5471H11.0866V21.7471V23.1671V23.3671H11.2866H12.7066H12.9066V23.1671V21.7471V21.5471H12.7066H11.2866Z" fill="#FFB800" stroke="#FFB800" stroke-width="0.4"/>
<path d="M11.2866 1.63301H11.0866V1.83301V3.25301V3.45301H11.2866H12.7066H12.9066V3.25301V1.83301V1.63301H12.7066H11.2866Z" fill="#FFB800" stroke="#FFB800" stroke-width="0.4"/>
</svg>
