<svg width="14" height="12" viewBox="0 0 14 12" fill="none" xmlns="http://www.w3.org/2000/svg">
<path d="M3.66667 8.00065V8.00732M10.3333 9.33398C10.3333 9.68761 10.4738 10.0267 10.7239 10.2768C10.9739 10.5268 11.313 10.6673 11.6667 10.6673C12.0203 10.6673 12.3594 10.5268 12.6095 10.2768C12.8595 10.0267 13 9.68761 13 9.33398C13 8.98036 12.8595 8.64122 12.6095 8.39118C12.3594 8.14113 12.0203 8.00065 11.6667 8.00065C11.313 8.00065 10.9739 8.14113 10.7239 8.39118C10.4738 8.64122 10.3333 8.98036 10.3333 9.33398ZM10.3333 9.33398L6 9.33398M12.3333 8.13398V5.33398C12.3333 5.15717 12.2631 4.9876 12.1381 4.86258C12.013 4.73756 11.8435 4.66732 11.6667 4.66732L7.66667 4.66732L6.33333 1.33398L2.33333 1.33398L2.33333 5.66732M11 1.33398L10.3333 1.33398C10.1565 1.33398 9.98695 1.40422 9.86193 1.52925C9.7369 1.65427 9.66667 1.82384 9.66667 2.00065V4.66732M1 8.00065C1 8.7079 1.28095 9.38617 1.78105 9.88627C2.28115 10.3864 2.95942 10.6673 3.66667 10.6673C4.37391 10.6673 5.05219 10.3864 5.55229 9.88627C6.05238 9.38617 6.33333 8.7079 6.33333 8.00065C6.33333 7.29341 6.05238 6.61513 5.55229 6.11503C5.05219 5.61494 4.37391 5.33398 3.66667 5.33398C2.95942 5.33398 2.28115 5.61494 1.78105 6.11503C1.28095 6.61513 1 7.29341 1 8.00065Z" stroke="white" stroke-linecap="round" stroke-linejoin="round"/>
</svg>
