<svg width="44" height="36" viewBox="0 0 44 36" fill="none" xmlns="http://www.w3.org/2000/svg">
<path d="M11.1667 24.5002V24.5218M32.8333 28.8335C32.8333 29.9828 33.2899 31.085 34.1025 31.8976C34.9152 32.7103 36.0174 33.1668 37.1667 33.1668C38.3159 33.1668 39.4181 32.7103 40.2308 31.8976C41.0435 31.085 41.5 29.9828 41.5 28.8335C41.5 27.6842 41.0435 26.582 40.2308 25.7694C39.4181 24.9567 38.3159 24.5002 37.1667 24.5002C36.0174 24.5002 34.9152 24.9567 34.1025 25.7694C33.2899 26.582 32.8333 27.6842 32.8333 28.8335ZM32.8333 28.8335H18.75M39.3333 24.9335V15.8335C39.3333 15.2589 39.1051 14.7078 38.6987 14.3014C38.2924 13.8951 37.7413 13.6668 37.1667 13.6668H24.1667L19.8333 2.8335H6.83333V16.9168M35 2.8335H32.8333C32.2587 2.8335 31.7076 3.06177 31.3013 3.4681C30.8949 3.87443 30.6667 4.42553 30.6667 5.00016V13.6668M2.5 24.5002C2.5 26.7987 3.41309 29.0031 5.03841 30.6284C6.66372 32.2537 8.86812 33.1668 11.1667 33.1668C13.4652 33.1668 15.6696 32.2537 17.2949 30.6284C18.9202 29.0031 19.8333 26.7987 19.8333 24.5002C19.8333 22.2016 18.9202 19.9972 17.2949 18.3719C15.6696 16.7466 13.4652 15.8335 11.1667 15.8335C8.86812 15.8335 6.66372 16.7466 5.03841 18.3719C3.41309 19.9972 2.5 22.2016 2.5 24.5002Z" stroke="#1358BF" stroke-width="4" stroke-linecap="round" stroke-linejoin="round"/>
</svg>
