<svg width="20" height="21" viewBox="0 0 20 21" fill="none" xmlns="http://www.w3.org/2000/svg">
<path d="M6.48417 18.2505C8.86872 18.2505 10.8136 16.3057 10.8136 13.9211C10.8136 11.5366 8.86872 9.59172 6.48417 9.59172C4.09962 9.59172 2.15479 11.5366 2.15479 13.9211C2.15479 16.3057 4.09962 18.2505 6.48417 18.2505Z" stroke="#6E737B" stroke-width="1.2" stroke-miterlimit="22.926" stroke-linecap="round" stroke-linejoin="round"/>
<path d="M6.48404 15.0601C7.11154 15.0601 7.62335 14.5482 7.62335 13.9207C7.62335 13.2932 7.11154 12.7814 6.48404 12.7814C5.85654 12.7814 5.34473 13.2932 5.34473 13.9207C5.34473 14.5482 5.85654 15.0601 6.48404 15.0601Z" stroke="#6E737B" stroke-width="1.2" stroke-miterlimit="22.926" stroke-linecap="round" stroke-linejoin="round"/>
<path d="M14.2966 15.2583H10.8462" stroke="#6E737B" stroke-width="1.2" stroke-miterlimit="22.926" stroke-linecap="round" stroke-linejoin="round"/>
<path d="M8.99072 10.3075H15.0801C16.1559 10.3075 17.0333 11.1851 17.0333 12.2606V14.6206" stroke="#6E737B" stroke-width="1.2" stroke-miterlimit="22.926" stroke-linecap="round" stroke-linejoin="round"/>
<path d="M4.76514 9.68896V4.41558" stroke="#6E737B" stroke-width="1.2" stroke-miterlimit="22.926" stroke-linecap="round" stroke-linejoin="round"/>
<path d="M7.88379 9.46143V4.64376" stroke="#6E737B" stroke-width="1.2" stroke-miterlimit="22.926" stroke-linecap="round" stroke-linejoin="round"/>
<path d="M10.7241 4.64035L12.4187 10.1836" stroke="#6E737B" stroke-width="1.2" stroke-miterlimit="22.926" stroke-linecap="round" stroke-linejoin="round"/>
<path d="M15.9404 18.2505C16.9893 18.2505 17.8447 17.3951 17.8447 16.3462C17.8447 15.2974 16.9893 14.4419 15.9404 14.4419C14.8916 14.4419 14.0361 15.2974 14.0361 16.3462C14.0361 17.3951 14.8916 18.2505 15.9404 18.2505Z" stroke="#6E737B" stroke-width="1.2" stroke-miterlimit="22.926" stroke-linecap="round" stroke-linejoin="round"/>
<path d="M14.458 9.98193V8.2242C14.458 7.90145 14.7213 7.63821 15.044 7.63821H15.2731" stroke="#6E737B" stroke-width="1.2" stroke-miterlimit="22.926" stroke-linecap="round" stroke-linejoin="round"/>
<path d="M4.76514 4.41553H12.0734" stroke="#6E737B" stroke-width="1.2" stroke-miterlimit="22.926" stroke-linecap="round" stroke-linejoin="round"/>
<path d="M16.9984 12.4888H15.8916C15.3545 12.4888 14.915 12.0493 14.915 11.5122V10.3729" stroke="#6E737B" stroke-width="1.2" stroke-miterlimit="22.926" stroke-linecap="round" stroke-linejoin="round"/>
</svg>
