<svg width="24" height="25" viewBox="0 0 24 25" fill="none" xmlns="http://www.w3.org/2000/svg">
<path d="M7 15.5V15.51M17 17.5C17 18.0304 17.2107 18.5391 17.5858 18.9142C17.9609 19.2893 18.4696 19.5 19 19.5C19.5304 19.5 20.0391 19.2893 20.4142 18.9142C20.7893 18.5391 21 18.0304 21 17.5C21 16.9696 20.7893 16.4609 20.4142 16.0858C20.0391 15.7107 19.5304 15.5 19 15.5C18.4696 15.5 17.9609 15.7107 17.5858 16.0858C17.2107 16.4609 17 16.9696 17 17.5ZM17 17.5H10.5M20 15.7V11.5C20 11.2348 19.8946 10.9804 19.7071 10.7929C19.5196 10.6054 19.2652 10.5 19 10.5H13L11 5.5H5V12M18 5.5H17C16.7348 5.5 16.4804 5.60536 16.2929 5.79289C16.1054 5.98043 16 6.23478 16 6.5V10.5M3 15.5C3 16.5609 3.42143 17.5783 4.17157 18.3284C4.92172 19.0786 5.93913 19.5 7 19.5C8.06087 19.5 9.07828 19.0786 9.82843 18.3284C10.5786 17.5783 11 16.5609 11 15.5C11 14.4391 10.5786 13.4217 9.82843 12.6716C9.07828 11.9214 8.06087 11.5 7 11.5C5.93913 11.5 4.92172 11.9214 4.17157 12.6716C3.42143 13.4217 3 14.4391 3 15.5Z" stroke="#1358BF" stroke-width="2" stroke-linecap="round" stroke-linejoin="round"/>
</svg>
