<svg width="28" height="28" viewBox="0 0 28 28" fill="none" xmlns="http://www.w3.org/2000/svg">
<circle cx="14" cy="14" r="14" fill="#DEF1FF"/>
<path d="M20.1795 11.92H18.8043V11.0605C18.8043 10.7511 18.9074 10.4588 19.0793 10.2182C19.1653 10.0978 19.1653 9.90873 19.045 9.80559L18.5808 9.28988C18.4605 9.15236 18.237 9.13517 18.0995 9.2555C18.0823 9.27269 18.0651 9.28988 18.0479 9.30707C17.6525 9.80559 17.4291 10.4244 17.4291 11.0605V11.92H15.2287L14.0254 9.10079C13.8707 8.7226 13.4925 8.48193 13.0799 8.48193H10.2091C9.64183 8.48193 9.17769 8.94607 9.17769 9.51336V12.6592C8.9886 12.5045 8.73074 12.5217 8.55884 12.6936L7.88841 13.364C7.69932 13.5531 7.69932 13.8453 7.88841 14.0344L7.99156 14.1376C7.88841 14.3267 7.80246 14.5329 7.7337 14.7564H7.57899C7.32113 14.7564 7.09766 14.9627 7.09766 15.2377V16.1832C7.09766 16.4411 7.30394 16.6645 7.57899 16.6645H7.7337C7.80246 16.8708 7.88841 17.0771 7.99156 17.2834L7.88841 17.3865C7.69932 17.5756 7.69932 17.8679 7.88841 18.057L8.55884 18.7274C8.74793 18.9165 9.04017 18.9165 9.22926 18.7274L9.3324 18.6243C9.5215 18.7274 9.72778 18.8133 9.95126 18.8821V19.0368C9.95126 19.2947 10.1575 19.5182 10.4326 19.5182H11.3781C11.6359 19.5182 11.8594 19.3119 11.8594 19.0368V18.8821C12.0657 18.8133 12.272 18.7274 12.4782 18.6243L12.5814 18.7274C12.7705 18.9165 13.0627 18.9165 13.2518 18.7274L13.9222 18.057C14.1113 17.8679 14.1113 17.5756 13.9222 17.3865L13.8191 17.2834C13.9222 17.0943 14.0082 16.888 14.0769 16.6645H14.2317C14.4895 16.6645 14.713 16.4583 14.713 16.1832V16.0457H16.4492C17.1712 15.0487 18.5121 14.7392 19.6122 15.2721L20.6952 14.1719C20.8156 14.0516 20.9015 13.8625 20.9015 13.6906V12.6076C20.8671 12.2294 20.5577 11.92 20.1795 11.92ZM10.8967 17.4209C9.95126 17.4209 9.17769 16.6474 9.17769 15.7019C9.17769 14.7564 9.95126 13.9829 10.8967 13.9829C11.8422 13.9829 12.6158 14.7564 12.6158 15.7019C12.6158 16.6474 11.8422 17.4209 10.8967 17.4209ZM11.3781 11.92H10.5529V9.85716H12.8564L13.7503 11.92H11.3781Z" fill="#1358BF"/>
<path d="M18.4603 15.7021C17.4117 15.7021 16.5693 16.5445 16.5693 17.5931C16.5693 18.6417 17.4117 19.484 18.4603 19.484C19.5089 19.484 20.3512 18.6417 20.3512 17.5931C20.3512 16.5445 19.5089 15.7021 18.4603 15.7021ZM18.4603 18.1088C18.168 18.1088 17.9446 17.8853 17.9446 17.5931C17.9446 17.3009 18.168 17.0774 18.4603 17.0774C18.7525 17.0774 18.976 17.3009 18.976 17.5931C18.976 17.8853 18.7525 18.1088 18.4603 18.1088Z" fill="#1358BF"/>
</svg>
