<svg width="32" height="32" viewBox="0 0 32 32" fill="none" xmlns="http://www.w3.org/2000/svg">
<rect width="32" height="32" rx="16" fill="#689F3A"/>
<path d="M22.1795 13.9199H20.8043V13.0604C20.8043 12.751 20.9074 12.4588 21.0793 12.2181C21.1653 12.0978 21.1653 11.9087 21.045 11.8055L20.5808 11.2898C20.4605 11.1523 20.237 11.1351 20.0995 11.2554C20.0823 11.2726 20.0651 11.2898 20.0479 11.307C19.6525 11.8055 19.4291 12.4244 19.4291 13.0604V13.9199H17.2287L16.0254 11.1007C15.8707 10.7225 15.4925 10.4819 15.0799 10.4819H12.2091C11.6418 10.4819 11.1777 10.946 11.1777 11.5133V14.6591C10.9886 14.5044 10.7307 14.5216 10.5588 14.6935L9.88841 15.3639C9.69932 15.553 9.69932 15.8453 9.88841 16.0344L9.99156 16.1375C9.88841 16.3266 9.80246 16.5329 9.7337 16.7564H9.57899C9.32113 16.7564 9.09766 16.9626 9.09766 17.2377V18.1832C9.09766 18.441 9.30394 18.6645 9.57899 18.6645H9.7337C9.80246 18.8708 9.88841 19.0771 9.99156 19.2833L9.88841 19.3865C9.69932 19.5756 9.69932 19.8678 9.88841 20.0569L10.5588 20.7273C10.7479 20.9164 11.0402 20.9164 11.2293 20.7273L11.3324 20.6242C11.5215 20.7273 11.7278 20.8133 11.9513 20.882V21.0368C11.9513 21.2946 12.1575 21.5181 12.4326 21.5181H13.3781C13.6359 21.5181 13.8594 21.3118 13.8594 21.0368V20.882C14.0657 20.8133 14.272 20.7273 14.4782 20.6242L14.5814 20.7273C14.7705 20.9164 15.0627 20.9164 15.2518 20.7273L15.9222 20.0569C16.1113 19.8678 16.1113 19.5756 15.9222 19.3865L15.8191 19.2833C15.9222 19.0942 16.0082 18.888 16.0769 18.6645H16.2317C16.4895 18.6645 16.713 18.4582 16.713 18.1832V18.0456H18.4492C19.1712 17.0486 20.5121 16.7392 21.6122 17.2721L22.6952 16.1719C22.8156 16.0516 22.9015 15.8625 22.9015 15.6906V14.6076C22.8671 14.2294 22.5577 13.9199 22.1795 13.9199ZM12.8967 19.4209C11.9513 19.4209 11.1777 18.6473 11.1777 17.7018C11.1777 16.7564 11.9513 15.9828 12.8967 15.9828C13.8422 15.9828 14.6158 16.7564 14.6158 17.7018C14.6158 18.6473 13.8422 19.4209 12.8967 19.4209ZM13.3781 13.9199H12.5529V11.8571H14.8564L15.7503 13.9199H13.3781Z" fill="white"/>
<path d="M20.4603 17.7019C19.4117 17.7019 18.5693 18.5442 18.5693 19.5928C18.5693 20.6415 19.4117 21.4838 20.4603 21.4838C21.5089 21.4838 22.3512 20.6415 22.3512 19.5928C22.3512 18.5442 21.5089 17.7019 20.4603 17.7019ZM20.4603 20.1086C20.168 20.1086 19.9446 19.8851 19.9446 19.5928C19.9446 19.3006 20.168 19.0771 20.4603 19.0771C20.7525 19.0771 20.976 19.3006 20.976 19.5928C20.976 19.8851 20.7525 20.1086 20.4603 20.1086Z" fill="white"/>
</svg>
