<svg width="21" height="21" viewBox="0 0 21 21" fill="none" xmlns="http://www.w3.org/2000/svg">
<path d="M15.6565 9.58069C16.819 9.41735 17.714 8.42069 17.7165 7.21319C17.7165 6.02319 16.849 5.03652 15.7115 4.84985" stroke="#6E737B" stroke-width="1.5" stroke-linecap="round" stroke-linejoin="round"/>
<path d="M17.1904 12.3752C18.3163 12.5436 19.1021 12.9377 19.1021 13.7502C19.1021 14.3094 18.7321 14.6727 18.1338 14.9011" stroke="#6E737B" stroke-width="1.5" stroke-linecap="round" stroke-linejoin="round"/>
<path fill-rule="evenodd" clip-rule="evenodd" d="M10.6555 12.7198C7.9772 12.7198 5.6897 13.1257 5.6897 14.7465C5.6897 16.3665 7.96303 16.784 10.6555 16.784C13.3339 16.784 15.6205 16.3823 15.6205 14.7607C15.6205 13.139 13.348 12.7198 10.6555 12.7198Z" stroke="#6E737B" stroke-width="1.5" stroke-linecap="round" stroke-linejoin="round"/>
<path fill-rule="evenodd" clip-rule="evenodd" d="M10.6557 10.4066C12.4132 10.4066 13.8382 8.98246 13.8382 7.22413C13.8382 5.46663 12.4132 4.04163 10.6557 4.04163C8.89817 4.04163 7.47317 5.46663 7.47317 7.22413C7.4665 8.97579 8.88067 10.4008 10.6323 10.4066H10.6557Z" stroke="#6E737B" stroke-width="1.5" stroke-linecap="round" stroke-linejoin="round"/>
<path d="M5.65399 9.58069C4.49066 9.41735 3.59649 8.42069 3.59399 7.21319C3.59399 6.02319 4.46149 5.03652 5.59899 4.84985" stroke="#6E737B" stroke-width="1.5" stroke-linecap="round" stroke-linejoin="round"/>
<path d="M4.11992 12.3752C2.99409 12.5436 2.20825 12.9377 2.20825 13.7502C2.20825 14.3094 2.57825 14.6727 3.17659 14.9011" stroke="#6E737B" stroke-width="1.5" stroke-linecap="round" stroke-linejoin="round"/>
</svg>
