<svg width="82" height="82" viewBox="0 0 82 82" fill="none" xmlns="http://www.w3.org/2000/svg">
<circle cx="41" cy="41" r="39" stroke="#F59300" stroke-width="4"/>
<path d="M39.5412 21.1387H44.5518L43.657 49.4343H40.3763L39.5412 21.1387ZM42.0465 61.8497C41.1716 61.8497 40.416 61.561 39.7798 60.9836C39.1833 60.3676 38.885 59.6554 38.885 58.8469C38.885 58 39.1833 57.307 39.7798 56.7681C40.3763 56.1906 41.1318 55.9019 42.0465 55.9019C42.9213 55.9019 43.657 56.1906 44.2535 56.7681C44.85 57.307 45.1483 58 45.1483 58.8469C45.1483 59.6554 44.85 60.3676 44.2535 60.9836C43.657 61.561 42.9213 61.8497 42.0465 61.8497Z" fill="#F59300"/>
</svg>
