<svg width="28" height="28" viewBox="0 0 28 28" fill="none" xmlns="http://www.w3.org/2000/svg">
<circle cx="14" cy="14" r="14" fill="#FFF5DB"/>
<g clip-path="url(#clip0_2191_13311)">
<path d="M20.1646 13.3244H19.9646V13.5244V14.4711V14.6711H20.1646H21.1112H21.3112V14.4711V13.5244V13.3244H21.1112H20.1646Z" fill="#FFB800" stroke="#FFB800" stroke-width="0.4"/>
<path d="M6.88892 13.3244H6.68892V13.5244V14.4711V14.6711H6.88892H7.83558H8.03558V14.4711V13.5244V13.3244H7.83558H6.88892Z" fill="#FFB800" stroke="#FFB800" stroke-width="0.4"/>
<path d="M8.78662 13.3244H8.58662V13.5244V14.4711V14.6711H8.78662H10.0667C10.107 14.9126 10.1695 15.1499 10.2536 15.3798L8.73499 16.2627L8.56247 16.3629L8.66238 16.5357L9.13794 17.3579L9.23798 17.5309L9.41104 17.431L10.933 16.5526C11.0897 16.741 11.2634 16.9147 11.4518 17.0714L10.5734 18.5934L10.4735 18.7664L10.6465 18.8665L11.4687 19.342L11.6418 19.4421L11.7419 19.2691L12.6204 17.7509C12.8503 17.8349 13.0875 17.8974 13.3288 17.9377V19.2178V19.4178H13.5288H14.4755H14.6755V19.2178V17.9333C14.9169 17.893 15.1541 17.8305 15.3839 17.7465L16.2624 19.2646L16.3626 19.4377L16.5356 19.3376L17.3579 18.862L17.5308 18.762L17.431 18.5889L16.5526 17.067C16.741 16.9102 16.9146 16.7366 17.0714 16.5482L18.5933 17.4266L18.7664 17.5264L18.8664 17.3535L19.342 16.5312L19.4421 16.3582L19.269 16.258L17.7509 15.3795C17.8349 15.1497 17.8974 14.9125 17.9376 14.6711H19.2177H19.4177V14.4711V13.5244V13.3244H19.2177H17.9332C17.893 13.0831 17.8304 12.8459 17.7465 12.616L19.2646 11.7376L19.4376 11.6374L19.3375 11.4643L18.862 10.6421L18.7619 10.4691L18.5889 10.569L17.0669 11.4474C16.9102 11.259 16.7365 11.0853 16.5482 10.9286L17.4265 9.40664L17.5266 9.23328L17.3531 9.13337L16.5353 8.66226L16.3624 8.56261L16.2624 8.73538L15.3839 10.2535C15.1541 10.1695 14.9169 10.107 14.6755 10.0667V8.78667V8.58667H14.4755H13.5244H13.3244V8.78667V10.0667C13.083 10.107 12.8459 10.1695 12.616 10.2535L11.7375 8.73538L11.6371 8.56191L11.4639 8.66266L10.6461 9.13822L10.4738 9.23843L10.5734 9.41108L11.4518 10.933C11.2634 11.0898 11.0897 11.2634 10.933 11.4518L9.41104 10.5734L9.23838 10.4738L9.13817 10.6461L8.66262 11.4639L8.56186 11.6372L8.73534 11.7376L10.2535 12.616C10.1695 12.8459 10.107 13.0831 10.0667 13.3244H8.78662ZM11.3555 13.9998C11.3555 13.4769 11.5106 12.9657 11.8012 12.5308C12.0918 12.0959 12.5048 11.757 12.988 11.5569C13.4712 11.3567 14.0029 11.3043 14.5159 11.4064C15.0288 11.5084 15.5 11.7603 15.8699 12.1301C16.2397 12.4999 16.4915 12.9711 16.5936 13.4841C16.6956 13.9971 16.6433 14.5288 16.4431 15.012C16.243 15.4952 15.904 15.9082 15.4691 16.1988C15.0343 16.4893 14.5232 16.6444 14.0003 16.6444C13.2992 16.6434 12.6271 16.3644 12.1313 15.8686C11.6356 15.3729 11.3566 14.7009 11.3555 13.9998Z" fill="#FFB800" stroke="#FFB800" stroke-width="0.4"/>
<path d="M13.5244 19.9644H13.3244V20.1644V21.1111V21.3111H13.5244H14.4711H14.6711V21.1111V20.1644V19.9644H14.4711H13.5244Z" fill="#FFB800" stroke="#FFB800" stroke-width="0.4"/>
<path d="M13.5244 6.68889H13.3244V6.88889V7.83555V8.03555H13.5244H14.4711H14.6711V7.83555V6.88889V6.68889H14.4711H13.5244Z" fill="#FFB800" stroke="#FFB800" stroke-width="0.4"/>
</g>
<defs>
<clipPath id="clip0_2191_13311">
<rect width="16" height="16" fill="white" transform="translate(6 6)"/>
</clipPath>
</defs>
</svg>
